%TF.GenerationSoftware,KiCad,Pcbnew,8.0.5*%
%TF.CreationDate,2024-10-22T17:39:12+02:00*%
%TF.ProjectId,Ingenuity,496e6765-6e75-4697-9479-2e6b69636164,rev?*%
%TF.SameCoordinates,Original*%
%TF.FileFunction,Soldermask,Top*%
%TF.FilePolarity,Negative*%
%FSLAX46Y46*%
G04 Gerber Fmt 4.6, Leading zero omitted, Abs format (unit mm)*
G04 Created by KiCad (PCBNEW 8.0.5) date 2024-10-22 17:39:12*
%MOMM*%
%LPD*%
G01*
G04 APERTURE LIST*
G04 Aperture macros list*
%AMRoundRect*
0 Rectangle with rounded corners*
0 $1 Rounding radius*
0 $2 $3 $4 $5 $6 $7 $8 $9 X,Y pos of 4 corners*
0 Add a 4 corners polygon primitive as box body*
4,1,4,$2,$3,$4,$5,$6,$7,$8,$9,$2,$3,0*
0 Add four circle primitives for the rounded corners*
1,1,$1+$1,$2,$3*
1,1,$1+$1,$4,$5*
1,1,$1+$1,$6,$7*
1,1,$1+$1,$8,$9*
0 Add four rect primitives between the rounded corners*
20,1,$1+$1,$2,$3,$4,$5,0*
20,1,$1+$1,$4,$5,$6,$7,0*
20,1,$1+$1,$6,$7,$8,$9,0*
20,1,$1+$1,$8,$9,$2,$3,0*%
G04 Aperture macros list end*
%ADD10C,1.500000*%
%ADD11C,1.800000*%
%ADD12RoundRect,0.150000X0.150000X-0.512500X0.150000X0.512500X-0.150000X0.512500X-0.150000X-0.512500X0*%
%ADD13RoundRect,0.140000X-0.140000X-0.170000X0.140000X-0.170000X0.140000X0.170000X-0.140000X0.170000X0*%
%ADD14RoundRect,0.140000X0.140000X0.170000X-0.140000X0.170000X-0.140000X-0.170000X0.140000X-0.170000X0*%
%ADD15RoundRect,0.087500X-0.225000X-0.087500X0.225000X-0.087500X0.225000X0.087500X-0.225000X0.087500X0*%
%ADD16RoundRect,0.087500X-0.087500X-0.225000X0.087500X-0.225000X0.087500X0.225000X-0.087500X0.225000X0*%
%ADD17RoundRect,0.125000X-0.625000X-0.125000X0.625000X-0.125000X0.625000X0.125000X-0.625000X0.125000X0*%
%ADD18RoundRect,0.125000X-0.125000X-0.625000X0.125000X-0.625000X0.125000X0.625000X-0.125000X0.625000X0*%
%ADD19R,1.300000X1.550000*%
%ADD20RoundRect,0.135000X0.135000X0.185000X-0.135000X0.185000X-0.135000X-0.185000X0.135000X-0.185000X0*%
%ADD21RoundRect,0.135000X0.185000X-0.135000X0.185000X0.135000X-0.185000X0.135000X-0.185000X-0.135000X0*%
%ADD22R,2.400000X0.740000*%
%ADD23RoundRect,0.250000X0.725000X-0.600000X0.725000X0.600000X-0.725000X0.600000X-0.725000X-0.600000X0*%
%ADD24O,1.950000X1.700000*%
%ADD25RoundRect,0.250000X-0.725000X0.600000X-0.725000X-0.600000X0.725000X-0.600000X0.725000X0.600000X0*%
%ADD26R,1.700000X1.700000*%
%ADD27O,1.700000X1.700000*%
%ADD28RoundRect,0.250000X0.600000X0.725000X-0.600000X0.725000X-0.600000X-0.725000X0.600000X-0.725000X0*%
%ADD29O,1.700000X1.950000*%
%ADD30C,4.700000*%
%ADD31RoundRect,0.218750X-0.256250X0.218750X-0.256250X-0.218750X0.256250X-0.218750X0.256250X0.218750X0*%
%ADD32RoundRect,0.140000X0.170000X-0.140000X0.170000X0.140000X-0.170000X0.140000X-0.170000X-0.140000X0*%
%ADD33RoundRect,0.140000X-0.170000X0.140000X-0.170000X-0.140000X0.170000X-0.140000X0.170000X0.140000X0*%
%ADD34RoundRect,0.225000X0.225000X0.250000X-0.225000X0.250000X-0.225000X-0.250000X0.225000X-0.250000X0*%
G04 APERTURE END LIST*
D10*
%TO.C,TP6*%
X167000000Y-113000000D03*
%TD*%
%TO.C,TP5*%
X164000000Y-113000000D03*
%TD*%
%TO.C,TP4*%
X161000000Y-113000000D03*
%TD*%
%TO.C,TP3*%
X158000000Y-113000000D03*
%TD*%
%TO.C,TP2*%
X178400000Y-104100000D03*
%TD*%
%TO.C,TP1*%
X184400000Y-105700000D03*
%TD*%
D11*
%TO.C,U1*%
X181040000Y-110000000D03*
X178500000Y-110000000D03*
X175960000Y-110000000D03*
%TD*%
D12*
%TO.C,U3*%
X174050000Y-104137500D03*
X175000000Y-104137500D03*
X175950000Y-104137500D03*
X175950000Y-101862500D03*
X174050000Y-101862500D03*
%TD*%
D13*
%TO.C,C8*%
X174020000Y-105700000D03*
X174980000Y-105700000D03*
%TD*%
%TO.C,C10*%
X174020000Y-100300000D03*
X174980000Y-100300000D03*
%TD*%
D14*
%TO.C,C11*%
X164580000Y-120450000D03*
X163620000Y-120450000D03*
%TD*%
D15*
%TO.C,U4*%
X163937500Y-117450000D03*
X163937500Y-117950000D03*
X163937500Y-118450000D03*
X163937500Y-118950000D03*
D16*
X164600000Y-119112500D03*
X165100000Y-119112500D03*
X165600000Y-119112500D03*
D15*
X166262500Y-118950000D03*
X166262500Y-118450000D03*
X166262500Y-117950000D03*
X166262500Y-117450000D03*
D16*
X165600000Y-117287500D03*
X165100000Y-117287500D03*
X164600000Y-117287500D03*
%TD*%
D17*
%TO.C,U2*%
X159825000Y-102200000D03*
X159825000Y-103000000D03*
X159825000Y-103800000D03*
X159825000Y-104600000D03*
X159825000Y-105400000D03*
X159825000Y-106200000D03*
X159825000Y-107000000D03*
X159825000Y-107800000D03*
D18*
X161200000Y-109175000D03*
X162000000Y-109175000D03*
X162800000Y-109175000D03*
X163600000Y-109175000D03*
X164400000Y-109175000D03*
X165200000Y-109175000D03*
X166000000Y-109175000D03*
X166800000Y-109175000D03*
D17*
X168175000Y-107800000D03*
X168175000Y-107000000D03*
X168175000Y-106200000D03*
X168175000Y-105400000D03*
X168175000Y-104600000D03*
X168175000Y-103800000D03*
X168175000Y-103000000D03*
X168175000Y-102200000D03*
D18*
X166800000Y-100825000D03*
X166000000Y-100825000D03*
X165200000Y-100825000D03*
X164400000Y-100825000D03*
X163600000Y-100825000D03*
X162800000Y-100825000D03*
X162000000Y-100825000D03*
X161200000Y-100825000D03*
%TD*%
D19*
%TO.C,SW2*%
X148250000Y-113475000D03*
X148250000Y-105525000D03*
X152750000Y-113475000D03*
X152750000Y-105525000D03*
%TD*%
D20*
%TO.C,R9*%
X150510000Y-100000000D03*
X149490000Y-100000000D03*
%TD*%
D21*
%TO.C,R8*%
X162000000Y-99210000D03*
X162000000Y-98190000D03*
%TD*%
%TO.C,R7*%
X173900000Y-95890000D03*
X173900000Y-96910000D03*
%TD*%
%TO.C,R6*%
X169900000Y-96910000D03*
X169900000Y-95890000D03*
%TD*%
%TO.C,R4*%
X167900000Y-96910000D03*
X167900000Y-95890000D03*
%TD*%
%TO.C,R2*%
X165900000Y-96910000D03*
X165900000Y-95890000D03*
%TD*%
D20*
%TO.C,R1*%
X150510000Y-98500000D03*
X149490000Y-98500000D03*
%TD*%
D22*
%TO.C,J8*%
X180050000Y-93690000D03*
X183950000Y-93690000D03*
X180050000Y-94960000D03*
X183950000Y-94960000D03*
X180050000Y-96230000D03*
X183950000Y-96230000D03*
X180050000Y-97500000D03*
X183950000Y-97500000D03*
X180050000Y-98770000D03*
X183950000Y-98770000D03*
X180050000Y-100040000D03*
X183950000Y-100040000D03*
X180050000Y-101310000D03*
X183950000Y-101310000D03*
%TD*%
D23*
%TO.C,J5*%
X189500000Y-112500000D03*
D24*
X189500000Y-110000000D03*
X189500000Y-107500000D03*
%TD*%
D25*
%TO.C,J4*%
X131025000Y-107500000D03*
D24*
X131025000Y-110000000D03*
X131025000Y-112500000D03*
%TD*%
D26*
%TO.C,J3*%
X184740000Y-128540000D03*
D27*
X184740000Y-126000000D03*
X182200000Y-128540000D03*
X182200000Y-126000000D03*
X179660000Y-128540000D03*
X179660000Y-126000000D03*
X177120000Y-128540000D03*
X177120000Y-126000000D03*
X174580000Y-128540000D03*
X174580000Y-126000000D03*
X172040000Y-128540000D03*
X172040000Y-126000000D03*
X169500000Y-128540000D03*
X169500000Y-126000000D03*
X166960000Y-128540000D03*
X166960000Y-126000000D03*
X164420000Y-128540000D03*
X164420000Y-126000000D03*
X161880000Y-128540000D03*
X161880000Y-126000000D03*
X159340000Y-128540000D03*
X159340000Y-126000000D03*
X156800000Y-128540000D03*
X156800000Y-126000000D03*
X154260000Y-128540000D03*
X154260000Y-126000000D03*
X151720000Y-128540000D03*
X151720000Y-126000000D03*
X149180000Y-128540000D03*
X149180000Y-126000000D03*
X146640000Y-128540000D03*
X146640000Y-126000000D03*
X144100000Y-128540000D03*
X144100000Y-126000000D03*
X141560000Y-128540000D03*
X141560000Y-126000000D03*
X139020000Y-128540000D03*
X139020000Y-126000000D03*
X136480000Y-128540000D03*
X136480000Y-126000000D03*
%TD*%
D26*
%TO.C,J2*%
X139225000Y-108380000D03*
D27*
X141765000Y-108380000D03*
X139225000Y-110920000D03*
X141765000Y-110920000D03*
X139225000Y-113460000D03*
X141765000Y-113460000D03*
X139225000Y-116000000D03*
X141765000Y-116000000D03*
X139225000Y-118540000D03*
X141765000Y-118540000D03*
%TD*%
D28*
%TO.C,J1*%
X149500000Y-95000000D03*
D29*
X147000000Y-95000000D03*
X144500000Y-95000000D03*
X142000000Y-95000000D03*
%TD*%
D30*
%TO.C,H4*%
X130500000Y-127500000D03*
%TD*%
%TO.C,H3*%
X190500000Y-127500000D03*
%TD*%
%TO.C,H2*%
X190500000Y-95000000D03*
%TD*%
%TO.C,H1*%
X130500000Y-95000000D03*
%TD*%
D31*
%TO.C,D6*%
X173900000Y-93012500D03*
X173900000Y-94587500D03*
%TD*%
%TO.C,D5*%
X169900000Y-93012500D03*
X169900000Y-94587500D03*
%TD*%
%TO.C,D3*%
X167900000Y-94587500D03*
X167900000Y-93012500D03*
%TD*%
%TO.C,D1*%
X165900000Y-94587500D03*
X165900000Y-93012500D03*
%TD*%
D14*
%TO.C,C9*%
X165620000Y-120450000D03*
X166580000Y-120450000D03*
%TD*%
D13*
%TO.C,C7*%
X151520000Y-98500000D03*
X152480000Y-98500000D03*
%TD*%
D32*
%TO.C,C6*%
X158900000Y-99420000D03*
X158900000Y-100380000D03*
%TD*%
D14*
%TO.C,C5*%
X157020000Y-105500000D03*
X157980000Y-105500000D03*
%TD*%
%TO.C,C4*%
X157980000Y-104500000D03*
X157020000Y-104500000D03*
%TD*%
D33*
%TO.C,C3*%
X168500000Y-109980000D03*
X168500000Y-109020000D03*
%TD*%
D32*
%TO.C,C2*%
X159900000Y-99420000D03*
X159900000Y-100380000D03*
%TD*%
D34*
%TO.C,C1*%
X180975000Y-106300000D03*
X179425000Y-106300000D03*
%TD*%
M02*
