M48
; DRILL file {KiCad 8.0.5} date 2025-01-21T17:20:10+0100
; FORMAT={-:-/ absolute / inch / decimal}
; #@! TF.CreationDate,2025-01-21T17:20:10+01:00
; #@! TF.GenerationSoftware,Kicad,Pcbnew,8.0.5
; #@! TF.FileFunction,Plated,1,4,PTH
FMAT,2
INCH
; #@! TA.AperFunction,Plated,PTH,ViaDrill
T1C0.0118
; #@! TA.AperFunction,Plated,PTH,ComponentDrill
T2C0.0374
; #@! TA.AperFunction,Plated,PTH,ComponentDrill
T3C0.0394
; #@! TA.AperFunction,Plated,PTH,ComponentDrill
T4C0.1063
%
G90
G05
T1
X5.122Y-4.5394
X5.1654Y-4.752
X5.1929Y-4.0079
X5.2047Y-4.5394
X5.3336Y-3.6839
X5.4055Y-3.7874
X5.4291Y-4.3268
X5.4291Y-4.5197
X5.4331Y-4.6142
X5.437Y-3.9921
X5.4409Y-4.1535
X5.5315Y-4.6102
X5.5354Y-4.5157
X5.5827Y-4.0197
X5.6181Y-4.5236
X5.6181Y-4.6181
X5.6181Y-4.8071
X5.626Y-4.4134
X5.7915Y-4.8104
X5.7919Y-3.8924
X5.8105Y-4.6221
X5.8346Y-4.3071
X5.8661Y-3.937
X5.9843Y-4.0
X5.9882Y-4.8425
X6.0Y-3.9685
X6.0236Y-3.878
X6.0516Y-4.5869
X6.1339Y-4.6299
X6.1437Y-4.7956
X6.1457Y-3.7362
X6.1614Y-4.1339
X6.2047Y-4.5039
X6.2126Y-4.5669
X6.2205Y-4.0748
X6.2334Y-3.6454
X6.2441Y-4.1535
X6.2559Y-3.8937
X6.2559Y-3.9724
X6.2795Y-3.8465
X6.2953Y-3.8937
X6.2953Y-3.9724
X6.3346Y-3.8898
X6.3425Y-4.8583
X6.353Y-3.6843
X6.4134Y-4.1811
X6.4134Y-4.7756
X6.4173Y-4.5906
X6.4213Y-4.5315
X6.4331Y-4.6535
X6.4606Y-4.7165
X6.5Y-4.7441
X6.5039Y-4.5591
X6.5079Y-4.3504
X6.5118Y-4.7126
X6.5433Y-4.5354
X6.5433Y-4.7165
X6.563Y-4.5709
X6.5709Y-3.6619
X6.5984Y-4.3189
X6.6299Y-4.2677
X6.6496Y-3.6619
X6.6647Y-4.5149
X6.685Y-4.1181
X6.685Y-4.1535
X6.7265Y-4.7189
X6.7283Y-4.0669
X6.7913Y-4.0512
X6.8071Y-3.9449
X6.8071Y-4.1378
X6.8189Y-3.6619
X6.8465Y-3.8425
X6.8504Y-3.9213
X6.8543Y-4.4488
X6.8701Y-4.2795
X6.874Y-4.8031
X6.8819Y-4.626
X6.8898Y-3.9724
X6.8898Y-4.1378
X6.9291Y-3.9291
X6.9331Y-3.8228
X6.9646Y-3.7165
X7.0079Y-3.937
X7.0197Y-4.4488
X7.0354Y-4.185
X7.1102Y-4.7402
X7.1614Y-3.7598
X7.1614Y-3.8583
X7.1614Y-3.9843
X7.1732Y-3.7008
X7.2087Y-4.0591
X7.2323Y-4.4567
X7.248Y-4.878
X7.252Y-4.6811
X7.311Y-3.8661
X7.311Y-3.9409
X7.362Y-4.6064
X7.374Y-4.7598
X7.4331Y-4.0984
X7.4331Y-3.9246
X7.4449Y-4.6496
X7.5039Y-4.8071
X7.5394Y-4.1535
X7.5512Y-4.5984
X7.5591Y-4.4803
X7.5748Y-4.315
X7.6079Y-4.0071
X7.6102Y-4.2165
X7.6102Y-4.3898
T2
X5.1585Y-4.2323
X5.1585Y-4.3307
X5.1585Y-4.4291
X5.5906Y-3.7402
X5.689Y-3.7402
X5.7874Y-3.7402
X5.8858Y-3.7402
X7.4606Y-4.2323
X7.4606Y-4.3307
X7.4606Y-4.4291
T3
X5.3732Y-4.9606
X5.3732Y-5.0606
X5.4732Y-4.9606
X5.4732Y-5.0606
X5.4813Y-4.2669
X5.4813Y-4.3669
X5.4813Y-4.4669
X5.4813Y-4.5669
X5.4813Y-4.6669
X5.5732Y-4.9606
X5.5732Y-5.0606
X5.5813Y-4.2669
X5.5813Y-4.3669
X5.5813Y-4.4669
X5.5813Y-4.5669
X5.5813Y-4.6669
X5.6732Y-4.9606
X5.6732Y-5.0606
X5.7732Y-4.9606
X5.7732Y-5.0606
X5.8732Y-4.9606
X5.8732Y-5.0606
X5.9732Y-4.9606
X5.9732Y-5.0606
X6.0732Y-4.9606
X6.0732Y-5.0606
X6.1732Y-4.9606
X6.1732Y-5.0606
X6.2732Y-4.9606
X6.2732Y-5.0606
X6.3732Y-4.9606
X6.3732Y-5.0606
X6.4732Y-4.9606
X6.4732Y-5.0606
X6.5732Y-4.9606
X6.5732Y-5.0606
X6.6732Y-4.9606
X6.6732Y-5.0606
X6.7732Y-4.9606
X6.7732Y-5.0606
X6.8732Y-4.9606
X6.8732Y-5.0606
X6.9276Y-4.3307
X6.9732Y-4.9606
X6.9732Y-5.0606
X7.0276Y-4.3307
X7.0732Y-4.9606
X7.0732Y-5.0606
X7.1276Y-4.3307
X7.1732Y-4.9606
X7.1732Y-5.0606
X7.2732Y-4.9606
X7.2732Y-5.0606
T4
X5.1378Y-3.7402
X5.1378Y-5.0197
X7.5Y-3.7402
X7.5Y-5.0197
M30
