%TF.GenerationSoftware,KiCad,Pcbnew,8.0.5*%
%TF.CreationDate,2024-10-22T17:39:12+02:00*%
%TF.ProjectId,Ingenuity,496e6765-6e75-4697-9479-2e6b69636164,rev?*%
%TF.SameCoordinates,Original*%
%TF.FileFunction,Paste,Top*%
%TF.FilePolarity,Positive*%
%FSLAX46Y46*%
G04 Gerber Fmt 4.6, Leading zero omitted, Abs format (unit mm)*
G04 Created by KiCad (PCBNEW 8.0.5) date 2024-10-22 17:39:12*
%MOMM*%
%LPD*%
G01*
G04 APERTURE LIST*
G04 Aperture macros list*
%AMRoundRect*
0 Rectangle with rounded corners*
0 $1 Rounding radius*
0 $2 $3 $4 $5 $6 $7 $8 $9 X,Y pos of 4 corners*
0 Add a 4 corners polygon primitive as box body*
4,1,4,$2,$3,$4,$5,$6,$7,$8,$9,$2,$3,0*
0 Add four circle primitives for the rounded corners*
1,1,$1+$1,$2,$3*
1,1,$1+$1,$4,$5*
1,1,$1+$1,$6,$7*
1,1,$1+$1,$8,$9*
0 Add four rect primitives between the rounded corners*
20,1,$1+$1,$2,$3,$4,$5,0*
20,1,$1+$1,$4,$5,$6,$7,0*
20,1,$1+$1,$6,$7,$8,$9,0*
20,1,$1+$1,$8,$9,$2,$3,0*%
G04 Aperture macros list end*
%ADD10RoundRect,0.120000X0.120000X-0.410000X0.120000X0.410000X-0.120000X0.410000X-0.120000X-0.410000X0*%
%ADD11RoundRect,0.112000X-0.112000X-0.136000X0.112000X-0.136000X0.112000X0.136000X-0.112000X0.136000X0*%
%ADD12RoundRect,0.112000X0.112000X0.136000X-0.112000X0.136000X-0.112000X-0.136000X0.112000X-0.136000X0*%
%ADD13RoundRect,0.070000X-0.180000X-0.070000X0.180000X-0.070000X0.180000X0.070000X-0.180000X0.070000X0*%
%ADD14RoundRect,0.070000X-0.070000X-0.180000X0.070000X-0.180000X0.070000X0.180000X-0.070000X0.180000X0*%
%ADD15RoundRect,0.100000X-0.500000X-0.100000X0.500000X-0.100000X0.500000X0.100000X-0.500000X0.100000X0*%
%ADD16RoundRect,0.100000X-0.100000X-0.500000X0.100000X-0.500000X0.100000X0.500000X-0.100000X0.500000X0*%
%ADD17R,1.040000X1.240000*%
%ADD18RoundRect,0.108000X0.108000X0.148000X-0.108000X0.148000X-0.108000X-0.148000X0.108000X-0.148000X0*%
%ADD19RoundRect,0.108000X0.148000X-0.108000X0.148000X0.108000X-0.148000X0.108000X-0.148000X-0.108000X0*%
%ADD20R,1.920000X0.592000*%
%ADD21RoundRect,0.175000X-0.205000X0.175000X-0.205000X-0.175000X0.205000X-0.175000X0.205000X0.175000X0*%
%ADD22RoundRect,0.112000X0.136000X-0.112000X0.136000X0.112000X-0.136000X0.112000X-0.136000X-0.112000X0*%
%ADD23RoundRect,0.112000X-0.136000X0.112000X-0.136000X-0.112000X0.136000X-0.112000X0.136000X0.112000X0*%
%ADD24RoundRect,0.180000X0.180000X0.200000X-0.180000X0.200000X-0.180000X-0.200000X0.180000X-0.200000X0*%
G04 APERTURE END LIST*
D10*
%TO.C,U3*%
X174050000Y-104137500D03*
X175000000Y-104137500D03*
X175950000Y-104137500D03*
X175950000Y-101862500D03*
X174050000Y-101862500D03*
%TD*%
D11*
%TO.C,C8*%
X174020000Y-105700000D03*
X174980000Y-105700000D03*
%TD*%
%TO.C,C10*%
X174020000Y-100300000D03*
X174980000Y-100300000D03*
%TD*%
D12*
%TO.C,C11*%
X164580000Y-120450000D03*
X163620000Y-120450000D03*
%TD*%
D13*
%TO.C,U4*%
X163937500Y-117450000D03*
X163937500Y-117950000D03*
X163937500Y-118450000D03*
X163937500Y-118950000D03*
D14*
X164600000Y-119112500D03*
X165100000Y-119112500D03*
X165600000Y-119112500D03*
D13*
X166262500Y-118950000D03*
X166262500Y-118450000D03*
X166262500Y-117950000D03*
X166262500Y-117450000D03*
D14*
X165600000Y-117287500D03*
X165100000Y-117287500D03*
X164600000Y-117287500D03*
%TD*%
D15*
%TO.C,U2*%
X159825000Y-102200000D03*
X159825000Y-103000000D03*
X159825000Y-103800000D03*
X159825000Y-104600000D03*
X159825000Y-105400000D03*
X159825000Y-106200000D03*
X159825000Y-107000000D03*
X159825000Y-107800000D03*
D16*
X161200000Y-109175000D03*
X162000000Y-109175000D03*
X162800000Y-109175000D03*
X163600000Y-109175000D03*
X164400000Y-109175000D03*
X165200000Y-109175000D03*
X166000000Y-109175000D03*
X166800000Y-109175000D03*
D15*
X168175000Y-107800000D03*
X168175000Y-107000000D03*
X168175000Y-106200000D03*
X168175000Y-105400000D03*
X168175000Y-104600000D03*
X168175000Y-103800000D03*
X168175000Y-103000000D03*
X168175000Y-102200000D03*
D16*
X166800000Y-100825000D03*
X166000000Y-100825000D03*
X165200000Y-100825000D03*
X164400000Y-100825000D03*
X163600000Y-100825000D03*
X162800000Y-100825000D03*
X162000000Y-100825000D03*
X161200000Y-100825000D03*
%TD*%
D17*
%TO.C,SW2*%
X148250000Y-113475000D03*
X148250000Y-105525000D03*
X152750000Y-113475000D03*
X152750000Y-105525000D03*
%TD*%
D18*
%TO.C,R9*%
X150510000Y-100000000D03*
X149490000Y-100000000D03*
%TD*%
D19*
%TO.C,R8*%
X162000000Y-99210000D03*
X162000000Y-98190000D03*
%TD*%
%TO.C,R7*%
X173900000Y-95890000D03*
X173900000Y-96910000D03*
%TD*%
%TO.C,R6*%
X169900000Y-96910000D03*
X169900000Y-95890000D03*
%TD*%
%TO.C,R4*%
X167900000Y-96910000D03*
X167900000Y-95890000D03*
%TD*%
%TO.C,R2*%
X165900000Y-96910000D03*
X165900000Y-95890000D03*
%TD*%
D18*
%TO.C,R1*%
X150510000Y-98500000D03*
X149490000Y-98500000D03*
%TD*%
D20*
%TO.C,J8*%
X180050000Y-93690000D03*
X183950000Y-93690000D03*
X180050000Y-94960000D03*
X183950000Y-94960000D03*
X180050000Y-96230000D03*
X183950000Y-96230000D03*
X180050000Y-97500000D03*
X183950000Y-97500000D03*
X180050000Y-98770000D03*
X183950000Y-98770000D03*
X180050000Y-100040000D03*
X183950000Y-100040000D03*
X180050000Y-101310000D03*
X183950000Y-101310000D03*
%TD*%
D21*
%TO.C,D6*%
X173900000Y-93012500D03*
X173900000Y-94587500D03*
%TD*%
%TO.C,D5*%
X169900000Y-93012500D03*
X169900000Y-94587500D03*
%TD*%
%TO.C,D3*%
X167900000Y-94587500D03*
X167900000Y-93012500D03*
%TD*%
%TO.C,D1*%
X165900000Y-94587500D03*
X165900000Y-93012500D03*
%TD*%
D12*
%TO.C,C9*%
X165620000Y-120450000D03*
X166580000Y-120450000D03*
%TD*%
D11*
%TO.C,C7*%
X151520000Y-98500000D03*
X152480000Y-98500000D03*
%TD*%
D22*
%TO.C,C6*%
X158900000Y-99420000D03*
X158900000Y-100380000D03*
%TD*%
D12*
%TO.C,C5*%
X157020000Y-105500000D03*
X157980000Y-105500000D03*
%TD*%
%TO.C,C4*%
X157980000Y-104500000D03*
X157020000Y-104500000D03*
%TD*%
D23*
%TO.C,C3*%
X168500000Y-109980000D03*
X168500000Y-109020000D03*
%TD*%
D22*
%TO.C,C2*%
X159900000Y-99420000D03*
X159900000Y-100380000D03*
%TD*%
D24*
%TO.C,C1*%
X180975000Y-106300000D03*
X179425000Y-106300000D03*
%TD*%
M02*
