%TF.GenerationSoftware,KiCad,Pcbnew,8.0.5*%
%TF.CreationDate,2025-01-21T17:20:08+01:00*%
%TF.ProjectId,Ingenuity,496e6765-6e75-4697-9479-2e6b69636164,rev?*%
%TF.SameCoordinates,Original*%
%TF.FileFunction,Soldermask,Bot*%
%TF.FilePolarity,Negative*%
%FSLAX46Y46*%
G04 Gerber Fmt 4.6, Leading zero omitted, Abs format (unit mm)*
G04 Created by KiCad (PCBNEW 8.0.5) date 2025-01-21 17:20:08*
%MOMM*%
%LPD*%
G01*
G04 APERTURE LIST*
G04 Aperture macros list*
%AMRoundRect*
0 Rectangle with rounded corners*
0 $1 Rounding radius*
0 $2 $3 $4 $5 $6 $7 $8 $9 X,Y pos of 4 corners*
0 Add a 4 corners polygon primitive as box body*
4,1,4,$2,$3,$4,$5,$6,$7,$8,$9,$2,$3,0*
0 Add four circle primitives for the rounded corners*
1,1,$1+$1,$2,$3*
1,1,$1+$1,$4,$5*
1,1,$1+$1,$6,$7*
1,1,$1+$1,$8,$9*
0 Add four rect primitives between the rounded corners*
20,1,$1+$1,$2,$3,$4,$5,0*
20,1,$1+$1,$4,$5,$6,$7,0*
20,1,$1+$1,$6,$7,$8,$9,0*
20,1,$1+$1,$8,$9,$2,$3,0*%
G04 Aperture macros list end*
%ADD10RoundRect,0.250000X0.725000X-0.600000X0.725000X0.600000X-0.725000X0.600000X-0.725000X-0.600000X0*%
%ADD11O,1.950000X1.700000*%
%ADD12R,1.700000X1.700000*%
%ADD13O,1.700000X1.700000*%
%ADD14C,4.700000*%
%ADD15RoundRect,0.250000X-0.725000X0.600000X-0.725000X-0.600000X0.725000X-0.600000X0.725000X0.600000X0*%
%ADD16RoundRect,0.250000X0.600000X0.725000X-0.600000X0.725000X-0.600000X-0.725000X0.600000X-0.725000X0*%
%ADD17O,1.700000X1.950000*%
%ADD18C,1.800000*%
G04 APERTURE END LIST*
D10*
%TO.C,J5*%
X189500000Y-112500000D03*
D11*
X189500000Y-110000000D03*
X189500000Y-107500000D03*
%TD*%
D12*
%TO.C,J2*%
X139225000Y-108380000D03*
D13*
X141765000Y-108380000D03*
X139225000Y-110920000D03*
X141765000Y-110920000D03*
X139225000Y-113460000D03*
X141765000Y-113460000D03*
X139225000Y-116000000D03*
X141765000Y-116000000D03*
X139225000Y-118540000D03*
X141765000Y-118540000D03*
%TD*%
D14*
%TO.C,H1*%
X130500000Y-95000000D03*
%TD*%
D15*
%TO.C,J4*%
X131025000Y-107500000D03*
D11*
X131025000Y-110000000D03*
X131025000Y-112500000D03*
%TD*%
D14*
%TO.C,H4*%
X130500000Y-127500000D03*
%TD*%
D16*
%TO.C,J1*%
X149500000Y-95000000D03*
D17*
X147000000Y-95000000D03*
X144500000Y-95000000D03*
X142000000Y-95000000D03*
%TD*%
D18*
%TO.C,U1*%
X181040000Y-110000000D03*
X178500000Y-110000000D03*
X175960000Y-110000000D03*
%TD*%
D14*
%TO.C,H2*%
X190500000Y-95000000D03*
%TD*%
%TO.C,H3*%
X190500000Y-127500000D03*
%TD*%
D12*
%TO.C,J3*%
X184740000Y-126000000D03*
D13*
X184740000Y-128540000D03*
X182200000Y-126000000D03*
X182200000Y-128540000D03*
X179660000Y-126000000D03*
X179660000Y-128540000D03*
X177120000Y-126000000D03*
X177120000Y-128540000D03*
X174580000Y-126000000D03*
X174580000Y-128540000D03*
X172040000Y-126000000D03*
X172040000Y-128540000D03*
X169500000Y-126000000D03*
X169500000Y-128540000D03*
X166960000Y-126000000D03*
X166960000Y-128540000D03*
X164420000Y-126000000D03*
X164420000Y-128540000D03*
X161880000Y-126000000D03*
X161880000Y-128540000D03*
X159340000Y-126000000D03*
X159340000Y-128540000D03*
X156800000Y-126000000D03*
X156800000Y-128540000D03*
X154260000Y-126000000D03*
X154260000Y-128540000D03*
X151720000Y-126000000D03*
X151720000Y-128540000D03*
X149180000Y-126000000D03*
X149180000Y-128540000D03*
X146640000Y-126000000D03*
X146640000Y-128540000D03*
X144100000Y-126000000D03*
X144100000Y-128540000D03*
X141560000Y-126000000D03*
X141560000Y-128540000D03*
X139020000Y-126000000D03*
X139020000Y-128540000D03*
X136480000Y-126000000D03*
X136480000Y-128540000D03*
%TD*%
M02*
