%TF.GenerationSoftware,KiCad,Pcbnew,8.0.5*%
%TF.CreationDate,2025-01-21T17:20:08+01:00*%
%TF.ProjectId,Ingenuity,496e6765-6e75-4697-9479-2e6b69636164,rev?*%
%TF.SameCoordinates,Original*%
%TF.FileFunction,Legend,Top*%
%TF.FilePolarity,Positive*%
%FSLAX46Y46*%
G04 Gerber Fmt 4.6, Leading zero omitted, Abs format (unit mm)*
G04 Created by KiCad (PCBNEW 8.0.5) date 2025-01-21 17:20:08*
%MOMM*%
%LPD*%
G01*
G04 APERTURE LIST*
%ADD10C,0.150000*%
%ADD11C,0.100000*%
%ADD12C,0.120000*%
G04 APERTURE END LIST*
D10*
X158059580Y-100166666D02*
X158107200Y-100214285D01*
X158107200Y-100214285D02*
X158154819Y-100357142D01*
X158154819Y-100357142D02*
X158154819Y-100452380D01*
X158154819Y-100452380D02*
X158107200Y-100595237D01*
X158107200Y-100595237D02*
X158011961Y-100690475D01*
X158011961Y-100690475D02*
X157916723Y-100738094D01*
X157916723Y-100738094D02*
X157726247Y-100785713D01*
X157726247Y-100785713D02*
X157583390Y-100785713D01*
X157583390Y-100785713D02*
X157392914Y-100738094D01*
X157392914Y-100738094D02*
X157297676Y-100690475D01*
X157297676Y-100690475D02*
X157202438Y-100595237D01*
X157202438Y-100595237D02*
X157154819Y-100452380D01*
X157154819Y-100452380D02*
X157154819Y-100357142D01*
X157154819Y-100357142D02*
X157202438Y-100214285D01*
X157202438Y-100214285D02*
X157250057Y-100166666D01*
X157154819Y-99309523D02*
X157154819Y-99499999D01*
X157154819Y-99499999D02*
X157202438Y-99595237D01*
X157202438Y-99595237D02*
X157250057Y-99642856D01*
X157250057Y-99642856D02*
X157392914Y-99738094D01*
X157392914Y-99738094D02*
X157583390Y-99785713D01*
X157583390Y-99785713D02*
X157964342Y-99785713D01*
X157964342Y-99785713D02*
X158059580Y-99738094D01*
X158059580Y-99738094D02*
X158107200Y-99690475D01*
X158107200Y-99690475D02*
X158154819Y-99595237D01*
X158154819Y-99595237D02*
X158154819Y-99404761D01*
X158154819Y-99404761D02*
X158107200Y-99309523D01*
X158107200Y-99309523D02*
X158059580Y-99261904D01*
X158059580Y-99261904D02*
X157964342Y-99214285D01*
X157964342Y-99214285D02*
X157726247Y-99214285D01*
X157726247Y-99214285D02*
X157631009Y-99261904D01*
X157631009Y-99261904D02*
X157583390Y-99309523D01*
X157583390Y-99309523D02*
X157535771Y-99404761D01*
X157535771Y-99404761D02*
X157535771Y-99595237D01*
X157535771Y-99595237D02*
X157583390Y-99690475D01*
X157583390Y-99690475D02*
X157631009Y-99738094D01*
X157631009Y-99738094D02*
X157726247Y-99785713D01*
X166254819Y-98566666D02*
X165778628Y-98899999D01*
X166254819Y-99138094D02*
X165254819Y-99138094D01*
X165254819Y-99138094D02*
X165254819Y-98757142D01*
X165254819Y-98757142D02*
X165302438Y-98661904D01*
X165302438Y-98661904D02*
X165350057Y-98614285D01*
X165350057Y-98614285D02*
X165445295Y-98566666D01*
X165445295Y-98566666D02*
X165588152Y-98566666D01*
X165588152Y-98566666D02*
X165683390Y-98614285D01*
X165683390Y-98614285D02*
X165731009Y-98661904D01*
X165731009Y-98661904D02*
X165778628Y-98757142D01*
X165778628Y-98757142D02*
X165778628Y-99138094D01*
X165350057Y-98185713D02*
X165302438Y-98138094D01*
X165302438Y-98138094D02*
X165254819Y-98042856D01*
X165254819Y-98042856D02*
X165254819Y-97804761D01*
X165254819Y-97804761D02*
X165302438Y-97709523D01*
X165302438Y-97709523D02*
X165350057Y-97661904D01*
X165350057Y-97661904D02*
X165445295Y-97614285D01*
X165445295Y-97614285D02*
X165540533Y-97614285D01*
X165540533Y-97614285D02*
X165683390Y-97661904D01*
X165683390Y-97661904D02*
X166254819Y-98233332D01*
X166254819Y-98233332D02*
X166254819Y-97614285D01*
X163157142Y-121959580D02*
X163109523Y-122007200D01*
X163109523Y-122007200D02*
X162966666Y-122054819D01*
X162966666Y-122054819D02*
X162871428Y-122054819D01*
X162871428Y-122054819D02*
X162728571Y-122007200D01*
X162728571Y-122007200D02*
X162633333Y-121911961D01*
X162633333Y-121911961D02*
X162585714Y-121816723D01*
X162585714Y-121816723D02*
X162538095Y-121626247D01*
X162538095Y-121626247D02*
X162538095Y-121483390D01*
X162538095Y-121483390D02*
X162585714Y-121292914D01*
X162585714Y-121292914D02*
X162633333Y-121197676D01*
X162633333Y-121197676D02*
X162728571Y-121102438D01*
X162728571Y-121102438D02*
X162871428Y-121054819D01*
X162871428Y-121054819D02*
X162966666Y-121054819D01*
X162966666Y-121054819D02*
X163109523Y-121102438D01*
X163109523Y-121102438D02*
X163157142Y-121150057D01*
X164109523Y-122054819D02*
X163538095Y-122054819D01*
X163823809Y-122054819D02*
X163823809Y-121054819D01*
X163823809Y-121054819D02*
X163728571Y-121197676D01*
X163728571Y-121197676D02*
X163633333Y-121292914D01*
X163633333Y-121292914D02*
X163538095Y-121340533D01*
X165061904Y-122054819D02*
X164490476Y-122054819D01*
X164776190Y-122054819D02*
X164776190Y-121054819D01*
X164776190Y-121054819D02*
X164680952Y-121197676D01*
X164680952Y-121197676D02*
X164585714Y-121292914D01*
X164585714Y-121292914D02*
X164490476Y-121340533D01*
X160359580Y-98066666D02*
X160407200Y-98114285D01*
X160407200Y-98114285D02*
X160454819Y-98257142D01*
X160454819Y-98257142D02*
X160454819Y-98352380D01*
X160454819Y-98352380D02*
X160407200Y-98495237D01*
X160407200Y-98495237D02*
X160311961Y-98590475D01*
X160311961Y-98590475D02*
X160216723Y-98638094D01*
X160216723Y-98638094D02*
X160026247Y-98685713D01*
X160026247Y-98685713D02*
X159883390Y-98685713D01*
X159883390Y-98685713D02*
X159692914Y-98638094D01*
X159692914Y-98638094D02*
X159597676Y-98590475D01*
X159597676Y-98590475D02*
X159502438Y-98495237D01*
X159502438Y-98495237D02*
X159454819Y-98352380D01*
X159454819Y-98352380D02*
X159454819Y-98257142D01*
X159454819Y-98257142D02*
X159502438Y-98114285D01*
X159502438Y-98114285D02*
X159550057Y-98066666D01*
X159550057Y-97685713D02*
X159502438Y-97638094D01*
X159502438Y-97638094D02*
X159454819Y-97542856D01*
X159454819Y-97542856D02*
X159454819Y-97304761D01*
X159454819Y-97304761D02*
X159502438Y-97209523D01*
X159502438Y-97209523D02*
X159550057Y-97161904D01*
X159550057Y-97161904D02*
X159645295Y-97114285D01*
X159645295Y-97114285D02*
X159740533Y-97114285D01*
X159740533Y-97114285D02*
X159883390Y-97161904D01*
X159883390Y-97161904D02*
X160454819Y-97733332D01*
X160454819Y-97733332D02*
X160454819Y-97114285D01*
X185404819Y-110333333D02*
X186119104Y-110333333D01*
X186119104Y-110333333D02*
X186261961Y-110380952D01*
X186261961Y-110380952D02*
X186357200Y-110476190D01*
X186357200Y-110476190D02*
X186404819Y-110619047D01*
X186404819Y-110619047D02*
X186404819Y-110714285D01*
X185404819Y-109380952D02*
X185404819Y-109857142D01*
X185404819Y-109857142D02*
X185881009Y-109904761D01*
X185881009Y-109904761D02*
X185833390Y-109857142D01*
X185833390Y-109857142D02*
X185785771Y-109761904D01*
X185785771Y-109761904D02*
X185785771Y-109523809D01*
X185785771Y-109523809D02*
X185833390Y-109428571D01*
X185833390Y-109428571D02*
X185881009Y-109380952D01*
X185881009Y-109380952D02*
X185976247Y-109333333D01*
X185976247Y-109333333D02*
X186214342Y-109333333D01*
X186214342Y-109333333D02*
X186309580Y-109380952D01*
X186309580Y-109380952D02*
X186357200Y-109428571D01*
X186357200Y-109428571D02*
X186404819Y-109523809D01*
X186404819Y-109523809D02*
X186404819Y-109761904D01*
X186404819Y-109761904D02*
X186357200Y-109857142D01*
X186357200Y-109857142D02*
X186309580Y-109904761D01*
X162454819Y-96866666D02*
X161978628Y-97199999D01*
X162454819Y-97438094D02*
X161454819Y-97438094D01*
X161454819Y-97438094D02*
X161454819Y-97057142D01*
X161454819Y-97057142D02*
X161502438Y-96961904D01*
X161502438Y-96961904D02*
X161550057Y-96914285D01*
X161550057Y-96914285D02*
X161645295Y-96866666D01*
X161645295Y-96866666D02*
X161788152Y-96866666D01*
X161788152Y-96866666D02*
X161883390Y-96914285D01*
X161883390Y-96914285D02*
X161931009Y-96961904D01*
X161931009Y-96961904D02*
X161978628Y-97057142D01*
X161978628Y-97057142D02*
X161978628Y-97438094D01*
X161883390Y-96295237D02*
X161835771Y-96390475D01*
X161835771Y-96390475D02*
X161788152Y-96438094D01*
X161788152Y-96438094D02*
X161692914Y-96485713D01*
X161692914Y-96485713D02*
X161645295Y-96485713D01*
X161645295Y-96485713D02*
X161550057Y-96438094D01*
X161550057Y-96438094D02*
X161502438Y-96390475D01*
X161502438Y-96390475D02*
X161454819Y-96295237D01*
X161454819Y-96295237D02*
X161454819Y-96104761D01*
X161454819Y-96104761D02*
X161502438Y-96009523D01*
X161502438Y-96009523D02*
X161550057Y-95961904D01*
X161550057Y-95961904D02*
X161645295Y-95914285D01*
X161645295Y-95914285D02*
X161692914Y-95914285D01*
X161692914Y-95914285D02*
X161788152Y-95961904D01*
X161788152Y-95961904D02*
X161835771Y-96009523D01*
X161835771Y-96009523D02*
X161883390Y-96104761D01*
X161883390Y-96104761D02*
X161883390Y-96295237D01*
X161883390Y-96295237D02*
X161931009Y-96390475D01*
X161931009Y-96390475D02*
X161978628Y-96438094D01*
X161978628Y-96438094D02*
X162073866Y-96485713D01*
X162073866Y-96485713D02*
X162264342Y-96485713D01*
X162264342Y-96485713D02*
X162359580Y-96438094D01*
X162359580Y-96438094D02*
X162407200Y-96390475D01*
X162407200Y-96390475D02*
X162454819Y-96295237D01*
X162454819Y-96295237D02*
X162454819Y-96104761D01*
X162454819Y-96104761D02*
X162407200Y-96009523D01*
X162407200Y-96009523D02*
X162359580Y-95961904D01*
X162359580Y-95961904D02*
X162264342Y-95914285D01*
X162264342Y-95914285D02*
X162073866Y-95914285D01*
X162073866Y-95914285D02*
X161978628Y-95961904D01*
X161978628Y-95961904D02*
X161931009Y-96009523D01*
X161931009Y-96009523D02*
X161883390Y-96104761D01*
X140161666Y-105504819D02*
X140161666Y-106219104D01*
X140161666Y-106219104D02*
X140114047Y-106361961D01*
X140114047Y-106361961D02*
X140018809Y-106457200D01*
X140018809Y-106457200D02*
X139875952Y-106504819D01*
X139875952Y-106504819D02*
X139780714Y-106504819D01*
X140590238Y-105600057D02*
X140637857Y-105552438D01*
X140637857Y-105552438D02*
X140733095Y-105504819D01*
X140733095Y-105504819D02*
X140971190Y-105504819D01*
X140971190Y-105504819D02*
X141066428Y-105552438D01*
X141066428Y-105552438D02*
X141114047Y-105600057D01*
X141114047Y-105600057D02*
X141161666Y-105695295D01*
X141161666Y-105695295D02*
X141161666Y-105790533D01*
X141161666Y-105790533D02*
X141114047Y-105933390D01*
X141114047Y-105933390D02*
X140542619Y-106504819D01*
X140542619Y-106504819D02*
X141161666Y-106504819D01*
X180933333Y-105159580D02*
X180885714Y-105207200D01*
X180885714Y-105207200D02*
X180742857Y-105254819D01*
X180742857Y-105254819D02*
X180647619Y-105254819D01*
X180647619Y-105254819D02*
X180504762Y-105207200D01*
X180504762Y-105207200D02*
X180409524Y-105111961D01*
X180409524Y-105111961D02*
X180361905Y-105016723D01*
X180361905Y-105016723D02*
X180314286Y-104826247D01*
X180314286Y-104826247D02*
X180314286Y-104683390D01*
X180314286Y-104683390D02*
X180361905Y-104492914D01*
X180361905Y-104492914D02*
X180409524Y-104397676D01*
X180409524Y-104397676D02*
X180504762Y-104302438D01*
X180504762Y-104302438D02*
X180647619Y-104254819D01*
X180647619Y-104254819D02*
X180742857Y-104254819D01*
X180742857Y-104254819D02*
X180885714Y-104302438D01*
X180885714Y-104302438D02*
X180933333Y-104350057D01*
X181885714Y-105254819D02*
X181314286Y-105254819D01*
X181600000Y-105254819D02*
X181600000Y-104254819D01*
X181600000Y-104254819D02*
X181504762Y-104397676D01*
X181504762Y-104397676D02*
X181409524Y-104492914D01*
X181409524Y-104492914D02*
X181314286Y-104540533D01*
X168238095Y-99954819D02*
X168238095Y-100764342D01*
X168238095Y-100764342D02*
X168285714Y-100859580D01*
X168285714Y-100859580D02*
X168333333Y-100907200D01*
X168333333Y-100907200D02*
X168428571Y-100954819D01*
X168428571Y-100954819D02*
X168619047Y-100954819D01*
X168619047Y-100954819D02*
X168714285Y-100907200D01*
X168714285Y-100907200D02*
X168761904Y-100859580D01*
X168761904Y-100859580D02*
X168809523Y-100764342D01*
X168809523Y-100764342D02*
X168809523Y-99954819D01*
X169238095Y-100050057D02*
X169285714Y-100002438D01*
X169285714Y-100002438D02*
X169380952Y-99954819D01*
X169380952Y-99954819D02*
X169619047Y-99954819D01*
X169619047Y-99954819D02*
X169714285Y-100002438D01*
X169714285Y-100002438D02*
X169761904Y-100050057D01*
X169761904Y-100050057D02*
X169809523Y-100145295D01*
X169809523Y-100145295D02*
X169809523Y-100240533D01*
X169809523Y-100240533D02*
X169761904Y-100383390D01*
X169761904Y-100383390D02*
X169190476Y-100954819D01*
X169190476Y-100954819D02*
X169809523Y-100954819D01*
X167238095Y-117654819D02*
X167238095Y-118464342D01*
X167238095Y-118464342D02*
X167285714Y-118559580D01*
X167285714Y-118559580D02*
X167333333Y-118607200D01*
X167333333Y-118607200D02*
X167428571Y-118654819D01*
X167428571Y-118654819D02*
X167619047Y-118654819D01*
X167619047Y-118654819D02*
X167714285Y-118607200D01*
X167714285Y-118607200D02*
X167761904Y-118559580D01*
X167761904Y-118559580D02*
X167809523Y-118464342D01*
X167809523Y-118464342D02*
X167809523Y-117654819D01*
X168714285Y-117988152D02*
X168714285Y-118654819D01*
X168476190Y-117607200D02*
X168238095Y-118321485D01*
X168238095Y-118321485D02*
X168857142Y-118321485D01*
X172054819Y-103761904D02*
X172864342Y-103761904D01*
X172864342Y-103761904D02*
X172959580Y-103714285D01*
X172959580Y-103714285D02*
X173007200Y-103666666D01*
X173007200Y-103666666D02*
X173054819Y-103571428D01*
X173054819Y-103571428D02*
X173054819Y-103380952D01*
X173054819Y-103380952D02*
X173007200Y-103285714D01*
X173007200Y-103285714D02*
X172959580Y-103238095D01*
X172959580Y-103238095D02*
X172864342Y-103190476D01*
X172864342Y-103190476D02*
X172054819Y-103190476D01*
X172054819Y-102809523D02*
X172054819Y-102190476D01*
X172054819Y-102190476D02*
X172435771Y-102523809D01*
X172435771Y-102523809D02*
X172435771Y-102380952D01*
X172435771Y-102380952D02*
X172483390Y-102285714D01*
X172483390Y-102285714D02*
X172531009Y-102238095D01*
X172531009Y-102238095D02*
X172626247Y-102190476D01*
X172626247Y-102190476D02*
X172864342Y-102190476D01*
X172864342Y-102190476D02*
X172959580Y-102238095D01*
X172959580Y-102238095D02*
X173007200Y-102285714D01*
X173007200Y-102285714D02*
X173054819Y-102380952D01*
X173054819Y-102380952D02*
X173054819Y-102666666D01*
X173054819Y-102666666D02*
X173007200Y-102761904D01*
X173007200Y-102761904D02*
X172959580Y-102809523D01*
X155333333Y-106059580D02*
X155285714Y-106107200D01*
X155285714Y-106107200D02*
X155142857Y-106154819D01*
X155142857Y-106154819D02*
X155047619Y-106154819D01*
X155047619Y-106154819D02*
X154904762Y-106107200D01*
X154904762Y-106107200D02*
X154809524Y-106011961D01*
X154809524Y-106011961D02*
X154761905Y-105916723D01*
X154761905Y-105916723D02*
X154714286Y-105726247D01*
X154714286Y-105726247D02*
X154714286Y-105583390D01*
X154714286Y-105583390D02*
X154761905Y-105392914D01*
X154761905Y-105392914D02*
X154809524Y-105297676D01*
X154809524Y-105297676D02*
X154904762Y-105202438D01*
X154904762Y-105202438D02*
X155047619Y-105154819D01*
X155047619Y-105154819D02*
X155142857Y-105154819D01*
X155142857Y-105154819D02*
X155285714Y-105202438D01*
X155285714Y-105202438D02*
X155333333Y-105250057D01*
X156238095Y-105154819D02*
X155761905Y-105154819D01*
X155761905Y-105154819D02*
X155714286Y-105631009D01*
X155714286Y-105631009D02*
X155761905Y-105583390D01*
X155761905Y-105583390D02*
X155857143Y-105535771D01*
X155857143Y-105535771D02*
X156095238Y-105535771D01*
X156095238Y-105535771D02*
X156190476Y-105583390D01*
X156190476Y-105583390D02*
X156238095Y-105631009D01*
X156238095Y-105631009D02*
X156285714Y-105726247D01*
X156285714Y-105726247D02*
X156285714Y-105964342D01*
X156285714Y-105964342D02*
X156238095Y-106059580D01*
X156238095Y-106059580D02*
X156190476Y-106107200D01*
X156190476Y-106107200D02*
X156095238Y-106154819D01*
X156095238Y-106154819D02*
X155857143Y-106154819D01*
X155857143Y-106154819D02*
X155761905Y-106107200D01*
X155761905Y-106107200D02*
X155714286Y-106059580D01*
X129838095Y-99254819D02*
X129838095Y-98254819D01*
X129838095Y-98731009D02*
X130409523Y-98731009D01*
X130409523Y-99254819D02*
X130409523Y-98254819D01*
X131409523Y-99254819D02*
X130838095Y-99254819D01*
X131123809Y-99254819D02*
X131123809Y-98254819D01*
X131123809Y-98254819D02*
X131028571Y-98397676D01*
X131028571Y-98397676D02*
X130933333Y-98492914D01*
X130933333Y-98492914D02*
X130838095Y-98540533D01*
X147933333Y-99054819D02*
X147600000Y-98578628D01*
X147361905Y-99054819D02*
X147361905Y-98054819D01*
X147361905Y-98054819D02*
X147742857Y-98054819D01*
X147742857Y-98054819D02*
X147838095Y-98102438D01*
X147838095Y-98102438D02*
X147885714Y-98150057D01*
X147885714Y-98150057D02*
X147933333Y-98245295D01*
X147933333Y-98245295D02*
X147933333Y-98388152D01*
X147933333Y-98388152D02*
X147885714Y-98483390D01*
X147885714Y-98483390D02*
X147838095Y-98531009D01*
X147838095Y-98531009D02*
X147742857Y-98578628D01*
X147742857Y-98578628D02*
X147361905Y-98578628D01*
X148885714Y-99054819D02*
X148314286Y-99054819D01*
X148600000Y-99054819D02*
X148600000Y-98054819D01*
X148600000Y-98054819D02*
X148504762Y-98197676D01*
X148504762Y-98197676D02*
X148409524Y-98292914D01*
X148409524Y-98292914D02*
X148314286Y-98340533D01*
X164854819Y-94438094D02*
X163854819Y-94438094D01*
X163854819Y-94438094D02*
X163854819Y-94199999D01*
X163854819Y-94199999D02*
X163902438Y-94057142D01*
X163902438Y-94057142D02*
X163997676Y-93961904D01*
X163997676Y-93961904D02*
X164092914Y-93914285D01*
X164092914Y-93914285D02*
X164283390Y-93866666D01*
X164283390Y-93866666D02*
X164426247Y-93866666D01*
X164426247Y-93866666D02*
X164616723Y-93914285D01*
X164616723Y-93914285D02*
X164711961Y-93961904D01*
X164711961Y-93961904D02*
X164807200Y-94057142D01*
X164807200Y-94057142D02*
X164854819Y-94199999D01*
X164854819Y-94199999D02*
X164854819Y-94438094D01*
X164854819Y-92914285D02*
X164854819Y-93485713D01*
X164854819Y-93199999D02*
X163854819Y-93199999D01*
X163854819Y-93199999D02*
X163997676Y-93295237D01*
X163997676Y-93295237D02*
X164092914Y-93390475D01*
X164092914Y-93390475D02*
X164140533Y-93485713D01*
X175754819Y-96666666D02*
X175278628Y-96999999D01*
X175754819Y-97238094D02*
X174754819Y-97238094D01*
X174754819Y-97238094D02*
X174754819Y-96857142D01*
X174754819Y-96857142D02*
X174802438Y-96761904D01*
X174802438Y-96761904D02*
X174850057Y-96714285D01*
X174850057Y-96714285D02*
X174945295Y-96666666D01*
X174945295Y-96666666D02*
X175088152Y-96666666D01*
X175088152Y-96666666D02*
X175183390Y-96714285D01*
X175183390Y-96714285D02*
X175231009Y-96761904D01*
X175231009Y-96761904D02*
X175278628Y-96857142D01*
X175278628Y-96857142D02*
X175278628Y-97238094D01*
X174754819Y-96333332D02*
X174754819Y-95666666D01*
X174754819Y-95666666D02*
X175754819Y-96095237D01*
X134029819Y-110333333D02*
X134744104Y-110333333D01*
X134744104Y-110333333D02*
X134886961Y-110380952D01*
X134886961Y-110380952D02*
X134982200Y-110476190D01*
X134982200Y-110476190D02*
X135029819Y-110619047D01*
X135029819Y-110619047D02*
X135029819Y-110714285D01*
X134363152Y-109428571D02*
X135029819Y-109428571D01*
X133982200Y-109666666D02*
X134696485Y-109904761D01*
X134696485Y-109904761D02*
X134696485Y-109285714D01*
X129738095Y-124604819D02*
X129738095Y-123604819D01*
X129738095Y-124081009D02*
X130309523Y-124081009D01*
X130309523Y-124604819D02*
X130309523Y-123604819D01*
X131214285Y-123938152D02*
X131214285Y-124604819D01*
X130976190Y-123557200D02*
X130738095Y-124271485D01*
X130738095Y-124271485D02*
X131357142Y-124271485D01*
X176154819Y-94438094D02*
X175154819Y-94438094D01*
X175154819Y-94438094D02*
X175154819Y-94199999D01*
X175154819Y-94199999D02*
X175202438Y-94057142D01*
X175202438Y-94057142D02*
X175297676Y-93961904D01*
X175297676Y-93961904D02*
X175392914Y-93914285D01*
X175392914Y-93914285D02*
X175583390Y-93866666D01*
X175583390Y-93866666D02*
X175726247Y-93866666D01*
X175726247Y-93866666D02*
X175916723Y-93914285D01*
X175916723Y-93914285D02*
X176011961Y-93961904D01*
X176011961Y-93961904D02*
X176107200Y-94057142D01*
X176107200Y-94057142D02*
X176154819Y-94199999D01*
X176154819Y-94199999D02*
X176154819Y-94438094D01*
X175154819Y-93009523D02*
X175154819Y-93199999D01*
X175154819Y-93199999D02*
X175202438Y-93295237D01*
X175202438Y-93295237D02*
X175250057Y-93342856D01*
X175250057Y-93342856D02*
X175392914Y-93438094D01*
X175392914Y-93438094D02*
X175583390Y-93485713D01*
X175583390Y-93485713D02*
X175964342Y-93485713D01*
X175964342Y-93485713D02*
X176059580Y-93438094D01*
X176059580Y-93438094D02*
X176107200Y-93390475D01*
X176107200Y-93390475D02*
X176154819Y-93295237D01*
X176154819Y-93295237D02*
X176154819Y-93104761D01*
X176154819Y-93104761D02*
X176107200Y-93009523D01*
X176107200Y-93009523D02*
X176059580Y-92961904D01*
X176059580Y-92961904D02*
X175964342Y-92914285D01*
X175964342Y-92914285D02*
X175726247Y-92914285D01*
X175726247Y-92914285D02*
X175631009Y-92961904D01*
X175631009Y-92961904D02*
X175583390Y-93009523D01*
X175583390Y-93009523D02*
X175535771Y-93104761D01*
X175535771Y-93104761D02*
X175535771Y-93295237D01*
X175535771Y-93295237D02*
X175583390Y-93390475D01*
X175583390Y-93390475D02*
X175631009Y-93438094D01*
X175631009Y-93438094D02*
X175726247Y-93485713D01*
X154133333Y-98959580D02*
X154085714Y-99007200D01*
X154085714Y-99007200D02*
X153942857Y-99054819D01*
X153942857Y-99054819D02*
X153847619Y-99054819D01*
X153847619Y-99054819D02*
X153704762Y-99007200D01*
X153704762Y-99007200D02*
X153609524Y-98911961D01*
X153609524Y-98911961D02*
X153561905Y-98816723D01*
X153561905Y-98816723D02*
X153514286Y-98626247D01*
X153514286Y-98626247D02*
X153514286Y-98483390D01*
X153514286Y-98483390D02*
X153561905Y-98292914D01*
X153561905Y-98292914D02*
X153609524Y-98197676D01*
X153609524Y-98197676D02*
X153704762Y-98102438D01*
X153704762Y-98102438D02*
X153847619Y-98054819D01*
X153847619Y-98054819D02*
X153942857Y-98054819D01*
X153942857Y-98054819D02*
X154085714Y-98102438D01*
X154085714Y-98102438D02*
X154133333Y-98150057D01*
X154466667Y-98054819D02*
X155133333Y-98054819D01*
X155133333Y-98054819D02*
X154704762Y-99054819D01*
X171784819Y-94538094D02*
X170784819Y-94538094D01*
X170784819Y-94538094D02*
X170784819Y-94299999D01*
X170784819Y-94299999D02*
X170832438Y-94157142D01*
X170832438Y-94157142D02*
X170927676Y-94061904D01*
X170927676Y-94061904D02*
X171022914Y-94014285D01*
X171022914Y-94014285D02*
X171213390Y-93966666D01*
X171213390Y-93966666D02*
X171356247Y-93966666D01*
X171356247Y-93966666D02*
X171546723Y-94014285D01*
X171546723Y-94014285D02*
X171641961Y-94061904D01*
X171641961Y-94061904D02*
X171737200Y-94157142D01*
X171737200Y-94157142D02*
X171784819Y-94299999D01*
X171784819Y-94299999D02*
X171784819Y-94538094D01*
X170784819Y-93061904D02*
X170784819Y-93538094D01*
X170784819Y-93538094D02*
X171261009Y-93585713D01*
X171261009Y-93585713D02*
X171213390Y-93538094D01*
X171213390Y-93538094D02*
X171165771Y-93442856D01*
X171165771Y-93442856D02*
X171165771Y-93204761D01*
X171165771Y-93204761D02*
X171213390Y-93109523D01*
X171213390Y-93109523D02*
X171261009Y-93061904D01*
X171261009Y-93061904D02*
X171356247Y-93014285D01*
X171356247Y-93014285D02*
X171594342Y-93014285D01*
X171594342Y-93014285D02*
X171689580Y-93061904D01*
X171689580Y-93061904D02*
X171737200Y-93109523D01*
X171737200Y-93109523D02*
X171784819Y-93204761D01*
X171784819Y-93204761D02*
X171784819Y-93442856D01*
X171784819Y-93442856D02*
X171737200Y-93538094D01*
X171737200Y-93538094D02*
X171689580Y-93585713D01*
X139166666Y-98054819D02*
X139166666Y-98769104D01*
X139166666Y-98769104D02*
X139119047Y-98911961D01*
X139119047Y-98911961D02*
X139023809Y-99007200D01*
X139023809Y-99007200D02*
X138880952Y-99054819D01*
X138880952Y-99054819D02*
X138785714Y-99054819D01*
X140166666Y-99054819D02*
X139595238Y-99054819D01*
X139880952Y-99054819D02*
X139880952Y-98054819D01*
X139880952Y-98054819D02*
X139785714Y-98197676D01*
X139785714Y-98197676D02*
X139690476Y-98292914D01*
X139690476Y-98292914D02*
X139595238Y-98340533D01*
X173857142Y-99499580D02*
X173809523Y-99547200D01*
X173809523Y-99547200D02*
X173666666Y-99594819D01*
X173666666Y-99594819D02*
X173571428Y-99594819D01*
X173571428Y-99594819D02*
X173428571Y-99547200D01*
X173428571Y-99547200D02*
X173333333Y-99451961D01*
X173333333Y-99451961D02*
X173285714Y-99356723D01*
X173285714Y-99356723D02*
X173238095Y-99166247D01*
X173238095Y-99166247D02*
X173238095Y-99023390D01*
X173238095Y-99023390D02*
X173285714Y-98832914D01*
X173285714Y-98832914D02*
X173333333Y-98737676D01*
X173333333Y-98737676D02*
X173428571Y-98642438D01*
X173428571Y-98642438D02*
X173571428Y-98594819D01*
X173571428Y-98594819D02*
X173666666Y-98594819D01*
X173666666Y-98594819D02*
X173809523Y-98642438D01*
X173809523Y-98642438D02*
X173857142Y-98690057D01*
X174809523Y-99594819D02*
X174238095Y-99594819D01*
X174523809Y-99594819D02*
X174523809Y-98594819D01*
X174523809Y-98594819D02*
X174428571Y-98737676D01*
X174428571Y-98737676D02*
X174333333Y-98832914D01*
X174333333Y-98832914D02*
X174238095Y-98880533D01*
X175428571Y-98594819D02*
X175523809Y-98594819D01*
X175523809Y-98594819D02*
X175619047Y-98642438D01*
X175619047Y-98642438D02*
X175666666Y-98690057D01*
X175666666Y-98690057D02*
X175714285Y-98785295D01*
X175714285Y-98785295D02*
X175761904Y-98975771D01*
X175761904Y-98975771D02*
X175761904Y-99213866D01*
X175761904Y-99213866D02*
X175714285Y-99404342D01*
X175714285Y-99404342D02*
X175666666Y-99499580D01*
X175666666Y-99499580D02*
X175619047Y-99547200D01*
X175619047Y-99547200D02*
X175523809Y-99594819D01*
X175523809Y-99594819D02*
X175428571Y-99594819D01*
X175428571Y-99594819D02*
X175333333Y-99547200D01*
X175333333Y-99547200D02*
X175285714Y-99499580D01*
X175285714Y-99499580D02*
X175238095Y-99404342D01*
X175238095Y-99404342D02*
X175190476Y-99213866D01*
X175190476Y-99213866D02*
X175190476Y-98975771D01*
X175190476Y-98975771D02*
X175238095Y-98785295D01*
X175238095Y-98785295D02*
X175285714Y-98690057D01*
X175285714Y-98690057D02*
X175333333Y-98642438D01*
X175333333Y-98642438D02*
X175428571Y-98594819D01*
X168454819Y-98466666D02*
X167978628Y-98799999D01*
X168454819Y-99038094D02*
X167454819Y-99038094D01*
X167454819Y-99038094D02*
X167454819Y-98657142D01*
X167454819Y-98657142D02*
X167502438Y-98561904D01*
X167502438Y-98561904D02*
X167550057Y-98514285D01*
X167550057Y-98514285D02*
X167645295Y-98466666D01*
X167645295Y-98466666D02*
X167788152Y-98466666D01*
X167788152Y-98466666D02*
X167883390Y-98514285D01*
X167883390Y-98514285D02*
X167931009Y-98561904D01*
X167931009Y-98561904D02*
X167978628Y-98657142D01*
X167978628Y-98657142D02*
X167978628Y-99038094D01*
X167788152Y-97609523D02*
X168454819Y-97609523D01*
X167407200Y-97847618D02*
X168121485Y-98085713D01*
X168121485Y-98085713D02*
X168121485Y-97466666D01*
X155333333Y-104759580D02*
X155285714Y-104807200D01*
X155285714Y-104807200D02*
X155142857Y-104854819D01*
X155142857Y-104854819D02*
X155047619Y-104854819D01*
X155047619Y-104854819D02*
X154904762Y-104807200D01*
X154904762Y-104807200D02*
X154809524Y-104711961D01*
X154809524Y-104711961D02*
X154761905Y-104616723D01*
X154761905Y-104616723D02*
X154714286Y-104426247D01*
X154714286Y-104426247D02*
X154714286Y-104283390D01*
X154714286Y-104283390D02*
X154761905Y-104092914D01*
X154761905Y-104092914D02*
X154809524Y-103997676D01*
X154809524Y-103997676D02*
X154904762Y-103902438D01*
X154904762Y-103902438D02*
X155047619Y-103854819D01*
X155047619Y-103854819D02*
X155142857Y-103854819D01*
X155142857Y-103854819D02*
X155285714Y-103902438D01*
X155285714Y-103902438D02*
X155333333Y-103950057D01*
X156190476Y-104188152D02*
X156190476Y-104854819D01*
X155952381Y-103807200D02*
X155714286Y-104521485D01*
X155714286Y-104521485D02*
X156333333Y-104521485D01*
X176433333Y-106159580D02*
X176385714Y-106207200D01*
X176385714Y-106207200D02*
X176242857Y-106254819D01*
X176242857Y-106254819D02*
X176147619Y-106254819D01*
X176147619Y-106254819D02*
X176004762Y-106207200D01*
X176004762Y-106207200D02*
X175909524Y-106111961D01*
X175909524Y-106111961D02*
X175861905Y-106016723D01*
X175861905Y-106016723D02*
X175814286Y-105826247D01*
X175814286Y-105826247D02*
X175814286Y-105683390D01*
X175814286Y-105683390D02*
X175861905Y-105492914D01*
X175861905Y-105492914D02*
X175909524Y-105397676D01*
X175909524Y-105397676D02*
X176004762Y-105302438D01*
X176004762Y-105302438D02*
X176147619Y-105254819D01*
X176147619Y-105254819D02*
X176242857Y-105254819D01*
X176242857Y-105254819D02*
X176385714Y-105302438D01*
X176385714Y-105302438D02*
X176433333Y-105350057D01*
X177004762Y-105683390D02*
X176909524Y-105635771D01*
X176909524Y-105635771D02*
X176861905Y-105588152D01*
X176861905Y-105588152D02*
X176814286Y-105492914D01*
X176814286Y-105492914D02*
X176814286Y-105445295D01*
X176814286Y-105445295D02*
X176861905Y-105350057D01*
X176861905Y-105350057D02*
X176909524Y-105302438D01*
X176909524Y-105302438D02*
X177004762Y-105254819D01*
X177004762Y-105254819D02*
X177195238Y-105254819D01*
X177195238Y-105254819D02*
X177290476Y-105302438D01*
X177290476Y-105302438D02*
X177338095Y-105350057D01*
X177338095Y-105350057D02*
X177385714Y-105445295D01*
X177385714Y-105445295D02*
X177385714Y-105492914D01*
X177385714Y-105492914D02*
X177338095Y-105588152D01*
X177338095Y-105588152D02*
X177290476Y-105635771D01*
X177290476Y-105635771D02*
X177195238Y-105683390D01*
X177195238Y-105683390D02*
X177004762Y-105683390D01*
X177004762Y-105683390D02*
X176909524Y-105731009D01*
X176909524Y-105731009D02*
X176861905Y-105778628D01*
X176861905Y-105778628D02*
X176814286Y-105873866D01*
X176814286Y-105873866D02*
X176814286Y-106064342D01*
X176814286Y-106064342D02*
X176861905Y-106159580D01*
X176861905Y-106159580D02*
X176909524Y-106207200D01*
X176909524Y-106207200D02*
X177004762Y-106254819D01*
X177004762Y-106254819D02*
X177195238Y-106254819D01*
X177195238Y-106254819D02*
X177290476Y-106207200D01*
X177290476Y-106207200D02*
X177338095Y-106159580D01*
X177338095Y-106159580D02*
X177385714Y-106064342D01*
X177385714Y-106064342D02*
X177385714Y-105873866D01*
X177385714Y-105873866D02*
X177338095Y-105778628D01*
X177338095Y-105778628D02*
X177290476Y-105731009D01*
X177290476Y-105731009D02*
X177195238Y-105683390D01*
X146857200Y-110833332D02*
X146904819Y-110690475D01*
X146904819Y-110690475D02*
X146904819Y-110452380D01*
X146904819Y-110452380D02*
X146857200Y-110357142D01*
X146857200Y-110357142D02*
X146809580Y-110309523D01*
X146809580Y-110309523D02*
X146714342Y-110261904D01*
X146714342Y-110261904D02*
X146619104Y-110261904D01*
X146619104Y-110261904D02*
X146523866Y-110309523D01*
X146523866Y-110309523D02*
X146476247Y-110357142D01*
X146476247Y-110357142D02*
X146428628Y-110452380D01*
X146428628Y-110452380D02*
X146381009Y-110642856D01*
X146381009Y-110642856D02*
X146333390Y-110738094D01*
X146333390Y-110738094D02*
X146285771Y-110785713D01*
X146285771Y-110785713D02*
X146190533Y-110833332D01*
X146190533Y-110833332D02*
X146095295Y-110833332D01*
X146095295Y-110833332D02*
X146000057Y-110785713D01*
X146000057Y-110785713D02*
X145952438Y-110738094D01*
X145952438Y-110738094D02*
X145904819Y-110642856D01*
X145904819Y-110642856D02*
X145904819Y-110404761D01*
X145904819Y-110404761D02*
X145952438Y-110261904D01*
X145904819Y-109928570D02*
X146904819Y-109690475D01*
X146904819Y-109690475D02*
X146190533Y-109499999D01*
X146190533Y-109499999D02*
X146904819Y-109309523D01*
X146904819Y-109309523D02*
X145904819Y-109071428D01*
X146000057Y-108738094D02*
X145952438Y-108690475D01*
X145952438Y-108690475D02*
X145904819Y-108595237D01*
X145904819Y-108595237D02*
X145904819Y-108357142D01*
X145904819Y-108357142D02*
X145952438Y-108261904D01*
X145952438Y-108261904D02*
X146000057Y-108214285D01*
X146000057Y-108214285D02*
X146095295Y-108166666D01*
X146095295Y-108166666D02*
X146190533Y-108166666D01*
X146190533Y-108166666D02*
X146333390Y-108214285D01*
X146333390Y-108214285D02*
X146904819Y-108785713D01*
X146904819Y-108785713D02*
X146904819Y-108166666D01*
X149833333Y-101754819D02*
X149500000Y-101278628D01*
X149261905Y-101754819D02*
X149261905Y-100754819D01*
X149261905Y-100754819D02*
X149642857Y-100754819D01*
X149642857Y-100754819D02*
X149738095Y-100802438D01*
X149738095Y-100802438D02*
X149785714Y-100850057D01*
X149785714Y-100850057D02*
X149833333Y-100945295D01*
X149833333Y-100945295D02*
X149833333Y-101088152D01*
X149833333Y-101088152D02*
X149785714Y-101183390D01*
X149785714Y-101183390D02*
X149738095Y-101231009D01*
X149738095Y-101231009D02*
X149642857Y-101278628D01*
X149642857Y-101278628D02*
X149261905Y-101278628D01*
X150309524Y-101754819D02*
X150500000Y-101754819D01*
X150500000Y-101754819D02*
X150595238Y-101707200D01*
X150595238Y-101707200D02*
X150642857Y-101659580D01*
X150642857Y-101659580D02*
X150738095Y-101516723D01*
X150738095Y-101516723D02*
X150785714Y-101326247D01*
X150785714Y-101326247D02*
X150785714Y-100945295D01*
X150785714Y-100945295D02*
X150738095Y-100850057D01*
X150738095Y-100850057D02*
X150690476Y-100802438D01*
X150690476Y-100802438D02*
X150595238Y-100754819D01*
X150595238Y-100754819D02*
X150404762Y-100754819D01*
X150404762Y-100754819D02*
X150309524Y-100802438D01*
X150309524Y-100802438D02*
X150261905Y-100850057D01*
X150261905Y-100850057D02*
X150214286Y-100945295D01*
X150214286Y-100945295D02*
X150214286Y-101183390D01*
X150214286Y-101183390D02*
X150261905Y-101278628D01*
X150261905Y-101278628D02*
X150309524Y-101326247D01*
X150309524Y-101326247D02*
X150404762Y-101373866D01*
X150404762Y-101373866D02*
X150595238Y-101373866D01*
X150595238Y-101373866D02*
X150690476Y-101326247D01*
X150690476Y-101326247D02*
X150738095Y-101278628D01*
X150738095Y-101278628D02*
X150785714Y-101183390D01*
D11*
X172138095Y-106357419D02*
X172138095Y-107166942D01*
X172138095Y-107166942D02*
X172185714Y-107262180D01*
X172185714Y-107262180D02*
X172233333Y-107309800D01*
X172233333Y-107309800D02*
X172328571Y-107357419D01*
X172328571Y-107357419D02*
X172519047Y-107357419D01*
X172519047Y-107357419D02*
X172614285Y-107309800D01*
X172614285Y-107309800D02*
X172661904Y-107262180D01*
X172661904Y-107262180D02*
X172709523Y-107166942D01*
X172709523Y-107166942D02*
X172709523Y-106357419D01*
X173709523Y-107357419D02*
X173138095Y-107357419D01*
X173423809Y-107357419D02*
X173423809Y-106357419D01*
X173423809Y-106357419D02*
X173328571Y-106500276D01*
X173328571Y-106500276D02*
X173233333Y-106595514D01*
X173233333Y-106595514D02*
X173138095Y-106643133D01*
D10*
X186966666Y-101354819D02*
X186966666Y-102069104D01*
X186966666Y-102069104D02*
X186919047Y-102211961D01*
X186919047Y-102211961D02*
X186823809Y-102307200D01*
X186823809Y-102307200D02*
X186680952Y-102354819D01*
X186680952Y-102354819D02*
X186585714Y-102354819D01*
X187585714Y-101783390D02*
X187490476Y-101735771D01*
X187490476Y-101735771D02*
X187442857Y-101688152D01*
X187442857Y-101688152D02*
X187395238Y-101592914D01*
X187395238Y-101592914D02*
X187395238Y-101545295D01*
X187395238Y-101545295D02*
X187442857Y-101450057D01*
X187442857Y-101450057D02*
X187490476Y-101402438D01*
X187490476Y-101402438D02*
X187585714Y-101354819D01*
X187585714Y-101354819D02*
X187776190Y-101354819D01*
X187776190Y-101354819D02*
X187871428Y-101402438D01*
X187871428Y-101402438D02*
X187919047Y-101450057D01*
X187919047Y-101450057D02*
X187966666Y-101545295D01*
X187966666Y-101545295D02*
X187966666Y-101592914D01*
X187966666Y-101592914D02*
X187919047Y-101688152D01*
X187919047Y-101688152D02*
X187871428Y-101735771D01*
X187871428Y-101735771D02*
X187776190Y-101783390D01*
X187776190Y-101783390D02*
X187585714Y-101783390D01*
X187585714Y-101783390D02*
X187490476Y-101831009D01*
X187490476Y-101831009D02*
X187442857Y-101878628D01*
X187442857Y-101878628D02*
X187395238Y-101973866D01*
X187395238Y-101973866D02*
X187395238Y-102164342D01*
X187395238Y-102164342D02*
X187442857Y-102259580D01*
X187442857Y-102259580D02*
X187490476Y-102307200D01*
X187490476Y-102307200D02*
X187585714Y-102354819D01*
X187585714Y-102354819D02*
X187776190Y-102354819D01*
X187776190Y-102354819D02*
X187871428Y-102307200D01*
X187871428Y-102307200D02*
X187919047Y-102259580D01*
X187919047Y-102259580D02*
X187966666Y-102164342D01*
X187966666Y-102164342D02*
X187966666Y-101973866D01*
X187966666Y-101973866D02*
X187919047Y-101878628D01*
X187919047Y-101878628D02*
X187871428Y-101831009D01*
X187871428Y-101831009D02*
X187776190Y-101783390D01*
X167261905Y-92154819D02*
X167261905Y-91154819D01*
X167261905Y-91154819D02*
X167500000Y-91154819D01*
X167500000Y-91154819D02*
X167642857Y-91202438D01*
X167642857Y-91202438D02*
X167738095Y-91297676D01*
X167738095Y-91297676D02*
X167785714Y-91392914D01*
X167785714Y-91392914D02*
X167833333Y-91583390D01*
X167833333Y-91583390D02*
X167833333Y-91726247D01*
X167833333Y-91726247D02*
X167785714Y-91916723D01*
X167785714Y-91916723D02*
X167738095Y-92011961D01*
X167738095Y-92011961D02*
X167642857Y-92107200D01*
X167642857Y-92107200D02*
X167500000Y-92154819D01*
X167500000Y-92154819D02*
X167261905Y-92154819D01*
X168166667Y-91154819D02*
X168785714Y-91154819D01*
X168785714Y-91154819D02*
X168452381Y-91535771D01*
X168452381Y-91535771D02*
X168595238Y-91535771D01*
X168595238Y-91535771D02*
X168690476Y-91583390D01*
X168690476Y-91583390D02*
X168738095Y-91631009D01*
X168738095Y-91631009D02*
X168785714Y-91726247D01*
X168785714Y-91726247D02*
X168785714Y-91964342D01*
X168785714Y-91964342D02*
X168738095Y-92059580D01*
X168738095Y-92059580D02*
X168690476Y-92107200D01*
X168690476Y-92107200D02*
X168595238Y-92154819D01*
X168595238Y-92154819D02*
X168309524Y-92154819D01*
X168309524Y-92154819D02*
X168214286Y-92107200D01*
X168214286Y-92107200D02*
X168166667Y-92059580D01*
X189838095Y-99154819D02*
X189838095Y-98154819D01*
X189838095Y-98631009D02*
X190409523Y-98631009D01*
X190409523Y-99154819D02*
X190409523Y-98154819D01*
X190838095Y-98250057D02*
X190885714Y-98202438D01*
X190885714Y-98202438D02*
X190980952Y-98154819D01*
X190980952Y-98154819D02*
X191219047Y-98154819D01*
X191219047Y-98154819D02*
X191314285Y-98202438D01*
X191314285Y-98202438D02*
X191361904Y-98250057D01*
X191361904Y-98250057D02*
X191409523Y-98345295D01*
X191409523Y-98345295D02*
X191409523Y-98440533D01*
X191409523Y-98440533D02*
X191361904Y-98583390D01*
X191361904Y-98583390D02*
X190790476Y-99154819D01*
X190790476Y-99154819D02*
X191409523Y-99154819D01*
X170019580Y-109666666D02*
X170067200Y-109714285D01*
X170067200Y-109714285D02*
X170114819Y-109857142D01*
X170114819Y-109857142D02*
X170114819Y-109952380D01*
X170114819Y-109952380D02*
X170067200Y-110095237D01*
X170067200Y-110095237D02*
X169971961Y-110190475D01*
X169971961Y-110190475D02*
X169876723Y-110238094D01*
X169876723Y-110238094D02*
X169686247Y-110285713D01*
X169686247Y-110285713D02*
X169543390Y-110285713D01*
X169543390Y-110285713D02*
X169352914Y-110238094D01*
X169352914Y-110238094D02*
X169257676Y-110190475D01*
X169257676Y-110190475D02*
X169162438Y-110095237D01*
X169162438Y-110095237D02*
X169114819Y-109952380D01*
X169114819Y-109952380D02*
X169114819Y-109857142D01*
X169114819Y-109857142D02*
X169162438Y-109714285D01*
X169162438Y-109714285D02*
X169210057Y-109666666D01*
X169114819Y-109333332D02*
X169114819Y-108714285D01*
X169114819Y-108714285D02*
X169495771Y-109047618D01*
X169495771Y-109047618D02*
X169495771Y-108904761D01*
X169495771Y-108904761D02*
X169543390Y-108809523D01*
X169543390Y-108809523D02*
X169591009Y-108761904D01*
X169591009Y-108761904D02*
X169686247Y-108714285D01*
X169686247Y-108714285D02*
X169924342Y-108714285D01*
X169924342Y-108714285D02*
X170019580Y-108761904D01*
X170019580Y-108761904D02*
X170067200Y-108809523D01*
X170067200Y-108809523D02*
X170114819Y-108904761D01*
X170114819Y-108904761D02*
X170114819Y-109190475D01*
X170114819Y-109190475D02*
X170067200Y-109285713D01*
X170067200Y-109285713D02*
X170019580Y-109333332D01*
X166433333Y-121969580D02*
X166385714Y-122017200D01*
X166385714Y-122017200D02*
X166242857Y-122064819D01*
X166242857Y-122064819D02*
X166147619Y-122064819D01*
X166147619Y-122064819D02*
X166004762Y-122017200D01*
X166004762Y-122017200D02*
X165909524Y-121921961D01*
X165909524Y-121921961D02*
X165861905Y-121826723D01*
X165861905Y-121826723D02*
X165814286Y-121636247D01*
X165814286Y-121636247D02*
X165814286Y-121493390D01*
X165814286Y-121493390D02*
X165861905Y-121302914D01*
X165861905Y-121302914D02*
X165909524Y-121207676D01*
X165909524Y-121207676D02*
X166004762Y-121112438D01*
X166004762Y-121112438D02*
X166147619Y-121064819D01*
X166147619Y-121064819D02*
X166242857Y-121064819D01*
X166242857Y-121064819D02*
X166385714Y-121112438D01*
X166385714Y-121112438D02*
X166433333Y-121160057D01*
X166909524Y-122064819D02*
X167100000Y-122064819D01*
X167100000Y-122064819D02*
X167195238Y-122017200D01*
X167195238Y-122017200D02*
X167242857Y-121969580D01*
X167242857Y-121969580D02*
X167338095Y-121826723D01*
X167338095Y-121826723D02*
X167385714Y-121636247D01*
X167385714Y-121636247D02*
X167385714Y-121255295D01*
X167385714Y-121255295D02*
X167338095Y-121160057D01*
X167338095Y-121160057D02*
X167290476Y-121112438D01*
X167290476Y-121112438D02*
X167195238Y-121064819D01*
X167195238Y-121064819D02*
X167004762Y-121064819D01*
X167004762Y-121064819D02*
X166909524Y-121112438D01*
X166909524Y-121112438D02*
X166861905Y-121160057D01*
X166861905Y-121160057D02*
X166814286Y-121255295D01*
X166814286Y-121255295D02*
X166814286Y-121493390D01*
X166814286Y-121493390D02*
X166861905Y-121588628D01*
X166861905Y-121588628D02*
X166909524Y-121636247D01*
X166909524Y-121636247D02*
X167004762Y-121683866D01*
X167004762Y-121683866D02*
X167195238Y-121683866D01*
X167195238Y-121683866D02*
X167290476Y-121636247D01*
X167290476Y-121636247D02*
X167338095Y-121588628D01*
X167338095Y-121588628D02*
X167385714Y-121493390D01*
X170454819Y-98566666D02*
X169978628Y-98899999D01*
X170454819Y-99138094D02*
X169454819Y-99138094D01*
X169454819Y-99138094D02*
X169454819Y-98757142D01*
X169454819Y-98757142D02*
X169502438Y-98661904D01*
X169502438Y-98661904D02*
X169550057Y-98614285D01*
X169550057Y-98614285D02*
X169645295Y-98566666D01*
X169645295Y-98566666D02*
X169788152Y-98566666D01*
X169788152Y-98566666D02*
X169883390Y-98614285D01*
X169883390Y-98614285D02*
X169931009Y-98661904D01*
X169931009Y-98661904D02*
X169978628Y-98757142D01*
X169978628Y-98757142D02*
X169978628Y-99138094D01*
X169454819Y-97709523D02*
X169454819Y-97899999D01*
X169454819Y-97899999D02*
X169502438Y-97995237D01*
X169502438Y-97995237D02*
X169550057Y-98042856D01*
X169550057Y-98042856D02*
X169692914Y-98138094D01*
X169692914Y-98138094D02*
X169883390Y-98185713D01*
X169883390Y-98185713D02*
X170264342Y-98185713D01*
X170264342Y-98185713D02*
X170359580Y-98138094D01*
X170359580Y-98138094D02*
X170407200Y-98090475D01*
X170407200Y-98090475D02*
X170454819Y-97995237D01*
X170454819Y-97995237D02*
X170454819Y-97804761D01*
X170454819Y-97804761D02*
X170407200Y-97709523D01*
X170407200Y-97709523D02*
X170359580Y-97661904D01*
X170359580Y-97661904D02*
X170264342Y-97614285D01*
X170264342Y-97614285D02*
X170026247Y-97614285D01*
X170026247Y-97614285D02*
X169931009Y-97661904D01*
X169931009Y-97661904D02*
X169883390Y-97709523D01*
X169883390Y-97709523D02*
X169835771Y-97804761D01*
X169835771Y-97804761D02*
X169835771Y-97995237D01*
X169835771Y-97995237D02*
X169883390Y-98090475D01*
X169883390Y-98090475D02*
X169931009Y-98138094D01*
X169931009Y-98138094D02*
X170026247Y-98185713D01*
X189738095Y-124604819D02*
X189738095Y-123604819D01*
X189738095Y-124081009D02*
X190309523Y-124081009D01*
X190309523Y-124604819D02*
X190309523Y-123604819D01*
X190690476Y-123604819D02*
X191309523Y-123604819D01*
X191309523Y-123604819D02*
X190976190Y-123985771D01*
X190976190Y-123985771D02*
X191119047Y-123985771D01*
X191119047Y-123985771D02*
X191214285Y-124033390D01*
X191214285Y-124033390D02*
X191261904Y-124081009D01*
X191261904Y-124081009D02*
X191309523Y-124176247D01*
X191309523Y-124176247D02*
X191309523Y-124414342D01*
X191309523Y-124414342D02*
X191261904Y-124509580D01*
X191261904Y-124509580D02*
X191214285Y-124557200D01*
X191214285Y-124557200D02*
X191119047Y-124604819D01*
X191119047Y-124604819D02*
X190833333Y-124604819D01*
X190833333Y-124604819D02*
X190738095Y-124557200D01*
X190738095Y-124557200D02*
X190690476Y-124509580D01*
X186524819Y-127603333D02*
X187239104Y-127603333D01*
X187239104Y-127603333D02*
X187381961Y-127650952D01*
X187381961Y-127650952D02*
X187477200Y-127746190D01*
X187477200Y-127746190D02*
X187524819Y-127889047D01*
X187524819Y-127889047D02*
X187524819Y-127984285D01*
X186524819Y-127222380D02*
X186524819Y-126603333D01*
X186524819Y-126603333D02*
X186905771Y-126936666D01*
X186905771Y-126936666D02*
X186905771Y-126793809D01*
X186905771Y-126793809D02*
X186953390Y-126698571D01*
X186953390Y-126698571D02*
X187001009Y-126650952D01*
X187001009Y-126650952D02*
X187096247Y-126603333D01*
X187096247Y-126603333D02*
X187334342Y-126603333D01*
X187334342Y-126603333D02*
X187429580Y-126650952D01*
X187429580Y-126650952D02*
X187477200Y-126698571D01*
X187477200Y-126698571D02*
X187524819Y-126793809D01*
X187524819Y-126793809D02*
X187524819Y-127079523D01*
X187524819Y-127079523D02*
X187477200Y-127174761D01*
X187477200Y-127174761D02*
X187429580Y-127222380D01*
D12*
%TO.C,C6*%
X158540000Y-100007836D02*
X158540000Y-99792164D01*
X159260000Y-100007836D02*
X159260000Y-99792164D01*
%TO.C,R2*%
X165520000Y-96553641D02*
X165520000Y-96246359D01*
X166280000Y-96553641D02*
X166280000Y-96246359D01*
%TO.C,C11*%
X164207836Y-120090000D02*
X163992164Y-120090000D01*
X164207836Y-120810000D02*
X163992164Y-120810000D01*
%TO.C,C2*%
X159540000Y-100007836D02*
X159540000Y-99792164D01*
X160260000Y-100007836D02*
X160260000Y-99792164D01*
%TO.C,J5*%
X186750000Y-114100000D02*
X186750000Y-115350000D01*
X186750000Y-115350000D02*
X188000000Y-115350000D01*
X187040000Y-104940000D02*
X187040000Y-115060000D01*
X187040000Y-115060000D02*
X193010000Y-115060000D01*
X187050000Y-104950000D02*
X187050000Y-106750000D01*
X187050000Y-106750000D02*
X187800000Y-106750000D01*
X187050000Y-108250000D02*
X187050000Y-111750000D01*
X187050000Y-111750000D02*
X187800000Y-111750000D01*
X187050000Y-113250000D02*
X187050000Y-115050000D01*
X187050000Y-115050000D02*
X187800000Y-115050000D01*
X187800000Y-104950000D02*
X187050000Y-104950000D01*
X187800000Y-106750000D02*
X187800000Y-104950000D01*
X187800000Y-108250000D02*
X187050000Y-108250000D01*
X187800000Y-111750000D02*
X187800000Y-108250000D01*
X187800000Y-113250000D02*
X187050000Y-113250000D01*
X187800000Y-115050000D02*
X187800000Y-113250000D01*
X189300000Y-104950000D02*
X189300000Y-105700000D01*
X189300000Y-105700000D02*
X192250000Y-105700000D01*
X189300000Y-114300000D02*
X192250000Y-114300000D01*
X189300000Y-115050000D02*
X189300000Y-114300000D01*
X192250000Y-105700000D02*
X192250000Y-110000000D01*
X192250000Y-114300000D02*
X192250000Y-110000000D01*
X193010000Y-104940000D02*
X187040000Y-104940000D01*
X193010000Y-115060000D02*
X193010000Y-104940000D01*
%TO.C,R8*%
X161620000Y-98853641D02*
X161620000Y-98546359D01*
X162380000Y-98853641D02*
X162380000Y-98546359D01*
%TO.C,J2*%
X137895000Y-107050000D02*
X139225000Y-107050000D01*
X137895000Y-108380000D02*
X137895000Y-107050000D01*
X137895000Y-109650000D02*
X137895000Y-119870000D01*
X137895000Y-109650000D02*
X140495000Y-109650000D01*
X137895000Y-119870000D02*
X143095000Y-119870000D01*
X140495000Y-107050000D02*
X143095000Y-107050000D01*
X140495000Y-109650000D02*
X140495000Y-107050000D01*
X143095000Y-107050000D02*
X143095000Y-119870000D01*
%TO.C,C1*%
X180340580Y-105790000D02*
X180059420Y-105790000D01*
X180340580Y-106810000D02*
X180059420Y-106810000D01*
%TO.C,U2*%
X160390000Y-101390000D02*
X160390000Y-101690000D01*
X160390000Y-108610000D02*
X160390000Y-108310000D01*
X160690000Y-101390000D02*
X160390000Y-101390000D01*
X160690000Y-108610000D02*
X160390000Y-108610000D01*
X167310000Y-101390000D02*
X167610000Y-101390000D01*
X167310000Y-108610000D02*
X167610000Y-108610000D01*
X167610000Y-101390000D02*
X167610000Y-101690000D01*
X167610000Y-108610000D02*
X167610000Y-108310000D01*
X159787500Y-101690000D02*
X159447500Y-101220000D01*
X160127500Y-101220000D01*
X159787500Y-101690000D01*
G36*
X159787500Y-101690000D02*
G01*
X159447500Y-101220000D01*
X160127500Y-101220000D01*
X159787500Y-101690000D01*
G37*
%TO.C,U4*%
X163490000Y-119560000D02*
X163490000Y-119385000D01*
X164165000Y-116840000D02*
X163790000Y-116840000D01*
X164165000Y-119560000D02*
X163490000Y-119560000D01*
X166035000Y-116840000D02*
X166710000Y-116840000D01*
X166035000Y-119560000D02*
X166710000Y-119560000D01*
X166710000Y-116840000D02*
X166710000Y-117015000D01*
X166710000Y-119560000D02*
X166710000Y-119385000D01*
X163490000Y-116840000D02*
X163350000Y-116650000D01*
X163630000Y-116650000D01*
X163490000Y-116840000D01*
G36*
X163490000Y-116840000D02*
G01*
X163350000Y-116650000D01*
X163630000Y-116650000D01*
X163490000Y-116840000D01*
G37*
%TO.C,U3*%
X173440000Y-103000000D02*
X173440000Y-102200000D01*
X173440000Y-103000000D02*
X173440000Y-103800000D01*
X176560000Y-103000000D02*
X176560000Y-102200000D01*
X176560000Y-103000000D02*
X176560000Y-103800000D01*
X173490000Y-104300000D02*
X173160000Y-104540000D01*
X173160000Y-104060000D01*
X173490000Y-104300000D01*
G36*
X173490000Y-104300000D02*
G01*
X173160000Y-104540000D01*
X173160000Y-104060000D01*
X173490000Y-104300000D01*
G37*
%TO.C,C5*%
X157607836Y-105140000D02*
X157392164Y-105140000D01*
X157607836Y-105860000D02*
X157392164Y-105860000D01*
%TO.C,TP3*%
X158950000Y-113000000D02*
G75*
G02*
X157050000Y-113000000I-950000J0D01*
G01*
X157050000Y-113000000D02*
G75*
G02*
X158950000Y-113000000I950000J0D01*
G01*
%TO.C,R1*%
X150153641Y-98120000D02*
X149846359Y-98120000D01*
X150153641Y-98880000D02*
X149846359Y-98880000D01*
%TO.C,D1*%
X165165000Y-92315000D02*
X165165000Y-94600000D01*
X166635000Y-92315000D02*
X165165000Y-92315000D01*
X166635000Y-94600000D02*
X166635000Y-92315000D01*
%TO.C,R7*%
X173520000Y-96553641D02*
X173520000Y-96246359D01*
X174280000Y-96553641D02*
X174280000Y-96246359D01*
%TO.C,J4*%
X127515000Y-104940000D02*
X127515000Y-115060000D01*
X127515000Y-115060000D02*
X133485000Y-115060000D01*
X128275000Y-105700000D02*
X128275000Y-110000000D01*
X128275000Y-114300000D02*
X128275000Y-110000000D01*
X131225000Y-104950000D02*
X131225000Y-105700000D01*
X131225000Y-105700000D02*
X128275000Y-105700000D01*
X131225000Y-114300000D02*
X128275000Y-114300000D01*
X131225000Y-115050000D02*
X131225000Y-114300000D01*
X132725000Y-104950000D02*
X132725000Y-106750000D01*
X132725000Y-106750000D02*
X133475000Y-106750000D01*
X132725000Y-108250000D02*
X132725000Y-111750000D01*
X132725000Y-111750000D02*
X133475000Y-111750000D01*
X132725000Y-113250000D02*
X132725000Y-115050000D01*
X132725000Y-115050000D02*
X133475000Y-115050000D01*
X133475000Y-104950000D02*
X132725000Y-104950000D01*
X133475000Y-106750000D02*
X133475000Y-104950000D01*
X133475000Y-108250000D02*
X132725000Y-108250000D01*
X133475000Y-111750000D02*
X133475000Y-108250000D01*
X133475000Y-113250000D02*
X132725000Y-113250000D01*
X133475000Y-115050000D02*
X133475000Y-113250000D01*
X133485000Y-104940000D02*
X127515000Y-104940000D01*
X133485000Y-115060000D02*
X133485000Y-104940000D01*
X133775000Y-104650000D02*
X132525000Y-104650000D01*
X133775000Y-105900000D02*
X133775000Y-104650000D01*
%TO.C,D6*%
X173165000Y-92315000D02*
X173165000Y-94600000D01*
X174635000Y-92315000D02*
X173165000Y-92315000D01*
X174635000Y-94600000D02*
X174635000Y-92315000D01*
%TO.C,C7*%
X151892164Y-98140000D02*
X152107836Y-98140000D01*
X151892164Y-98860000D02*
X152107836Y-98860000D01*
%TO.C,D5*%
X169165000Y-92315000D02*
X169165000Y-94600000D01*
X170635000Y-92315000D02*
X169165000Y-92315000D01*
X170635000Y-94600000D02*
X170635000Y-92315000D01*
%TO.C,J1*%
X139440000Y-91490000D02*
X139440000Y-97460000D01*
X139440000Y-97460000D02*
X152060000Y-97460000D01*
X139450000Y-95200000D02*
X140200000Y-95200000D01*
X139450000Y-96700000D02*
X139450000Y-97450000D01*
X139450000Y-97450000D02*
X141250000Y-97450000D01*
X140200000Y-92250000D02*
X145750000Y-92250000D01*
X140200000Y-95200000D02*
X140200000Y-92250000D01*
X141250000Y-96700000D02*
X139450000Y-96700000D01*
X141250000Y-97450000D02*
X141250000Y-96700000D01*
X142750000Y-96700000D02*
X142750000Y-97450000D01*
X142750000Y-97450000D02*
X148750000Y-97450000D01*
X148750000Y-96700000D02*
X142750000Y-96700000D01*
X148750000Y-97450000D02*
X148750000Y-96700000D01*
X150250000Y-96700000D02*
X150250000Y-97450000D01*
X150250000Y-97450000D02*
X152050000Y-97450000D01*
X151100000Y-97750000D02*
X152350000Y-97750000D01*
X151300000Y-92250000D02*
X145750000Y-92250000D01*
X151300000Y-95200000D02*
X151300000Y-92250000D01*
X152050000Y-95200000D02*
X151300000Y-95200000D01*
X152050000Y-96700000D02*
X150250000Y-96700000D01*
X152050000Y-97450000D02*
X152050000Y-96700000D01*
X152060000Y-91490000D02*
X139440000Y-91490000D01*
X152060000Y-97460000D02*
X152060000Y-91490000D01*
X152350000Y-97750000D02*
X152350000Y-96500000D01*
%TO.C,C10*%
X174392164Y-99940000D02*
X174607836Y-99940000D01*
X174392164Y-100660000D02*
X174607836Y-100660000D01*
%TO.C,TP4*%
X161950000Y-113000000D02*
G75*
G02*
X160050000Y-113000000I-950000J0D01*
G01*
X160050000Y-113000000D02*
G75*
G02*
X161950000Y-113000000I950000J0D01*
G01*
%TO.C,TP6*%
X167950000Y-113000000D02*
G75*
G02*
X166050000Y-113000000I-950000J0D01*
G01*
X166050000Y-113000000D02*
G75*
G02*
X167950000Y-113000000I950000J0D01*
G01*
%TO.C,R4*%
X167520000Y-96553641D02*
X167520000Y-96246359D01*
X168280000Y-96553641D02*
X168280000Y-96246359D01*
%TO.C,TP2*%
X179350000Y-104100000D02*
G75*
G02*
X177450000Y-104100000I-950000J0D01*
G01*
X177450000Y-104100000D02*
G75*
G02*
X179350000Y-104100000I950000J0D01*
G01*
%TO.C,C4*%
X157607836Y-104140000D02*
X157392164Y-104140000D01*
X157607836Y-104860000D02*
X157392164Y-104860000D01*
%TO.C,C8*%
X174392164Y-105340000D02*
X174607836Y-105340000D01*
X174392164Y-106060000D02*
X174607836Y-106060000D01*
%TO.C,SW2*%
X147270000Y-106270000D02*
X147300000Y-106270000D01*
X147270000Y-112730000D02*
X147270000Y-106270000D01*
X147300000Y-112730000D02*
X147270000Y-112730000D01*
X149200000Y-106270000D02*
X151800000Y-106270000D01*
X149200000Y-112730000D02*
X151800000Y-112730000D01*
X153730000Y-106270000D02*
X153700000Y-106270000D01*
X153730000Y-112730000D02*
X153700000Y-112730000D01*
X153730000Y-112730000D02*
X153730000Y-106270000D01*
%TO.C,R9*%
X150153641Y-99620000D02*
X149846359Y-99620000D01*
X150153641Y-100380000D02*
X149846359Y-100380000D01*
%TO.C,U1*%
D11*
X184300000Y-115400000D02*
X172700000Y-115400000D01*
X172700000Y-107850000D01*
X184300000Y-107850000D01*
X184300000Y-115400000D01*
D12*
%TO.C,J8*%
X180235000Y-93060000D02*
X180235000Y-92995000D01*
X180235000Y-102005000D02*
X180235000Y-101940000D01*
X183765000Y-92995000D02*
X180235000Y-92995000D01*
X183765000Y-93060000D02*
X183765000Y-92995000D01*
X183765000Y-102005000D02*
X180235000Y-102005000D01*
X183765000Y-102005000D02*
X183765000Y-101940000D01*
X185090000Y-101940000D02*
X183765000Y-101940000D01*
%TO.C,D3*%
X167165000Y-92315000D02*
X167165000Y-94600000D01*
X168635000Y-92315000D02*
X167165000Y-92315000D01*
X168635000Y-94600000D02*
X168635000Y-92315000D01*
%TO.C,C3*%
X168140000Y-109392164D02*
X168140000Y-109607836D01*
X168860000Y-109392164D02*
X168860000Y-109607836D01*
%TO.C,TP1*%
X185350000Y-105700000D02*
G75*
G02*
X183450000Y-105700000I-950000J0D01*
G01*
X183450000Y-105700000D02*
G75*
G02*
X185350000Y-105700000I950000J0D01*
G01*
%TO.C,C9*%
X166207836Y-120090000D02*
X165992164Y-120090000D01*
X166207836Y-120810000D02*
X165992164Y-120810000D01*
%TO.C,R6*%
X169520000Y-96553641D02*
X169520000Y-96246359D01*
X170280000Y-96553641D02*
X170280000Y-96246359D01*
%TO.C,TP5*%
X164950000Y-113000000D02*
G75*
G02*
X163050000Y-113000000I-950000J0D01*
G01*
X163050000Y-113000000D02*
G75*
G02*
X164950000Y-113000000I950000J0D01*
G01*
%TO.C,J3*%
X135150000Y-124670000D02*
X135150000Y-129870000D01*
X186070000Y-129870000D02*
X135150000Y-129870000D01*
X183470000Y-124670000D02*
X135150000Y-124670000D01*
X183470000Y-124670000D02*
X183470000Y-127270000D01*
X186070000Y-127270000D02*
X186070000Y-129870000D01*
X183470000Y-127270000D02*
X186070000Y-127270000D01*
X186070000Y-124670000D02*
X186070000Y-126000000D01*
X184740000Y-124670000D02*
X186070000Y-124670000D01*
%TD*%
M02*
