%TF.GenerationSoftware,KiCad,Pcbnew,8.0.5*%
%TF.CreationDate,2025-01-21T17:20:08+01:00*%
%TF.ProjectId,Ingenuity,496e6765-6e75-4697-9479-2e6b69636164,rev?*%
%TF.SameCoordinates,Original*%
%TF.FileFunction,Copper,L4,Bot*%
%TF.FilePolarity,Positive*%
%FSLAX46Y46*%
G04 Gerber Fmt 4.6, Leading zero omitted, Abs format (unit mm)*
G04 Created by KiCad (PCBNEW 8.0.5) date 2025-01-21 17:20:08*
%MOMM*%
%LPD*%
G01*
G04 APERTURE LIST*
G04 Aperture macros list*
%AMRoundRect*
0 Rectangle with rounded corners*
0 $1 Rounding radius*
0 $2 $3 $4 $5 $6 $7 $8 $9 X,Y pos of 4 corners*
0 Add a 4 corners polygon primitive as box body*
4,1,4,$2,$3,$4,$5,$6,$7,$8,$9,$2,$3,0*
0 Add four circle primitives for the rounded corners*
1,1,$1+$1,$2,$3*
1,1,$1+$1,$4,$5*
1,1,$1+$1,$6,$7*
1,1,$1+$1,$8,$9*
0 Add four rect primitives between the rounded corners*
20,1,$1+$1,$2,$3,$4,$5,0*
20,1,$1+$1,$4,$5,$6,$7,0*
20,1,$1+$1,$6,$7,$8,$9,0*
20,1,$1+$1,$8,$9,$2,$3,0*%
G04 Aperture macros list end*
%TA.AperFunction,ComponentPad*%
%ADD10RoundRect,0.250000X0.725000X-0.600000X0.725000X0.600000X-0.725000X0.600000X-0.725000X-0.600000X0*%
%TD*%
%TA.AperFunction,ComponentPad*%
%ADD11O,1.950000X1.700000*%
%TD*%
%TA.AperFunction,ComponentPad*%
%ADD12R,1.700000X1.700000*%
%TD*%
%TA.AperFunction,ComponentPad*%
%ADD13O,1.700000X1.700000*%
%TD*%
%TA.AperFunction,ComponentPad*%
%ADD14C,4.700000*%
%TD*%
%TA.AperFunction,ComponentPad*%
%ADD15RoundRect,0.250000X-0.725000X0.600000X-0.725000X-0.600000X0.725000X-0.600000X0.725000X0.600000X0*%
%TD*%
%TA.AperFunction,ComponentPad*%
%ADD16RoundRect,0.250000X0.600000X0.725000X-0.600000X0.725000X-0.600000X-0.725000X0.600000X-0.725000X0*%
%TD*%
%TA.AperFunction,ComponentPad*%
%ADD17O,1.700000X1.950000*%
%TD*%
%TA.AperFunction,ComponentPad*%
%ADD18C,1.800000*%
%TD*%
%TA.AperFunction,ViaPad*%
%ADD19C,0.450000*%
%TD*%
%TA.AperFunction,Conductor*%
%ADD20C,0.300000*%
%TD*%
G04 APERTURE END LIST*
D10*
%TO.P,J5,1,Pin_1*%
%TO.N,GND*%
X189500000Y-112500000D03*
D11*
%TO.P,J5,2,Pin_2*%
%TO.N,+6V*%
X189500000Y-110000000D03*
%TO.P,J5,3,Pin_3*%
%TO.N,PWM1*%
X189500000Y-107500000D03*
%TD*%
D12*
%TO.P,J2,1,Pin_1*%
%TO.N,INT*%
X139225000Y-108380000D03*
D13*
%TO.P,J2,2,Pin_2*%
%TO.N,I2C1_SCL*%
X141765000Y-108380000D03*
%TO.P,J2,3,Pin_3*%
%TO.N,+3.3V*%
X139225000Y-110920000D03*
%TO.P,J2,4,Pin_4*%
%TO.N,I2C1_SDA*%
X141765000Y-110920000D03*
%TO.P,J2,5,Pin_5*%
%TO.N,+3.3V*%
X139225000Y-113460000D03*
%TO.P,J2,6,Pin_6*%
%TO.N,GND*%
X141765000Y-113460000D03*
%TO.P,J2,7,Pin_7*%
%TO.N,unconnected-(J2-Pin_7-Pad7)*%
X139225000Y-116000000D03*
%TO.P,J2,8,Pin_8*%
%TO.N,unconnected-(J2-Pin_8-Pad8)*%
X141765000Y-116000000D03*
%TO.P,J2,9,Pin_9*%
%TO.N,unconnected-(J2-Pin_9-Pad9)*%
X139225000Y-118540000D03*
%TO.P,J2,10,Pin_10*%
%TO.N,unconnected-(J2-Pin_10-Pad10)*%
X141765000Y-118540000D03*
%TD*%
D14*
%TO.P,H1,1,1*%
%TO.N,GND*%
X130500000Y-95000000D03*
%TD*%
D15*
%TO.P,J4,1,Pin_1*%
%TO.N,GND*%
X131025000Y-107500000D03*
D11*
%TO.P,J4,2,Pin_2*%
%TO.N,unconnected-(J4-Pin_2-Pad2)*%
X131025000Y-110000000D03*
%TO.P,J4,3,Pin_3*%
%TO.N,PWM2*%
X131025000Y-112500000D03*
%TD*%
D14*
%TO.P,H4,1,1*%
%TO.N,GND*%
X130500000Y-127500000D03*
%TD*%
D16*
%TO.P,J1,1,Pin_1*%
%TO.N,Net-(J1-Pin_1)*%
X149500000Y-95000000D03*
D17*
%TO.P,J1,2,Pin_2*%
%TO.N,unconnected-(J1-Pin_2-Pad2)*%
X147000000Y-95000000D03*
%TO.P,J1,3,Pin_3*%
%TO.N,unconnected-(J1-Pin_3-Pad3)*%
X144500000Y-95000000D03*
%TO.P,J1,4,Pin_4*%
%TO.N,GND*%
X142000000Y-95000000D03*
%TD*%
D18*
%TO.P,U1,1,Vin*%
%TO.N,+6V*%
X181040000Y-110000000D03*
%TO.P,U1,2,GND*%
%TO.N,GND*%
X178500000Y-110000000D03*
%TO.P,U1,3,Vout*%
%TO.N,+5V*%
X175960000Y-110000000D03*
%TD*%
D14*
%TO.P,H2,1,1*%
%TO.N,GND*%
X190500000Y-95000000D03*
%TD*%
%TO.P,H3,1,1*%
%TO.N,GND*%
X190500000Y-127500000D03*
%TD*%
D12*
%TO.P,J3,1,Pin_1*%
%TO.N,unconnected-(J3-Pin_1-Pad1)*%
X184740000Y-126000000D03*
D13*
%TO.P,J3,2,Pin_2*%
%TO.N,+5V*%
X184740000Y-128540000D03*
%TO.P,J3,3,Pin_3*%
%TO.N,unconnected-(J3-Pin_3-Pad3)*%
X182200000Y-126000000D03*
%TO.P,J3,4,Pin_4*%
%TO.N,+5V*%
X182200000Y-128540000D03*
%TO.P,J3,5,Pin_5*%
%TO.N,unconnected-(J3-Pin_5-Pad5)*%
X179660000Y-126000000D03*
%TO.P,J3,6,Pin_6*%
%TO.N,GND*%
X179660000Y-128540000D03*
%TO.P,J3,7,Pin_7*%
%TO.N,unconnected-(J3-Pin_7-Pad7)*%
X177120000Y-126000000D03*
%TO.P,J3,8,Pin_8*%
%TO.N,USART2_RX*%
X177120000Y-128540000D03*
%TO.P,J3,9,Pin_9*%
%TO.N,GND*%
X174580000Y-126000000D03*
%TO.P,J3,10,Pin_10*%
%TO.N,USART2_TX*%
X174580000Y-128540000D03*
%TO.P,J3,11,Pin_11*%
%TO.N,unconnected-(J3-Pin_11-Pad11)*%
X172040000Y-126000000D03*
%TO.P,J3,12,Pin_12*%
%TO.N,unconnected-(J3-Pin_12-Pad12)*%
X172040000Y-128540000D03*
%TO.P,J3,13,Pin_13*%
%TO.N,unconnected-(J3-Pin_13-Pad13)*%
X169500000Y-126000000D03*
%TO.P,J3,14,Pin_14*%
%TO.N,GND*%
X169500000Y-128540000D03*
%TO.P,J3,15,Pin_15*%
%TO.N,unconnected-(J3-Pin_15-Pad15)*%
X166960000Y-126000000D03*
%TO.P,J3,16,Pin_16*%
%TO.N,unconnected-(J3-Pin_16-Pad16)*%
X166960000Y-128540000D03*
%TO.P,J3,17,Pin_17*%
%TO.N,unconnected-(J3-Pin_17-Pad17)*%
X164420000Y-126000000D03*
%TO.P,J3,18,Pin_18*%
%TO.N,unconnected-(J3-Pin_18-Pad18)*%
X164420000Y-128540000D03*
%TO.P,J3,19,Pin_19*%
%TO.N,unconnected-(J3-Pin_19-Pad19)*%
X161880000Y-126000000D03*
%TO.P,J3,20,Pin_20*%
%TO.N,GND*%
X161880000Y-128540000D03*
%TO.P,J3,21,Pin_21*%
%TO.N,unconnected-(J3-Pin_21-Pad21)*%
X159340000Y-126000000D03*
%TO.P,J3,22,Pin_22*%
%TO.N,unconnected-(J3-Pin_22-Pad22)*%
X159340000Y-128540000D03*
%TO.P,J3,23,Pin_23*%
%TO.N,unconnected-(J3-Pin_23-Pad23)*%
X156800000Y-126000000D03*
%TO.P,J3,24,Pin_24*%
%TO.N,unconnected-(J3-Pin_24-Pad24)*%
X156800000Y-128540000D03*
%TO.P,J3,25,Pin_25*%
%TO.N,GND*%
X154260000Y-126000000D03*
%TO.P,J3,26,Pin_26*%
%TO.N,unconnected-(J3-Pin_26-Pad26)*%
X154260000Y-128540000D03*
%TO.P,J3,27,Pin_27*%
%TO.N,unconnected-(J3-Pin_27-Pad27)*%
X151720000Y-126000000D03*
%TO.P,J3,28,Pin_28*%
%TO.N,unconnected-(J3-Pin_28-Pad28)*%
X151720000Y-128540000D03*
%TO.P,J3,29,Pin_29*%
%TO.N,unconnected-(J3-Pin_29-Pad29)*%
X149180000Y-126000000D03*
%TO.P,J3,30,Pin_30*%
%TO.N,GND*%
X149180000Y-128540000D03*
%TO.P,J3,31,Pin_31*%
%TO.N,unconnected-(J3-Pin_31-Pad31)*%
X146640000Y-126000000D03*
%TO.P,J3,32,Pin_32*%
%TO.N,unconnected-(J3-Pin_32-Pad32)*%
X146640000Y-128540000D03*
%TO.P,J3,33,Pin_33*%
%TO.N,unconnected-(J3-Pin_33-Pad33)*%
X144100000Y-126000000D03*
%TO.P,J3,34,Pin_34*%
%TO.N,GND*%
X144100000Y-128540000D03*
%TO.P,J3,35,Pin_35*%
%TO.N,unconnected-(J3-Pin_35-Pad35)*%
X141560000Y-126000000D03*
%TO.P,J3,36,Pin_36*%
%TO.N,unconnected-(J3-Pin_36-Pad36)*%
X141560000Y-128540000D03*
%TO.P,J3,37,Pin_37*%
%TO.N,unconnected-(J3-Pin_37-Pad37)*%
X139020000Y-126000000D03*
%TO.P,J3,38,Pin_38*%
%TO.N,unconnected-(J3-Pin_38-Pad38)*%
X139020000Y-128540000D03*
%TO.P,J3,39,Pin_39*%
%TO.N,GND*%
X136480000Y-126000000D03*
%TO.P,J3,40,Pin_40*%
%TO.N,unconnected-(J3-Pin_40-Pad40)*%
X136480000Y-128540000D03*
%TD*%
D19*
%TO.N,NRST*%
X176100000Y-97100000D03*
X158000000Y-103500000D03*
%TO.N,+3.3V*%
X185700000Y-100100000D03*
X173900000Y-97600000D03*
X168400000Y-108400000D03*
X158600000Y-105500000D03*
X158900000Y-100900000D03*
X159900000Y-100900000D03*
X164100000Y-119800000D03*
X174000000Y-99600000D03*
X166200000Y-119800000D03*
%TO.N,TENSION_BATTERIE*%
X165300000Y-110500000D03*
X152400000Y-100800000D03*
%TO.N,PWM1*%
X162900000Y-106200000D03*
%TO.N,USART1_RX*%
X182200000Y-94000000D03*
X169800000Y-105500000D03*
%TO.N,USART1_TX*%
X176900000Y-94400000D03*
X170900000Y-103300000D03*
%TO.N,SPI_CS*%
X166700000Y-116100000D03*
X163000000Y-116600000D03*
%TO.N,SPI1_SCK*%
X165200000Y-115800000D03*
X163100000Y-115100000D03*
%TO.N,GND*%
X137300000Y-96200000D03*
X183100000Y-103100000D03*
X157800000Y-116000000D03*
X184100000Y-123900000D03*
X158900000Y-98900000D03*
X166900000Y-93012500D03*
X193300000Y-107100000D03*
X162900000Y-121300000D03*
X193239623Y-101779308D03*
X165400000Y-119700000D03*
X169800000Y-104600000D03*
X142700000Y-117300000D03*
X131900000Y-101800000D03*
X193300000Y-111500000D03*
X188800000Y-104100000D03*
X175000000Y-100900000D03*
X180600000Y-120400000D03*
X184200000Y-118900000D03*
X147105097Y-122184465D03*
X176000000Y-99800000D03*
X161100000Y-123400000D03*
X137900000Y-109900000D03*
X185700000Y-98200000D03*
X161367005Y-93581197D03*
X159500000Y-97700000D03*
X141800000Y-102100000D03*
X148200000Y-109400000D03*
X166200000Y-115200000D03*
X149000000Y-100000000D03*
X160900000Y-98800000D03*
X191500000Y-105500000D03*
X138100000Y-101400000D03*
X147586635Y-117401486D03*
X181900000Y-95500000D03*
X156100000Y-94900000D03*
X174600000Y-122000000D03*
X153709966Y-116506538D03*
X190600000Y-122100000D03*
X137900000Y-114800000D03*
X135473725Y-93571419D03*
X172900000Y-105100000D03*
X174800000Y-117500000D03*
X172500000Y-102900000D03*
X132200000Y-115300000D03*
X192000000Y-113800000D03*
X140500000Y-117100000D03*
X138000000Y-117200000D03*
X155800000Y-117600000D03*
X131200000Y-120700000D03*
X168900000Y-93012500D03*
X142900000Y-112100000D03*
X157600000Y-114400000D03*
X188801517Y-99685861D03*
X192400000Y-109600000D03*
X181900000Y-101200000D03*
X138200000Y-105500000D03*
X159900000Y-98900000D03*
X140600000Y-114700000D03*
X169283859Y-114678549D03*
X187300000Y-120900000D03*
X130100000Y-115300000D03*
X191800000Y-116800000D03*
X183700000Y-113200000D03*
X173200000Y-93012500D03*
X158328891Y-92592043D03*
X152100000Y-123000000D03*
X153000000Y-98500000D03*
X142700000Y-114900000D03*
X181900000Y-98000000D03*
X167600000Y-109700000D03*
X163400000Y-118200000D03*
X174500000Y-108700000D03*
X172900000Y-100200000D03*
X189100000Y-118100000D03*
X178700000Y-106300000D03*
X165100000Y-120500000D03*
X156500000Y-105000000D03*
X152000000Y-101600000D03*
X147113288Y-98867839D03*
X174100000Y-113000000D03*
X170853943Y-119859830D03*
X178300000Y-113000000D03*
X175000000Y-105100000D03*
X156051092Y-121807645D03*
X178000000Y-100000000D03*
X186994416Y-117002275D03*
X142700000Y-122100000D03*
%TD*%
D20*
%TO.N,NRST*%
X176100000Y-97100000D02*
X175050000Y-98150000D01*
X175050000Y-98150000D02*
X163627818Y-98150000D01*
X158277818Y-103500000D02*
X158000000Y-103500000D01*
X163627818Y-98150000D02*
X158277818Y-103500000D01*
%TO.N,TENSION_BATTERIE*%
X152400000Y-100800000D02*
X153122182Y-100800000D01*
X162822182Y-110500000D02*
X165300000Y-110500000D01*
X153122182Y-100800000D02*
X162822182Y-110500000D01*
%TO.N,PWM1*%
X162900000Y-106200000D02*
X164200000Y-107500000D01*
X164200000Y-107500000D02*
X189500000Y-107500000D01*
%TO.N,USART1_RX*%
X182200000Y-94000000D02*
X182200000Y-94477818D01*
X171177818Y-105500000D02*
X169800000Y-105500000D01*
X182200000Y-94477818D02*
X171177818Y-105500000D01*
%TO.N,USART1_TX*%
X176900000Y-97477818D02*
X176900000Y-94400000D01*
X170900000Y-103300000D02*
X171077818Y-103300000D01*
X171077818Y-103300000D02*
X176900000Y-97477818D01*
%TO.N,SPI_CS*%
X166200000Y-116600000D02*
X163000000Y-116600000D01*
X166700000Y-116100000D02*
X166200000Y-116600000D01*
%TO.N,SPI1_SCK*%
X163800000Y-115800000D02*
X163100000Y-115100000D01*
X165200000Y-115800000D02*
X163800000Y-115800000D01*
%TD*%
M02*
