%TF.GenerationSoftware,KiCad,Pcbnew,8.0.5*%
%TF.CreationDate,2024-10-22T17:44:38+02:00*%
%TF.ProjectId,Ingenuity,496e6765-6e75-4697-9479-2e6b69636164,rev?*%
%TF.SameCoordinates,Original*%
%TF.FileFunction,Drillmap*%
%TF.FilePolarity,Positive*%
%FSLAX45Y45*%
G04 Gerber Fmt 4.5, Leading zero omitted, Abs format (unit mm)*
G04 Created by KiCad (PCBNEW 8.0.5) date 2024-10-22 17:44:38*
%MOMM*%
%LPD*%
G01*
G04 APERTURE LIST*
%ADD10C,0.050000*%
%ADD11C,0.200000*%
G04 APERTURE END LIST*
D10*
X19450000Y-12750000D02*
G75*
G02*
X19050000Y-13150000I-400000J0D01*
G01*
X19050000Y-9100000D02*
G75*
G02*
X19450000Y-9500000I0J-400000D01*
G01*
X12650000Y-9500000D02*
X12650000Y-12750000D01*
X19050000Y-9100000D02*
X13050000Y-9100000D01*
X19450000Y-12750000D02*
X19450000Y-9500000D01*
X13050000Y-13150000D02*
X19050000Y-13150000D01*
X13050000Y-13150000D02*
G75*
G02*
X12650000Y-12750000I0J400000D01*
G01*
X12650000Y-9500000D02*
G75*
G02*
X13050000Y-9100000I400000J0D01*
G01*
D11*
X12908277Y-13463984D02*
X12908277Y-13263984D01*
X12908277Y-13263984D02*
X12955896Y-13263984D01*
X12955896Y-13263984D02*
X12984467Y-13273508D01*
X12984467Y-13273508D02*
X13003515Y-13292555D01*
X13003515Y-13292555D02*
X13013039Y-13311603D01*
X13013039Y-13311603D02*
X13022562Y-13349698D01*
X13022562Y-13349698D02*
X13022562Y-13378269D01*
X13022562Y-13378269D02*
X13013039Y-13416365D01*
X13013039Y-13416365D02*
X13003515Y-13435412D01*
X13003515Y-13435412D02*
X12984467Y-13454460D01*
X12984467Y-13454460D02*
X12955896Y-13463984D01*
X12955896Y-13463984D02*
X12908277Y-13463984D01*
X13108277Y-13463984D02*
X13108277Y-13330650D01*
X13108277Y-13368746D02*
X13117801Y-13349698D01*
X13117801Y-13349698D02*
X13127324Y-13340174D01*
X13127324Y-13340174D02*
X13146372Y-13330650D01*
X13146372Y-13330650D02*
X13165420Y-13330650D01*
X13232086Y-13463984D02*
X13232086Y-13330650D01*
X13232086Y-13263984D02*
X13222562Y-13273508D01*
X13222562Y-13273508D02*
X13232086Y-13283031D01*
X13232086Y-13283031D02*
X13241610Y-13273508D01*
X13241610Y-13273508D02*
X13232086Y-13263984D01*
X13232086Y-13263984D02*
X13232086Y-13283031D01*
X13355896Y-13463984D02*
X13336848Y-13454460D01*
X13336848Y-13454460D02*
X13327324Y-13435412D01*
X13327324Y-13435412D02*
X13327324Y-13263984D01*
X13460658Y-13463984D02*
X13441610Y-13454460D01*
X13441610Y-13454460D02*
X13432086Y-13435412D01*
X13432086Y-13435412D02*
X13432086Y-13263984D01*
X13689229Y-13463984D02*
X13689229Y-13263984D01*
X13689229Y-13263984D02*
X13755896Y-13406841D01*
X13755896Y-13406841D02*
X13822562Y-13263984D01*
X13822562Y-13263984D02*
X13822562Y-13463984D01*
X14003515Y-13463984D02*
X14003515Y-13359222D01*
X14003515Y-13359222D02*
X13993991Y-13340174D01*
X13993991Y-13340174D02*
X13974943Y-13330650D01*
X13974943Y-13330650D02*
X13936848Y-13330650D01*
X13936848Y-13330650D02*
X13917801Y-13340174D01*
X14003515Y-13454460D02*
X13984467Y-13463984D01*
X13984467Y-13463984D02*
X13936848Y-13463984D01*
X13936848Y-13463984D02*
X13917801Y-13454460D01*
X13917801Y-13454460D02*
X13908277Y-13435412D01*
X13908277Y-13435412D02*
X13908277Y-13416365D01*
X13908277Y-13416365D02*
X13917801Y-13397317D01*
X13917801Y-13397317D02*
X13936848Y-13387793D01*
X13936848Y-13387793D02*
X13984467Y-13387793D01*
X13984467Y-13387793D02*
X14003515Y-13378269D01*
X14098753Y-13330650D02*
X14098753Y-13530650D01*
X14098753Y-13340174D02*
X14117801Y-13330650D01*
X14117801Y-13330650D02*
X14155896Y-13330650D01*
X14155896Y-13330650D02*
X14174943Y-13340174D01*
X14174943Y-13340174D02*
X14184467Y-13349698D01*
X14184467Y-13349698D02*
X14193991Y-13368746D01*
X14193991Y-13368746D02*
X14193991Y-13425888D01*
X14193991Y-13425888D02*
X14184467Y-13444936D01*
X14184467Y-13444936D02*
X14174943Y-13454460D01*
X14174943Y-13454460D02*
X14155896Y-13463984D01*
X14155896Y-13463984D02*
X14117801Y-13463984D01*
X14117801Y-13463984D02*
X14098753Y-13454460D01*
X14279705Y-13444936D02*
X14289229Y-13454460D01*
X14289229Y-13454460D02*
X14279705Y-13463984D01*
X14279705Y-13463984D02*
X14270182Y-13454460D01*
X14270182Y-13454460D02*
X14279705Y-13444936D01*
X14279705Y-13444936D02*
X14279705Y-13463984D01*
X14279705Y-13340174D02*
X14289229Y-13349698D01*
X14289229Y-13349698D02*
X14279705Y-13359222D01*
X14279705Y-13359222D02*
X14270182Y-13349698D01*
X14270182Y-13349698D02*
X14279705Y-13340174D01*
X14279705Y-13340174D02*
X14279705Y-13359222D01*
M02*
