%TF.GenerationSoftware,KiCad,Pcbnew,8.0.5*%
%TF.CreationDate,2025-01-21T17:20:08+01:00*%
%TF.ProjectId,Ingenuity,496e6765-6e75-4697-9479-2e6b69636164,rev?*%
%TF.SameCoordinates,Original*%
%TF.FileFunction,Copper,L2,Inr*%
%TF.FilePolarity,Positive*%
%FSLAX46Y46*%
G04 Gerber Fmt 4.6, Leading zero omitted, Abs format (unit mm)*
G04 Created by KiCad (PCBNEW 8.0.5) date 2025-01-21 17:20:08*
%MOMM*%
%LPD*%
G01*
G04 APERTURE LIST*
G04 Aperture macros list*
%AMRoundRect*
0 Rectangle with rounded corners*
0 $1 Rounding radius*
0 $2 $3 $4 $5 $6 $7 $8 $9 X,Y pos of 4 corners*
0 Add a 4 corners polygon primitive as box body*
4,1,4,$2,$3,$4,$5,$6,$7,$8,$9,$2,$3,0*
0 Add four circle primitives for the rounded corners*
1,1,$1+$1,$2,$3*
1,1,$1+$1,$4,$5*
1,1,$1+$1,$6,$7*
1,1,$1+$1,$8,$9*
0 Add four rect primitives between the rounded corners*
20,1,$1+$1,$2,$3,$4,$5,0*
20,1,$1+$1,$4,$5,$6,$7,0*
20,1,$1+$1,$6,$7,$8,$9,0*
20,1,$1+$1,$8,$9,$2,$3,0*%
G04 Aperture macros list end*
%TA.AperFunction,ComponentPad*%
%ADD10RoundRect,0.250000X0.725000X-0.600000X0.725000X0.600000X-0.725000X0.600000X-0.725000X-0.600000X0*%
%TD*%
%TA.AperFunction,ComponentPad*%
%ADD11O,1.950000X1.700000*%
%TD*%
%TA.AperFunction,ComponentPad*%
%ADD12R,1.700000X1.700000*%
%TD*%
%TA.AperFunction,ComponentPad*%
%ADD13O,1.700000X1.700000*%
%TD*%
%TA.AperFunction,ComponentPad*%
%ADD14C,4.700000*%
%TD*%
%TA.AperFunction,ComponentPad*%
%ADD15RoundRect,0.250000X-0.725000X0.600000X-0.725000X-0.600000X0.725000X-0.600000X0.725000X0.600000X0*%
%TD*%
%TA.AperFunction,ComponentPad*%
%ADD16RoundRect,0.250000X0.600000X0.725000X-0.600000X0.725000X-0.600000X-0.725000X0.600000X-0.725000X0*%
%TD*%
%TA.AperFunction,ComponentPad*%
%ADD17O,1.700000X1.950000*%
%TD*%
%TA.AperFunction,ComponentPad*%
%ADD18C,1.800000*%
%TD*%
%TA.AperFunction,ViaPad*%
%ADD19C,0.450000*%
%TD*%
G04 APERTURE END LIST*
D10*
%TO.N,GND*%
%TO.C,J5*%
X189500000Y-112500000D03*
D11*
%TO.N,+6V*%
X189500000Y-110000000D03*
%TO.N,PWM1*%
X189500000Y-107500000D03*
%TD*%
D12*
%TO.N,INT*%
%TO.C,J2*%
X139225000Y-108380000D03*
D13*
%TO.N,I2C1_SCL*%
X141765000Y-108380000D03*
%TO.N,+3.3V*%
X139225000Y-110920000D03*
%TO.N,I2C1_SDA*%
X141765000Y-110920000D03*
%TO.N,+3.3V*%
X139225000Y-113460000D03*
%TO.N,GND*%
X141765000Y-113460000D03*
%TO.N,unconnected-(J2-Pin_7-Pad7)*%
X139225000Y-116000000D03*
%TO.N,unconnected-(J2-Pin_8-Pad8)*%
X141765000Y-116000000D03*
%TO.N,unconnected-(J2-Pin_9-Pad9)*%
X139225000Y-118540000D03*
%TO.N,unconnected-(J2-Pin_10-Pad10)*%
X141765000Y-118540000D03*
%TD*%
D14*
%TO.N,GND*%
%TO.C,H1*%
X130500000Y-95000000D03*
%TD*%
D15*
%TO.N,GND*%
%TO.C,J4*%
X131025000Y-107500000D03*
D11*
%TO.N,unconnected-(J4-Pin_2-Pad2)*%
X131025000Y-110000000D03*
%TO.N,PWM2*%
X131025000Y-112500000D03*
%TD*%
D14*
%TO.N,GND*%
%TO.C,H4*%
X130500000Y-127500000D03*
%TD*%
D16*
%TO.N,Net-(J1-Pin_1)*%
%TO.C,J1*%
X149500000Y-95000000D03*
D17*
%TO.N,unconnected-(J1-Pin_2-Pad2)*%
X147000000Y-95000000D03*
%TO.N,unconnected-(J1-Pin_3-Pad3)*%
X144500000Y-95000000D03*
%TO.N,GND*%
X142000000Y-95000000D03*
%TD*%
D18*
%TO.N,+6V*%
%TO.C,U1*%
X181040000Y-110000000D03*
%TO.N,GND*%
X178500000Y-110000000D03*
%TO.N,+5V*%
X175960000Y-110000000D03*
%TD*%
D14*
%TO.N,GND*%
%TO.C,H2*%
X190500000Y-95000000D03*
%TD*%
%TO.N,GND*%
%TO.C,H3*%
X190500000Y-127500000D03*
%TD*%
D12*
%TO.N,unconnected-(J3-Pin_1-Pad1)*%
%TO.C,J3*%
X184740000Y-126000000D03*
D13*
%TO.N,+5V*%
X184740000Y-128540000D03*
%TO.N,unconnected-(J3-Pin_3-Pad3)*%
X182200000Y-126000000D03*
%TO.N,+5V*%
X182200000Y-128540000D03*
%TO.N,unconnected-(J3-Pin_5-Pad5)*%
X179660000Y-126000000D03*
%TO.N,GND*%
X179660000Y-128540000D03*
%TO.N,unconnected-(J3-Pin_7-Pad7)*%
X177120000Y-126000000D03*
%TO.N,USART2_RX*%
X177120000Y-128540000D03*
%TO.N,GND*%
X174580000Y-126000000D03*
%TO.N,USART2_TX*%
X174580000Y-128540000D03*
%TO.N,unconnected-(J3-Pin_11-Pad11)*%
X172040000Y-126000000D03*
%TO.N,unconnected-(J3-Pin_12-Pad12)*%
X172040000Y-128540000D03*
%TO.N,unconnected-(J3-Pin_13-Pad13)*%
X169500000Y-126000000D03*
%TO.N,GND*%
X169500000Y-128540000D03*
%TO.N,unconnected-(J3-Pin_15-Pad15)*%
X166960000Y-126000000D03*
%TO.N,unconnected-(J3-Pin_16-Pad16)*%
X166960000Y-128540000D03*
%TO.N,unconnected-(J3-Pin_17-Pad17)*%
X164420000Y-126000000D03*
%TO.N,unconnected-(J3-Pin_18-Pad18)*%
X164420000Y-128540000D03*
%TO.N,unconnected-(J3-Pin_19-Pad19)*%
X161880000Y-126000000D03*
%TO.N,GND*%
X161880000Y-128540000D03*
%TO.N,unconnected-(J3-Pin_21-Pad21)*%
X159340000Y-126000000D03*
%TO.N,unconnected-(J3-Pin_22-Pad22)*%
X159340000Y-128540000D03*
%TO.N,unconnected-(J3-Pin_23-Pad23)*%
X156800000Y-126000000D03*
%TO.N,unconnected-(J3-Pin_24-Pad24)*%
X156800000Y-128540000D03*
%TO.N,GND*%
X154260000Y-126000000D03*
%TO.N,unconnected-(J3-Pin_26-Pad26)*%
X154260000Y-128540000D03*
%TO.N,unconnected-(J3-Pin_27-Pad27)*%
X151720000Y-126000000D03*
%TO.N,unconnected-(J3-Pin_28-Pad28)*%
X151720000Y-128540000D03*
%TO.N,unconnected-(J3-Pin_29-Pad29)*%
X149180000Y-126000000D03*
%TO.N,GND*%
X149180000Y-128540000D03*
%TO.N,unconnected-(J3-Pin_31-Pad31)*%
X146640000Y-126000000D03*
%TO.N,unconnected-(J3-Pin_32-Pad32)*%
X146640000Y-128540000D03*
%TO.N,unconnected-(J3-Pin_33-Pad33)*%
X144100000Y-126000000D03*
%TO.N,GND*%
X144100000Y-128540000D03*
%TO.N,unconnected-(J3-Pin_35-Pad35)*%
X141560000Y-126000000D03*
%TO.N,unconnected-(J3-Pin_36-Pad36)*%
X141560000Y-128540000D03*
%TO.N,unconnected-(J3-Pin_37-Pad37)*%
X139020000Y-126000000D03*
%TO.N,unconnected-(J3-Pin_38-Pad38)*%
X139020000Y-128540000D03*
%TO.N,GND*%
X136480000Y-126000000D03*
%TO.N,unconnected-(J3-Pin_40-Pad40)*%
X136480000Y-128540000D03*
%TD*%
D19*
%TO.N,NRST*%
X176100000Y-97100000D03*
X158000000Y-103500000D03*
%TO.N,+3.3V*%
X185700000Y-100100000D03*
X173900000Y-97600000D03*
X168400000Y-108400000D03*
X158600000Y-105500000D03*
X158900000Y-100900000D03*
X159900000Y-100900000D03*
X164100000Y-119800000D03*
X174000000Y-99600000D03*
X166200000Y-119800000D03*
%TO.N,TENSION_BATTERIE*%
X165300000Y-110500000D03*
X152400000Y-100800000D03*
%TO.N,PWM1*%
X162900000Y-106200000D03*
%TO.N,USART1_RX*%
X182200000Y-94000000D03*
X169800000Y-105500000D03*
%TO.N,USART1_TX*%
X176900000Y-94400000D03*
X170900000Y-103300000D03*
%TO.N,SPI_CS*%
X166700000Y-116100000D03*
X163000000Y-116600000D03*
%TO.N,SPI1_SCK*%
X165200000Y-115800000D03*
X163100000Y-115100000D03*
%TO.N,GND*%
X137300000Y-96200000D03*
X183100000Y-103100000D03*
X157800000Y-116000000D03*
X184100000Y-123900000D03*
X158900000Y-98900000D03*
X166900000Y-93012500D03*
X193300000Y-107100000D03*
X162900000Y-121300000D03*
X193239623Y-101779308D03*
X165400000Y-119700000D03*
X169800000Y-104600000D03*
X142700000Y-117300000D03*
X131900000Y-101800000D03*
X193300000Y-111500000D03*
X188800000Y-104100000D03*
X175000000Y-100900000D03*
X180600000Y-120400000D03*
X184200000Y-118900000D03*
X147105097Y-122184465D03*
X176000000Y-99800000D03*
X161100000Y-123400000D03*
X137900000Y-109900000D03*
X185700000Y-98200000D03*
X161367005Y-93581197D03*
X159500000Y-97700000D03*
X141800000Y-102100000D03*
X148200000Y-109400000D03*
X166200000Y-115200000D03*
X149000000Y-100000000D03*
X160900000Y-98800000D03*
X191500000Y-105500000D03*
X138100000Y-101400000D03*
X147586635Y-117401486D03*
X181900000Y-95500000D03*
X156100000Y-94900000D03*
X174600000Y-122000000D03*
X153709966Y-116506538D03*
X190600000Y-122100000D03*
X137900000Y-114800000D03*
X135473725Y-93571419D03*
X172900000Y-105100000D03*
X174800000Y-117500000D03*
X172500000Y-102900000D03*
X132200000Y-115300000D03*
X192000000Y-113800000D03*
X140500000Y-117100000D03*
X138000000Y-117200000D03*
X155800000Y-117600000D03*
X131200000Y-120700000D03*
X168900000Y-93012500D03*
X142900000Y-112100000D03*
X157600000Y-114400000D03*
X188801517Y-99685861D03*
X192400000Y-109600000D03*
X181900000Y-101200000D03*
X138200000Y-105500000D03*
X159900000Y-98900000D03*
X140600000Y-114700000D03*
X169283859Y-114678549D03*
X187300000Y-120900000D03*
X130100000Y-115300000D03*
X191800000Y-116800000D03*
X183700000Y-113200000D03*
X173200000Y-93012500D03*
X158328891Y-92592043D03*
X152100000Y-123000000D03*
X153000000Y-98500000D03*
X142700000Y-114900000D03*
X181900000Y-98000000D03*
X167600000Y-109700000D03*
X163400000Y-118200000D03*
X174500000Y-108700000D03*
X172900000Y-100200000D03*
X189100000Y-118100000D03*
X178700000Y-106300000D03*
X165100000Y-120500000D03*
X156500000Y-105000000D03*
X152000000Y-101600000D03*
X147113288Y-98867839D03*
X174100000Y-113000000D03*
X170853943Y-119859830D03*
X178300000Y-113000000D03*
X175000000Y-105100000D03*
X156051092Y-121807645D03*
X178000000Y-100000000D03*
X186994416Y-117002275D03*
X142700000Y-122100000D03*
%TD*%
%TA.AperFunction,Conductor*%
%TO.N,GND*%
G36*
X190503032Y-91500648D02*
G01*
X190836929Y-91517052D01*
X190849037Y-91518245D01*
X190952146Y-91533539D01*
X191176699Y-91566849D01*
X191188617Y-91569219D01*
X191509951Y-91649709D01*
X191521588Y-91653240D01*
X191592806Y-91678722D01*
X191833467Y-91764832D01*
X191844688Y-91769479D01*
X192144163Y-91911120D01*
X192154871Y-91916844D01*
X192438988Y-92087137D01*
X192449106Y-92093897D01*
X192715170Y-92291224D01*
X192724576Y-92298944D01*
X192970013Y-92521395D01*
X192978604Y-92529986D01*
X193141823Y-92710070D01*
X193201055Y-92775423D01*
X193208775Y-92784829D01*
X193406102Y-93050893D01*
X193412862Y-93061011D01*
X193541776Y-93276092D01*
X193583148Y-93345116D01*
X193588883Y-93355844D01*
X193728008Y-93650000D01*
X193730514Y-93655297D01*
X193735170Y-93666540D01*
X193846759Y-93978411D01*
X193850292Y-93990055D01*
X193930777Y-94311369D01*
X193933151Y-94323305D01*
X193981754Y-94650962D01*
X193982947Y-94663071D01*
X193999351Y-94996966D01*
X193999500Y-95003051D01*
X193999500Y-127496948D01*
X193999351Y-127503033D01*
X193982947Y-127836928D01*
X193981754Y-127849037D01*
X193933151Y-128176694D01*
X193930777Y-128188630D01*
X193850292Y-128509944D01*
X193846759Y-128521588D01*
X193735170Y-128833459D01*
X193730514Y-128844702D01*
X193588885Y-129144151D01*
X193583148Y-129154883D01*
X193412862Y-129438988D01*
X193406102Y-129449106D01*
X193208775Y-129715170D01*
X193201055Y-129724576D01*
X192978611Y-129970006D01*
X192970006Y-129978611D01*
X192724576Y-130201055D01*
X192715170Y-130208775D01*
X192449106Y-130406102D01*
X192438988Y-130412862D01*
X192154883Y-130583148D01*
X192144151Y-130588885D01*
X191844702Y-130730514D01*
X191833459Y-130735170D01*
X191521588Y-130846759D01*
X191509944Y-130850292D01*
X191188630Y-130930777D01*
X191176694Y-130933151D01*
X190849037Y-130981754D01*
X190836928Y-130982947D01*
X190521989Y-130998419D01*
X190503031Y-130999351D01*
X190496949Y-130999500D01*
X130503051Y-130999500D01*
X130496968Y-130999351D01*
X130476900Y-130998365D01*
X130163071Y-130982947D01*
X130150962Y-130981754D01*
X129823305Y-130933151D01*
X129811369Y-130930777D01*
X129490055Y-130850292D01*
X129478411Y-130846759D01*
X129166540Y-130735170D01*
X129155301Y-130730515D01*
X128855844Y-130588883D01*
X128845121Y-130583150D01*
X128561011Y-130412862D01*
X128550893Y-130406102D01*
X128284829Y-130208775D01*
X128275423Y-130201055D01*
X128187482Y-130121350D01*
X128029986Y-129978604D01*
X128021395Y-129970013D01*
X127798944Y-129724576D01*
X127791224Y-129715170D01*
X127790060Y-129713600D01*
X127593895Y-129449103D01*
X127587137Y-129438988D01*
X127570411Y-129411082D01*
X127416844Y-129154871D01*
X127411120Y-129144163D01*
X127269479Y-128844688D01*
X127264829Y-128833459D01*
X127258853Y-128816758D01*
X127183381Y-128605826D01*
X127153240Y-128521588D01*
X127149707Y-128509944D01*
X127069219Y-128188617D01*
X127066848Y-128176694D01*
X127061390Y-128139901D01*
X127018245Y-127849037D01*
X127017052Y-127836927D01*
X127000649Y-127503032D01*
X127000575Y-127499996D01*
X127645170Y-127499996D01*
X127645170Y-127500003D01*
X127664473Y-127831426D01*
X127664474Y-127831437D01*
X127722118Y-128158351D01*
X127722121Y-128158365D01*
X127817336Y-128476408D01*
X127948827Y-128781236D01*
X127948833Y-128781249D01*
X128114824Y-129068755D01*
X128312357Y-129334087D01*
X129384727Y-128261716D01*
X129470278Y-128379466D01*
X129620534Y-128529722D01*
X129738281Y-128615270D01*
X128669289Y-129684263D01*
X128795215Y-129789925D01*
X129072588Y-129972356D01*
X129369252Y-130121347D01*
X129369258Y-130121350D01*
X129681213Y-130234892D01*
X129681234Y-130234899D01*
X130004248Y-130311456D01*
X130004263Y-130311458D01*
X130334012Y-130349999D01*
X130334013Y-130350000D01*
X130665987Y-130350000D01*
X130665987Y-130349999D01*
X130995736Y-130311458D01*
X130995751Y-130311456D01*
X131318765Y-130234899D01*
X131318786Y-130234892D01*
X131630741Y-130121350D01*
X131630747Y-130121347D01*
X131927411Y-129972356D01*
X132204789Y-129789922D01*
X132330708Y-129684263D01*
X132330709Y-129684262D01*
X131261718Y-128615270D01*
X131379466Y-128529722D01*
X131529722Y-128379466D01*
X131615270Y-128261718D01*
X132687641Y-129334088D01*
X132885175Y-129068756D01*
X133051166Y-128781249D01*
X133051172Y-128781236D01*
X133182663Y-128476408D01*
X133277878Y-128158365D01*
X133277881Y-128158351D01*
X133335525Y-127831437D01*
X133335526Y-127831426D01*
X133354830Y-127500003D01*
X133354830Y-127499996D01*
X133335526Y-127168573D01*
X133335525Y-127168562D01*
X133277881Y-126841648D01*
X133277878Y-126841634D01*
X133182663Y-126523591D01*
X133051172Y-126218763D01*
X133051166Y-126218750D01*
X132885172Y-125931239D01*
X132750244Y-125749999D01*
X135149364Y-125749999D01*
X135149364Y-125750000D01*
X136046988Y-125750000D01*
X136014075Y-125807007D01*
X135980000Y-125934174D01*
X135980000Y-126065826D01*
X136014075Y-126192993D01*
X136046988Y-126250000D01*
X135149364Y-126250000D01*
X135206567Y-126463486D01*
X135206570Y-126463492D01*
X135306399Y-126677578D01*
X135441894Y-126871082D01*
X135608917Y-127038105D01*
X135802421Y-127173600D01*
X136001573Y-127266466D01*
X136054012Y-127312638D01*
X136073164Y-127379832D01*
X136052948Y-127446713D01*
X135999783Y-127492048D01*
X135993968Y-127494472D01*
X135987578Y-127496948D01*
X135964982Y-127505701D01*
X135964980Y-127505702D01*
X135783699Y-127617947D01*
X135626127Y-127761593D01*
X135497632Y-127931746D01*
X135402596Y-128122605D01*
X135402596Y-128122607D01*
X135344244Y-128327689D01*
X135330464Y-128476408D01*
X135324571Y-128540000D01*
X135344244Y-128752310D01*
X135397675Y-128940099D01*
X135402596Y-128957392D01*
X135402596Y-128957394D01*
X135497632Y-129148253D01*
X135554765Y-129223908D01*
X135626128Y-129318407D01*
X135783698Y-129462052D01*
X135964981Y-129574298D01*
X136163802Y-129651321D01*
X136373390Y-129690500D01*
X136373392Y-129690500D01*
X136586608Y-129690500D01*
X136586610Y-129690500D01*
X136796198Y-129651321D01*
X136995019Y-129574298D01*
X137176302Y-129462052D01*
X137333872Y-129318407D01*
X137462366Y-129148255D01*
X137464410Y-129144151D01*
X137557403Y-128957394D01*
X137557403Y-128957393D01*
X137557405Y-128957389D01*
X137615756Y-128752310D01*
X137626529Y-128636047D01*
X137652315Y-128571111D01*
X137696869Y-128539194D01*
X137660497Y-128518331D01*
X137628307Y-128456318D01*
X137626529Y-128443951D01*
X137625849Y-128436613D01*
X137615756Y-128327690D01*
X137557405Y-128122611D01*
X137557403Y-128122606D01*
X137557403Y-128122605D01*
X137462367Y-127931746D01*
X137333872Y-127761593D01*
X137262464Y-127696496D01*
X137176302Y-127617948D01*
X136995019Y-127505702D01*
X136995014Y-127505700D01*
X136972422Y-127496948D01*
X136966037Y-127494474D01*
X136910636Y-127451903D01*
X136887045Y-127386136D01*
X136902756Y-127318056D01*
X136952779Y-127269276D01*
X136958426Y-127266466D01*
X137157578Y-127173599D01*
X137351082Y-127038105D01*
X137518105Y-126871082D01*
X137653600Y-126677578D01*
X137747294Y-126476651D01*
X137793466Y-126424212D01*
X137860660Y-126405060D01*
X137927541Y-126425276D01*
X137970676Y-126473785D01*
X138037632Y-126608253D01*
X138166127Y-126778406D01*
X138166128Y-126778407D01*
X138323698Y-126922052D01*
X138504981Y-127034298D01*
X138703802Y-127111321D01*
X138900613Y-127148111D01*
X138962893Y-127179779D01*
X138998166Y-127240092D01*
X138995232Y-127309900D01*
X138955023Y-127367040D01*
X138900613Y-127391888D01*
X138703802Y-127428679D01*
X138703799Y-127428679D01*
X138703799Y-127428680D01*
X138504982Y-127505701D01*
X138504980Y-127505702D01*
X138323699Y-127617947D01*
X138166127Y-127761593D01*
X138037632Y-127931746D01*
X137942596Y-128122605D01*
X137942596Y-128122607D01*
X137884244Y-128327689D01*
X137873471Y-128443951D01*
X137847685Y-128508888D01*
X137803130Y-128540804D01*
X137839503Y-128561668D01*
X137871693Y-128623681D01*
X137873470Y-128636047D01*
X137884244Y-128752310D01*
X137937675Y-128940099D01*
X137942596Y-128957392D01*
X137942596Y-128957394D01*
X138037632Y-129148253D01*
X138094765Y-129223908D01*
X138166128Y-129318407D01*
X138323698Y-129462052D01*
X138504981Y-129574298D01*
X138703802Y-129651321D01*
X138913390Y-129690500D01*
X138913392Y-129690500D01*
X139126608Y-129690500D01*
X139126610Y-129690500D01*
X139336198Y-129651321D01*
X139535019Y-129574298D01*
X139716302Y-129462052D01*
X139873872Y-129318407D01*
X140002366Y-129148255D01*
X140004410Y-129144151D01*
X140097403Y-128957394D01*
X140097403Y-128957393D01*
X140097405Y-128957389D01*
X140155756Y-128752310D01*
X140166529Y-128636047D01*
X140192315Y-128571111D01*
X140236869Y-128539194D01*
X140200497Y-128518331D01*
X140168307Y-128456318D01*
X140166529Y-128443951D01*
X140165849Y-128436613D01*
X140155756Y-128327690D01*
X140097405Y-128122611D01*
X140097403Y-128122606D01*
X140097403Y-128122605D01*
X140002367Y-127931746D01*
X139873872Y-127761593D01*
X139802464Y-127696496D01*
X139716302Y-127617948D01*
X139535019Y-127505702D01*
X139535017Y-127505701D01*
X139435608Y-127467190D01*
X139336198Y-127428679D01*
X139139385Y-127391888D01*
X139077106Y-127360221D01*
X139041833Y-127299908D01*
X139044767Y-127230100D01*
X139084976Y-127172960D01*
X139139384Y-127148111D01*
X139336198Y-127111321D01*
X139535019Y-127034298D01*
X139716302Y-126922052D01*
X139873872Y-126778407D01*
X140002366Y-126608255D01*
X140056270Y-126500000D01*
X140097403Y-126417394D01*
X140097403Y-126417393D01*
X140097405Y-126417389D01*
X140155756Y-126212310D01*
X140166529Y-126096047D01*
X140192315Y-126031111D01*
X140234622Y-126000804D01*
X140343130Y-126000804D01*
X140379503Y-126021668D01*
X140411693Y-126083681D01*
X140413470Y-126096047D01*
X140424244Y-126212310D01*
X140477675Y-126400099D01*
X140482596Y-126417392D01*
X140482596Y-126417394D01*
X140577632Y-126608253D01*
X140706127Y-126778406D01*
X140706128Y-126778407D01*
X140863698Y-126922052D01*
X141044981Y-127034298D01*
X141243802Y-127111321D01*
X141440613Y-127148111D01*
X141502893Y-127179779D01*
X141538166Y-127240092D01*
X141535232Y-127309900D01*
X141495023Y-127367040D01*
X141440613Y-127391888D01*
X141243802Y-127428679D01*
X141243799Y-127428679D01*
X141243799Y-127428680D01*
X141044982Y-127505701D01*
X141044980Y-127505702D01*
X140863699Y-127617947D01*
X140706127Y-127761593D01*
X140577632Y-127931746D01*
X140482596Y-128122605D01*
X140482596Y-128122607D01*
X140424244Y-128327689D01*
X140413471Y-128443951D01*
X140387685Y-128508888D01*
X140343130Y-128540804D01*
X140379503Y-128561668D01*
X140411693Y-128623681D01*
X140413470Y-128636047D01*
X140424244Y-128752310D01*
X140477675Y-128940099D01*
X140482596Y-128957392D01*
X140482596Y-128957394D01*
X140577632Y-129148253D01*
X140634765Y-129223908D01*
X140706128Y-129318407D01*
X140863698Y-129462052D01*
X141044981Y-129574298D01*
X141243802Y-129651321D01*
X141453390Y-129690500D01*
X141453392Y-129690500D01*
X141666608Y-129690500D01*
X141666610Y-129690500D01*
X141876198Y-129651321D01*
X142075019Y-129574298D01*
X142256302Y-129462052D01*
X142413872Y-129318407D01*
X142542366Y-129148255D01*
X142609325Y-129013781D01*
X142656825Y-128962548D01*
X142724488Y-128945126D01*
X142790828Y-128967051D01*
X142832705Y-129016651D01*
X142926399Y-129217578D01*
X143061894Y-129411082D01*
X143228917Y-129578105D01*
X143422421Y-129713600D01*
X143636507Y-129813429D01*
X143636516Y-129813433D01*
X143850000Y-129870634D01*
X143850000Y-128973012D01*
X143907007Y-129005925D01*
X144034174Y-129040000D01*
X144165826Y-129040000D01*
X144292993Y-129005925D01*
X144350000Y-128973012D01*
X144350000Y-129870633D01*
X144563483Y-129813433D01*
X144563492Y-129813429D01*
X144777578Y-129713600D01*
X144971082Y-129578105D01*
X145138105Y-129411082D01*
X145273600Y-129217578D01*
X145367294Y-129016651D01*
X145413466Y-128964212D01*
X145480660Y-128945060D01*
X145547541Y-128965276D01*
X145590676Y-129013785D01*
X145657632Y-129148253D01*
X145714765Y-129223908D01*
X145786128Y-129318407D01*
X145943698Y-129462052D01*
X146124981Y-129574298D01*
X146323802Y-129651321D01*
X146533390Y-129690500D01*
X146533392Y-129690500D01*
X146746608Y-129690500D01*
X146746610Y-129690500D01*
X146956198Y-129651321D01*
X147155019Y-129574298D01*
X147336302Y-129462052D01*
X147493872Y-129318407D01*
X147622366Y-129148255D01*
X147689325Y-129013781D01*
X147736825Y-128962548D01*
X147804488Y-128945126D01*
X147870828Y-128967051D01*
X147912705Y-129016651D01*
X148006399Y-129217578D01*
X148141894Y-129411082D01*
X148308917Y-129578105D01*
X148502421Y-129713600D01*
X148716507Y-129813429D01*
X148716516Y-129813433D01*
X148930000Y-129870634D01*
X148930000Y-128973012D01*
X148987007Y-129005925D01*
X149114174Y-129040000D01*
X149245826Y-129040000D01*
X149372993Y-129005925D01*
X149430000Y-128973012D01*
X149430000Y-129870634D01*
X149643483Y-129813433D01*
X149643492Y-129813429D01*
X149857578Y-129713600D01*
X150051082Y-129578105D01*
X150218105Y-129411082D01*
X150353600Y-129217578D01*
X150447294Y-129016651D01*
X150493466Y-128964212D01*
X150560660Y-128945060D01*
X150627541Y-128965276D01*
X150670676Y-129013785D01*
X150737632Y-129148253D01*
X150794765Y-129223908D01*
X150866128Y-129318407D01*
X151023698Y-129462052D01*
X151204981Y-129574298D01*
X151403802Y-129651321D01*
X151613390Y-129690500D01*
X151613392Y-129690500D01*
X151826608Y-129690500D01*
X151826610Y-129690500D01*
X152036198Y-129651321D01*
X152235019Y-129574298D01*
X152416302Y-129462052D01*
X152573872Y-129318407D01*
X152702366Y-129148255D01*
X152704410Y-129144151D01*
X152797403Y-128957394D01*
X152797403Y-128957393D01*
X152797405Y-128957389D01*
X152855756Y-128752310D01*
X152866529Y-128636047D01*
X152892315Y-128571111D01*
X152936869Y-128539194D01*
X152900497Y-128518331D01*
X152868307Y-128456318D01*
X152866529Y-128443951D01*
X152865849Y-128436613D01*
X152855756Y-128327690D01*
X152797405Y-128122611D01*
X152797403Y-128122606D01*
X152797403Y-128122605D01*
X152702367Y-127931746D01*
X152573872Y-127761593D01*
X152502464Y-127696496D01*
X152416302Y-127617948D01*
X152235019Y-127505702D01*
X152235017Y-127505701D01*
X152135608Y-127467190D01*
X152036198Y-127428679D01*
X151839385Y-127391888D01*
X151777106Y-127360221D01*
X151741833Y-127299908D01*
X151744767Y-127230100D01*
X151784976Y-127172960D01*
X151839384Y-127148111D01*
X152036198Y-127111321D01*
X152235019Y-127034298D01*
X152416302Y-126922052D01*
X152573872Y-126778407D01*
X152702366Y-126608255D01*
X152769325Y-126473781D01*
X152816825Y-126422548D01*
X152884488Y-126405126D01*
X152950828Y-126427051D01*
X152992705Y-126476651D01*
X153086399Y-126677578D01*
X153221894Y-126871082D01*
X153388917Y-127038105D01*
X153582421Y-127173600D01*
X153781573Y-127266466D01*
X153834012Y-127312638D01*
X153853164Y-127379832D01*
X153832948Y-127446713D01*
X153779783Y-127492048D01*
X153773968Y-127494472D01*
X153767578Y-127496948D01*
X153744982Y-127505701D01*
X153744980Y-127505702D01*
X153563699Y-127617947D01*
X153406127Y-127761593D01*
X153277632Y-127931746D01*
X153182596Y-128122605D01*
X153182596Y-128122607D01*
X153124244Y-128327689D01*
X153113471Y-128443951D01*
X153087685Y-128508888D01*
X153043130Y-128540804D01*
X153079503Y-128561668D01*
X153111693Y-128623681D01*
X153113470Y-128636047D01*
X153124244Y-128752310D01*
X153177675Y-128940099D01*
X153182596Y-128957392D01*
X153182596Y-128957394D01*
X153277632Y-129148253D01*
X153334765Y-129223908D01*
X153406128Y-129318407D01*
X153563698Y-129462052D01*
X153744981Y-129574298D01*
X153943802Y-129651321D01*
X154153390Y-129690500D01*
X154153392Y-129690500D01*
X154366608Y-129690500D01*
X154366610Y-129690500D01*
X154576198Y-129651321D01*
X154775019Y-129574298D01*
X154956302Y-129462052D01*
X155113872Y-129318407D01*
X155242366Y-129148255D01*
X155244410Y-129144151D01*
X155337403Y-128957394D01*
X155337403Y-128957393D01*
X155337405Y-128957389D01*
X155395756Y-128752310D01*
X155406529Y-128636047D01*
X155432315Y-128571111D01*
X155476869Y-128539194D01*
X155440497Y-128518331D01*
X155408307Y-128456318D01*
X155406529Y-128443951D01*
X155405849Y-128436613D01*
X155395756Y-128327690D01*
X155337405Y-128122611D01*
X155337403Y-128122606D01*
X155337403Y-128122605D01*
X155242367Y-127931746D01*
X155113872Y-127761593D01*
X155042464Y-127696496D01*
X154956302Y-127617948D01*
X154775019Y-127505702D01*
X154775014Y-127505700D01*
X154752422Y-127496948D01*
X154746037Y-127494474D01*
X154690636Y-127451903D01*
X154667045Y-127386136D01*
X154682756Y-127318056D01*
X154732779Y-127269276D01*
X154738426Y-127266466D01*
X154937578Y-127173599D01*
X155131082Y-127038105D01*
X155298105Y-126871082D01*
X155433600Y-126677578D01*
X155527294Y-126476651D01*
X155573466Y-126424212D01*
X155640660Y-126405060D01*
X155707541Y-126425276D01*
X155750676Y-126473785D01*
X155817632Y-126608253D01*
X155946127Y-126778406D01*
X155946128Y-126778407D01*
X156103698Y-126922052D01*
X156284981Y-127034298D01*
X156483802Y-127111321D01*
X156680613Y-127148111D01*
X156742893Y-127179779D01*
X156778166Y-127240092D01*
X156775232Y-127309900D01*
X156735023Y-127367040D01*
X156680613Y-127391888D01*
X156483802Y-127428679D01*
X156483799Y-127428679D01*
X156483799Y-127428680D01*
X156284982Y-127505701D01*
X156284980Y-127505702D01*
X156103699Y-127617947D01*
X155946127Y-127761593D01*
X155817632Y-127931746D01*
X155722596Y-128122605D01*
X155722596Y-128122607D01*
X155664244Y-128327689D01*
X155653471Y-128443951D01*
X155627685Y-128508888D01*
X155583130Y-128540804D01*
X155619503Y-128561668D01*
X155651693Y-128623681D01*
X155653470Y-128636047D01*
X155664244Y-128752310D01*
X155717675Y-128940099D01*
X155722596Y-128957392D01*
X155722596Y-128957394D01*
X155817632Y-129148253D01*
X155874765Y-129223908D01*
X155946128Y-129318407D01*
X156103698Y-129462052D01*
X156284981Y-129574298D01*
X156483802Y-129651321D01*
X156693390Y-129690500D01*
X156693392Y-129690500D01*
X156906608Y-129690500D01*
X156906610Y-129690500D01*
X157116198Y-129651321D01*
X157315019Y-129574298D01*
X157496302Y-129462052D01*
X157653872Y-129318407D01*
X157782366Y-129148255D01*
X157784410Y-129144151D01*
X157877403Y-128957394D01*
X157877403Y-128957393D01*
X157877405Y-128957389D01*
X157935756Y-128752310D01*
X157946529Y-128636047D01*
X157972315Y-128571111D01*
X158016869Y-128539194D01*
X157980497Y-128518331D01*
X157948307Y-128456318D01*
X157946529Y-128443951D01*
X157945849Y-128436613D01*
X157935756Y-128327690D01*
X157877405Y-128122611D01*
X157877403Y-128122606D01*
X157877403Y-128122605D01*
X157782367Y-127931746D01*
X157653872Y-127761593D01*
X157582464Y-127696496D01*
X157496302Y-127617948D01*
X157315019Y-127505702D01*
X157315017Y-127505701D01*
X157215608Y-127467190D01*
X157116198Y-127428679D01*
X156919385Y-127391888D01*
X156857106Y-127360221D01*
X156821833Y-127299908D01*
X156824767Y-127230100D01*
X156864976Y-127172960D01*
X156919384Y-127148111D01*
X157116198Y-127111321D01*
X157315019Y-127034298D01*
X157496302Y-126922052D01*
X157653872Y-126778407D01*
X157782366Y-126608255D01*
X157836270Y-126500000D01*
X157877403Y-126417394D01*
X157877403Y-126417393D01*
X157877405Y-126417389D01*
X157935756Y-126212310D01*
X157946529Y-126096047D01*
X157972315Y-126031111D01*
X158014622Y-126000804D01*
X158123130Y-126000804D01*
X158159503Y-126021668D01*
X158191693Y-126083681D01*
X158193470Y-126096047D01*
X158204244Y-126212310D01*
X158257675Y-126400099D01*
X158262596Y-126417392D01*
X158262596Y-126417394D01*
X158357632Y-126608253D01*
X158486127Y-126778406D01*
X158486128Y-126778407D01*
X158643698Y-126922052D01*
X158824981Y-127034298D01*
X159023802Y-127111321D01*
X159220613Y-127148111D01*
X159282893Y-127179779D01*
X159318166Y-127240092D01*
X159315232Y-127309900D01*
X159275023Y-127367040D01*
X159220613Y-127391888D01*
X159023802Y-127428679D01*
X159023799Y-127428679D01*
X159023799Y-127428680D01*
X158824982Y-127505701D01*
X158824980Y-127505702D01*
X158643699Y-127617947D01*
X158486127Y-127761593D01*
X158357632Y-127931746D01*
X158262596Y-128122605D01*
X158262596Y-128122607D01*
X158204244Y-128327689D01*
X158193471Y-128443951D01*
X158167685Y-128508888D01*
X158123130Y-128540804D01*
X158159503Y-128561668D01*
X158191693Y-128623681D01*
X158193470Y-128636047D01*
X158204244Y-128752310D01*
X158257675Y-128940099D01*
X158262596Y-128957392D01*
X158262596Y-128957394D01*
X158357632Y-129148253D01*
X158414765Y-129223908D01*
X158486128Y-129318407D01*
X158643698Y-129462052D01*
X158824981Y-129574298D01*
X159023802Y-129651321D01*
X159233390Y-129690500D01*
X159233392Y-129690500D01*
X159446608Y-129690500D01*
X159446610Y-129690500D01*
X159656198Y-129651321D01*
X159855019Y-129574298D01*
X160036302Y-129462052D01*
X160193872Y-129318407D01*
X160322366Y-129148255D01*
X160389325Y-129013781D01*
X160436825Y-128962548D01*
X160504488Y-128945126D01*
X160570828Y-128967051D01*
X160612705Y-129016651D01*
X160706399Y-129217578D01*
X160841894Y-129411082D01*
X161008917Y-129578105D01*
X161202421Y-129713600D01*
X161416507Y-129813429D01*
X161416516Y-129813433D01*
X161630000Y-129870634D01*
X161630000Y-128973012D01*
X161687007Y-129005925D01*
X161814174Y-129040000D01*
X161945826Y-129040000D01*
X162072993Y-129005925D01*
X162130000Y-128973012D01*
X162130000Y-129870634D01*
X162343483Y-129813433D01*
X162343492Y-129813429D01*
X162557578Y-129713600D01*
X162751082Y-129578105D01*
X162918105Y-129411082D01*
X163053600Y-129217578D01*
X163147294Y-129016651D01*
X163193466Y-128964212D01*
X163260660Y-128945060D01*
X163327541Y-128965276D01*
X163370676Y-129013785D01*
X163437632Y-129148253D01*
X163494765Y-129223908D01*
X163566128Y-129318407D01*
X163723698Y-129462052D01*
X163904981Y-129574298D01*
X164103802Y-129651321D01*
X164313390Y-129690500D01*
X164313392Y-129690500D01*
X164526608Y-129690500D01*
X164526610Y-129690500D01*
X164736198Y-129651321D01*
X164935019Y-129574298D01*
X165116302Y-129462052D01*
X165273872Y-129318407D01*
X165402366Y-129148255D01*
X165404410Y-129144151D01*
X165497403Y-128957394D01*
X165497403Y-128957393D01*
X165497405Y-128957389D01*
X165555756Y-128752310D01*
X165566529Y-128636047D01*
X165592315Y-128571111D01*
X165636869Y-128539194D01*
X165600497Y-128518331D01*
X165568307Y-128456318D01*
X165566529Y-128443951D01*
X165565849Y-128436613D01*
X165555756Y-128327690D01*
X165497405Y-128122611D01*
X165497403Y-128122606D01*
X165497403Y-128122605D01*
X165402367Y-127931746D01*
X165273872Y-127761593D01*
X165202464Y-127696496D01*
X165116302Y-127617948D01*
X164935019Y-127505702D01*
X164935017Y-127505701D01*
X164835608Y-127467190D01*
X164736198Y-127428679D01*
X164539385Y-127391888D01*
X164477106Y-127360221D01*
X164441833Y-127299908D01*
X164444767Y-127230100D01*
X164484976Y-127172960D01*
X164539384Y-127148111D01*
X164736198Y-127111321D01*
X164935019Y-127034298D01*
X165116302Y-126922052D01*
X165273872Y-126778407D01*
X165402366Y-126608255D01*
X165456270Y-126500000D01*
X165497403Y-126417394D01*
X165497403Y-126417393D01*
X165497405Y-126417389D01*
X165555756Y-126212310D01*
X165566529Y-126096047D01*
X165592315Y-126031111D01*
X165634622Y-126000804D01*
X165743130Y-126000804D01*
X165779503Y-126021668D01*
X165811693Y-126083681D01*
X165813470Y-126096047D01*
X165824244Y-126212310D01*
X165877675Y-126400099D01*
X165882596Y-126417392D01*
X165882596Y-126417394D01*
X165977632Y-126608253D01*
X166106127Y-126778406D01*
X166106128Y-126778407D01*
X166263698Y-126922052D01*
X166444981Y-127034298D01*
X166643802Y-127111321D01*
X166840613Y-127148111D01*
X166902893Y-127179779D01*
X166938166Y-127240092D01*
X166935232Y-127309900D01*
X166895023Y-127367040D01*
X166840613Y-127391888D01*
X166643802Y-127428679D01*
X166643799Y-127428679D01*
X166643799Y-127428680D01*
X166444982Y-127505701D01*
X166444980Y-127505702D01*
X166263699Y-127617947D01*
X166106127Y-127761593D01*
X165977632Y-127931746D01*
X165882596Y-128122605D01*
X165882596Y-128122607D01*
X165824244Y-128327689D01*
X165813471Y-128443951D01*
X165787685Y-128508888D01*
X165743130Y-128540804D01*
X165779503Y-128561668D01*
X165811693Y-128623681D01*
X165813470Y-128636047D01*
X165824244Y-128752310D01*
X165877675Y-128940099D01*
X165882596Y-128957392D01*
X165882596Y-128957394D01*
X165977632Y-129148253D01*
X166034765Y-129223908D01*
X166106128Y-129318407D01*
X166263698Y-129462052D01*
X166444981Y-129574298D01*
X166643802Y-129651321D01*
X166853390Y-129690500D01*
X166853392Y-129690500D01*
X167066608Y-129690500D01*
X167066610Y-129690500D01*
X167276198Y-129651321D01*
X167475019Y-129574298D01*
X167656302Y-129462052D01*
X167813872Y-129318407D01*
X167942366Y-129148255D01*
X168009325Y-129013781D01*
X168056825Y-128962548D01*
X168124488Y-128945126D01*
X168190828Y-128967051D01*
X168232705Y-129016651D01*
X168326399Y-129217578D01*
X168461894Y-129411082D01*
X168628917Y-129578105D01*
X168822421Y-129713600D01*
X169036507Y-129813429D01*
X169036516Y-129813433D01*
X169250000Y-129870634D01*
X169250000Y-128973012D01*
X169307007Y-129005925D01*
X169434174Y-129040000D01*
X169565826Y-129040000D01*
X169692993Y-129005925D01*
X169750000Y-128973012D01*
X169750000Y-129870633D01*
X169963483Y-129813433D01*
X169963492Y-129813429D01*
X170177578Y-129713600D01*
X170371082Y-129578105D01*
X170538105Y-129411082D01*
X170673600Y-129217578D01*
X170767294Y-129016651D01*
X170813466Y-128964212D01*
X170880660Y-128945060D01*
X170947541Y-128965276D01*
X170990676Y-129013785D01*
X171057632Y-129148253D01*
X171114765Y-129223908D01*
X171186128Y-129318407D01*
X171343698Y-129462052D01*
X171524981Y-129574298D01*
X171723802Y-129651321D01*
X171933390Y-129690500D01*
X171933392Y-129690500D01*
X172146608Y-129690500D01*
X172146610Y-129690500D01*
X172356198Y-129651321D01*
X172555019Y-129574298D01*
X172736302Y-129462052D01*
X172893872Y-129318407D01*
X173022366Y-129148255D01*
X173024410Y-129144151D01*
X173117403Y-128957394D01*
X173117403Y-128957393D01*
X173117405Y-128957389D01*
X173175756Y-128752310D01*
X173186529Y-128636047D01*
X173212315Y-128571111D01*
X173256869Y-128539194D01*
X173220497Y-128518331D01*
X173188307Y-128456318D01*
X173186529Y-128443951D01*
X173185849Y-128436613D01*
X173175756Y-128327690D01*
X173117405Y-128122611D01*
X173117403Y-128122606D01*
X173117403Y-128122605D01*
X173022367Y-127931746D01*
X172893872Y-127761593D01*
X172822464Y-127696496D01*
X172736302Y-127617948D01*
X172555019Y-127505702D01*
X172555017Y-127505701D01*
X172455608Y-127467190D01*
X172356198Y-127428679D01*
X172159385Y-127391888D01*
X172097106Y-127360221D01*
X172061833Y-127299908D01*
X172064767Y-127230100D01*
X172104976Y-127172960D01*
X172159384Y-127148111D01*
X172356198Y-127111321D01*
X172555019Y-127034298D01*
X172736302Y-126922052D01*
X172893872Y-126778407D01*
X173022366Y-126608255D01*
X173089325Y-126473781D01*
X173136825Y-126422548D01*
X173204488Y-126405126D01*
X173270828Y-126427051D01*
X173312705Y-126476651D01*
X173406399Y-126677578D01*
X173541894Y-126871082D01*
X173708917Y-127038105D01*
X173902421Y-127173600D01*
X174101573Y-127266466D01*
X174154012Y-127312638D01*
X174173164Y-127379832D01*
X174152948Y-127446713D01*
X174099783Y-127492048D01*
X174093968Y-127494472D01*
X174087578Y-127496948D01*
X174064982Y-127505701D01*
X174064980Y-127505702D01*
X173883699Y-127617947D01*
X173726127Y-127761593D01*
X173597632Y-127931746D01*
X173502596Y-128122605D01*
X173502596Y-128122607D01*
X173444244Y-128327689D01*
X173433471Y-128443951D01*
X173407685Y-128508888D01*
X173363130Y-128540804D01*
X173399503Y-128561668D01*
X173431693Y-128623681D01*
X173433470Y-128636047D01*
X173444244Y-128752310D01*
X173497675Y-128940099D01*
X173502596Y-128957392D01*
X173502596Y-128957394D01*
X173597632Y-129148253D01*
X173654765Y-129223908D01*
X173726128Y-129318407D01*
X173883698Y-129462052D01*
X174064981Y-129574298D01*
X174263802Y-129651321D01*
X174473390Y-129690500D01*
X174473392Y-129690500D01*
X174686608Y-129690500D01*
X174686610Y-129690500D01*
X174896198Y-129651321D01*
X175095019Y-129574298D01*
X175276302Y-129462052D01*
X175433872Y-129318407D01*
X175562366Y-129148255D01*
X175564410Y-129144151D01*
X175657403Y-128957394D01*
X175657403Y-128957393D01*
X175657405Y-128957389D01*
X175715756Y-128752310D01*
X175726529Y-128636047D01*
X175752315Y-128571111D01*
X175796869Y-128539194D01*
X175760497Y-128518331D01*
X175728307Y-128456318D01*
X175726529Y-128443951D01*
X175725849Y-128436613D01*
X175715756Y-128327690D01*
X175657405Y-128122611D01*
X175657403Y-128122606D01*
X175657403Y-128122605D01*
X175562367Y-127931746D01*
X175433872Y-127761593D01*
X175362464Y-127696496D01*
X175276302Y-127617948D01*
X175095019Y-127505702D01*
X175095014Y-127505700D01*
X175072422Y-127496948D01*
X175066037Y-127494474D01*
X175010636Y-127451903D01*
X174987045Y-127386136D01*
X175002756Y-127318056D01*
X175052779Y-127269276D01*
X175058426Y-127266466D01*
X175257578Y-127173599D01*
X175451082Y-127038105D01*
X175618105Y-126871082D01*
X175753600Y-126677578D01*
X175847294Y-126476651D01*
X175893466Y-126424212D01*
X175960660Y-126405060D01*
X176027541Y-126425276D01*
X176070676Y-126473785D01*
X176137632Y-126608253D01*
X176266127Y-126778406D01*
X176266128Y-126778407D01*
X176423698Y-126922052D01*
X176604981Y-127034298D01*
X176803802Y-127111321D01*
X177000613Y-127148111D01*
X177062893Y-127179779D01*
X177098166Y-127240092D01*
X177095232Y-127309900D01*
X177055023Y-127367040D01*
X177000613Y-127391888D01*
X176803802Y-127428679D01*
X176803799Y-127428679D01*
X176803799Y-127428680D01*
X176604982Y-127505701D01*
X176604980Y-127505702D01*
X176423699Y-127617947D01*
X176266127Y-127761593D01*
X176137632Y-127931746D01*
X176042596Y-128122605D01*
X176042596Y-128122607D01*
X175984244Y-128327689D01*
X175973471Y-128443951D01*
X175947685Y-128508888D01*
X175903130Y-128540804D01*
X175939503Y-128561668D01*
X175971693Y-128623681D01*
X175973470Y-128636047D01*
X175984244Y-128752310D01*
X176037675Y-128940099D01*
X176042596Y-128957392D01*
X176042596Y-128957394D01*
X176137632Y-129148253D01*
X176194765Y-129223908D01*
X176266128Y-129318407D01*
X176423698Y-129462052D01*
X176604981Y-129574298D01*
X176803802Y-129651321D01*
X177013390Y-129690500D01*
X177013392Y-129690500D01*
X177226608Y-129690500D01*
X177226610Y-129690500D01*
X177436198Y-129651321D01*
X177635019Y-129574298D01*
X177816302Y-129462052D01*
X177973872Y-129318407D01*
X178102366Y-129148255D01*
X178169325Y-129013781D01*
X178216825Y-128962548D01*
X178284488Y-128945126D01*
X178350828Y-128967051D01*
X178392705Y-129016651D01*
X178486399Y-129217578D01*
X178621894Y-129411082D01*
X178788917Y-129578105D01*
X178982421Y-129713600D01*
X179196507Y-129813429D01*
X179196516Y-129813433D01*
X179410000Y-129870634D01*
X179410000Y-128973012D01*
X179467007Y-129005925D01*
X179594174Y-129040000D01*
X179725826Y-129040000D01*
X179852993Y-129005925D01*
X179910000Y-128973012D01*
X179910000Y-129870633D01*
X180123483Y-129813433D01*
X180123492Y-129813429D01*
X180337578Y-129713600D01*
X180531082Y-129578105D01*
X180698105Y-129411082D01*
X180833600Y-129217578D01*
X180927294Y-129016651D01*
X180973466Y-128964212D01*
X181040660Y-128945060D01*
X181107541Y-128965276D01*
X181150676Y-129013785D01*
X181217632Y-129148253D01*
X181274765Y-129223908D01*
X181346128Y-129318407D01*
X181503698Y-129462052D01*
X181684981Y-129574298D01*
X181883802Y-129651321D01*
X182093390Y-129690500D01*
X182093392Y-129690500D01*
X182306608Y-129690500D01*
X182306610Y-129690500D01*
X182516198Y-129651321D01*
X182715019Y-129574298D01*
X182896302Y-129462052D01*
X183053872Y-129318407D01*
X183182366Y-129148255D01*
X183184410Y-129144151D01*
X183277403Y-128957394D01*
X183277403Y-128957393D01*
X183277405Y-128957389D01*
X183335756Y-128752310D01*
X183346529Y-128636047D01*
X183372315Y-128571111D01*
X183416869Y-128539194D01*
X183380497Y-128518331D01*
X183348307Y-128456318D01*
X183346529Y-128443951D01*
X183345849Y-128436613D01*
X183335756Y-128327690D01*
X183277405Y-128122611D01*
X183277403Y-128122606D01*
X183277403Y-128122605D01*
X183182367Y-127931746D01*
X183053872Y-127761593D01*
X182982464Y-127696496D01*
X182896302Y-127617948D01*
X182715019Y-127505702D01*
X182715017Y-127505701D01*
X182615608Y-127467190D01*
X182516198Y-127428679D01*
X182319385Y-127391888D01*
X182257106Y-127360221D01*
X182221833Y-127299908D01*
X182224767Y-127230100D01*
X182264976Y-127172960D01*
X182319384Y-127148111D01*
X182516198Y-127111321D01*
X182715019Y-127034298D01*
X182896302Y-126922052D01*
X183053872Y-126778407D01*
X183182366Y-126608255D01*
X183236270Y-126500000D01*
X183277403Y-126417394D01*
X183277403Y-126417393D01*
X183277405Y-126417389D01*
X183335756Y-126212310D01*
X183342029Y-126144605D01*
X183367814Y-126079669D01*
X183424614Y-126038981D01*
X183494395Y-126035461D01*
X183555002Y-126070225D01*
X183587193Y-126132238D01*
X183589500Y-126156047D01*
X183589500Y-126894856D01*
X183589502Y-126894882D01*
X183592413Y-126919987D01*
X183592415Y-126919991D01*
X183637793Y-127022764D01*
X183637794Y-127022765D01*
X183717235Y-127102206D01*
X183820009Y-127147585D01*
X183845135Y-127150500D01*
X184573758Y-127150499D01*
X184640795Y-127170183D01*
X184686550Y-127222987D01*
X184696494Y-127292146D01*
X184667469Y-127355702D01*
X184608691Y-127393476D01*
X184596542Y-127396388D01*
X184540116Y-127406935D01*
X184423802Y-127428679D01*
X184423800Y-127428679D01*
X184423798Y-127428680D01*
X184224982Y-127505701D01*
X184224980Y-127505702D01*
X184043699Y-127617947D01*
X183886127Y-127761593D01*
X183757632Y-127931746D01*
X183662596Y-128122605D01*
X183662596Y-128122607D01*
X183604244Y-128327689D01*
X183593471Y-128443951D01*
X183567685Y-128508888D01*
X183523130Y-128540804D01*
X183559503Y-128561668D01*
X183591693Y-128623681D01*
X183593470Y-128636047D01*
X183604244Y-128752310D01*
X183657675Y-128940099D01*
X183662596Y-128957392D01*
X183662596Y-128957394D01*
X183757632Y-129148253D01*
X183814765Y-129223908D01*
X183886128Y-129318407D01*
X184043698Y-129462052D01*
X184224981Y-129574298D01*
X184423802Y-129651321D01*
X184633390Y-129690500D01*
X184633392Y-129690500D01*
X184846608Y-129690500D01*
X184846610Y-129690500D01*
X185056198Y-129651321D01*
X185255019Y-129574298D01*
X185436302Y-129462052D01*
X185593872Y-129318407D01*
X185722366Y-129148255D01*
X185724410Y-129144151D01*
X185817403Y-128957394D01*
X185817403Y-128957393D01*
X185817405Y-128957389D01*
X185875756Y-128752310D01*
X185895429Y-128540000D01*
X185875756Y-128327690D01*
X185817405Y-128122611D01*
X185817403Y-128122606D01*
X185817403Y-128122605D01*
X185722367Y-127931746D01*
X185593872Y-127761593D01*
X185522464Y-127696496D01*
X185436302Y-127617948D01*
X185255019Y-127505702D01*
X185255017Y-127505701D01*
X185240291Y-127499996D01*
X187645170Y-127499996D01*
X187645170Y-127500003D01*
X187664473Y-127831426D01*
X187664474Y-127831437D01*
X187722118Y-128158351D01*
X187722121Y-128158365D01*
X187817336Y-128476408D01*
X187948827Y-128781236D01*
X187948833Y-128781249D01*
X188114824Y-129068755D01*
X188312357Y-129334087D01*
X189384728Y-128261716D01*
X189470278Y-128379466D01*
X189620534Y-128529722D01*
X189738281Y-128615270D01*
X188669289Y-129684263D01*
X188795215Y-129789925D01*
X189072588Y-129972356D01*
X189369252Y-130121347D01*
X189369258Y-130121350D01*
X189681213Y-130234892D01*
X189681234Y-130234899D01*
X190004248Y-130311456D01*
X190004263Y-130311458D01*
X190334012Y-130349999D01*
X190334013Y-130350000D01*
X190665987Y-130350000D01*
X190665987Y-130349999D01*
X190995736Y-130311458D01*
X190995751Y-130311456D01*
X191318765Y-130234899D01*
X191318786Y-130234892D01*
X191630741Y-130121350D01*
X191630747Y-130121347D01*
X191927411Y-129972356D01*
X192204789Y-129789922D01*
X192330708Y-129684263D01*
X192330709Y-129684262D01*
X191261718Y-128615270D01*
X191379466Y-128529722D01*
X191529722Y-128379466D01*
X191615270Y-128261717D01*
X192687641Y-129334088D01*
X192885175Y-129068756D01*
X193051166Y-128781249D01*
X193051172Y-128781236D01*
X193182663Y-128476408D01*
X193277878Y-128158365D01*
X193277881Y-128158351D01*
X193335525Y-127831437D01*
X193335526Y-127831426D01*
X193354830Y-127500003D01*
X193354830Y-127499996D01*
X193335526Y-127168573D01*
X193335525Y-127168562D01*
X193277881Y-126841648D01*
X193277878Y-126841634D01*
X193182663Y-126523591D01*
X193051172Y-126218763D01*
X193051166Y-126218750D01*
X192885172Y-125931239D01*
X192687642Y-125665910D01*
X191615270Y-126738281D01*
X191529722Y-126620534D01*
X191379466Y-126470278D01*
X191261717Y-126384728D01*
X192330709Y-125315736D01*
X192330709Y-125315735D01*
X192204784Y-125210074D01*
X191927411Y-125027643D01*
X191630747Y-124878652D01*
X191630741Y-124878649D01*
X191318786Y-124765107D01*
X191318765Y-124765100D01*
X190995751Y-124688543D01*
X190995736Y-124688541D01*
X190665987Y-124650000D01*
X190334013Y-124650000D01*
X190004263Y-124688541D01*
X190004248Y-124688543D01*
X189681234Y-124765100D01*
X189681213Y-124765107D01*
X189369258Y-124878649D01*
X189369252Y-124878652D01*
X189072581Y-125027646D01*
X188795220Y-125210070D01*
X188795213Y-125210075D01*
X188669289Y-125315735D01*
X189738282Y-126384728D01*
X189620534Y-126470278D01*
X189470278Y-126620534D01*
X189384728Y-126738282D01*
X188312357Y-125665911D01*
X188312356Y-125665911D01*
X188114829Y-125931236D01*
X188114825Y-125931242D01*
X187948833Y-126218750D01*
X187948827Y-126218763D01*
X187817336Y-126523591D01*
X187722121Y-126841634D01*
X187722118Y-126841648D01*
X187664474Y-127168562D01*
X187664473Y-127168573D01*
X187645170Y-127499996D01*
X185240291Y-127499996D01*
X185155608Y-127467190D01*
X185056198Y-127428679D01*
X184883456Y-127396387D01*
X184821176Y-127364719D01*
X184785903Y-127304407D01*
X184788837Y-127234599D01*
X184829046Y-127177459D01*
X184893764Y-127151128D01*
X184906233Y-127150499D01*
X185634864Y-127150499D01*
X185634879Y-127150497D01*
X185634882Y-127150497D01*
X185659987Y-127147586D01*
X185659988Y-127147585D01*
X185659991Y-127147585D01*
X185762765Y-127102206D01*
X185842206Y-127022765D01*
X185887585Y-126919991D01*
X185890500Y-126894865D01*
X185890499Y-125105136D01*
X185890497Y-125105117D01*
X185887586Y-125080012D01*
X185887585Y-125080010D01*
X185887585Y-125080009D01*
X185842206Y-124977235D01*
X185762765Y-124897794D01*
X185742124Y-124888680D01*
X185659992Y-124852415D01*
X185634865Y-124849500D01*
X183845143Y-124849500D01*
X183845117Y-124849502D01*
X183820012Y-124852413D01*
X183820008Y-124852415D01*
X183717235Y-124897793D01*
X183637794Y-124977234D01*
X183592415Y-125080006D01*
X183592415Y-125080008D01*
X183589500Y-125105131D01*
X183589500Y-125843951D01*
X183569815Y-125910990D01*
X183517011Y-125956745D01*
X183447853Y-125966689D01*
X183384297Y-125937664D01*
X183346523Y-125878886D01*
X183342029Y-125855391D01*
X183335756Y-125787689D01*
X183301106Y-125665910D01*
X183277405Y-125582611D01*
X183277403Y-125582606D01*
X183277403Y-125582605D01*
X183182367Y-125391746D01*
X183053872Y-125221593D01*
X183041232Y-125210070D01*
X182896302Y-125077948D01*
X182715019Y-124965702D01*
X182715017Y-124965701D01*
X182615608Y-124927190D01*
X182516198Y-124888679D01*
X182306610Y-124849500D01*
X182093390Y-124849500D01*
X181883802Y-124888679D01*
X181883799Y-124888679D01*
X181883799Y-124888680D01*
X181684982Y-124965701D01*
X181684980Y-124965702D01*
X181503699Y-125077947D01*
X181346127Y-125221593D01*
X181217632Y-125391746D01*
X181122596Y-125582605D01*
X181122596Y-125582607D01*
X181064244Y-125787689D01*
X181053471Y-125903951D01*
X181027685Y-125968888D01*
X180983130Y-126000804D01*
X181019503Y-126021668D01*
X181051693Y-126083681D01*
X181053470Y-126096047D01*
X181064244Y-126212310D01*
X181117675Y-126400099D01*
X181122596Y-126417392D01*
X181122596Y-126417394D01*
X181217632Y-126608253D01*
X181346127Y-126778406D01*
X181346128Y-126778407D01*
X181503698Y-126922052D01*
X181684981Y-127034298D01*
X181883802Y-127111321D01*
X182080613Y-127148111D01*
X182142893Y-127179779D01*
X182178166Y-127240092D01*
X182175232Y-127309900D01*
X182135023Y-127367040D01*
X182080613Y-127391888D01*
X181883802Y-127428679D01*
X181883799Y-127428679D01*
X181883799Y-127428680D01*
X181684982Y-127505701D01*
X181684980Y-127505702D01*
X181503699Y-127617947D01*
X181346127Y-127761593D01*
X181217634Y-127931744D01*
X181150676Y-128066215D01*
X181103173Y-128117452D01*
X181035510Y-128134873D01*
X180969170Y-128112947D01*
X180927294Y-128063348D01*
X180833600Y-127862422D01*
X180833599Y-127862420D01*
X180698113Y-127668926D01*
X180698108Y-127668920D01*
X180531082Y-127501894D01*
X180337578Y-127366399D01*
X180138426Y-127273533D01*
X180085987Y-127227360D01*
X180066835Y-127160167D01*
X180087051Y-127093286D01*
X180140216Y-127047951D01*
X180146005Y-127045537D01*
X180175019Y-127034298D01*
X180356302Y-126922052D01*
X180513872Y-126778407D01*
X180642366Y-126608255D01*
X180696270Y-126500000D01*
X180737403Y-126417394D01*
X180737403Y-126417393D01*
X180737405Y-126417389D01*
X180795756Y-126212310D01*
X180806529Y-126096047D01*
X180832315Y-126031111D01*
X180876869Y-125999194D01*
X180840497Y-125978331D01*
X180808307Y-125916318D01*
X180806529Y-125903951D01*
X180800969Y-125843951D01*
X180795756Y-125787690D01*
X180737405Y-125582611D01*
X180737403Y-125582606D01*
X180737403Y-125582605D01*
X180642367Y-125391746D01*
X180513872Y-125221593D01*
X180501232Y-125210070D01*
X180356302Y-125077948D01*
X180175019Y-124965702D01*
X180175017Y-124965701D01*
X180075608Y-124927190D01*
X179976198Y-124888679D01*
X179766610Y-124849500D01*
X179553390Y-124849500D01*
X179343802Y-124888679D01*
X179343799Y-124888679D01*
X179343799Y-124888680D01*
X179144982Y-124965701D01*
X179144980Y-124965702D01*
X178963699Y-125077947D01*
X178806127Y-125221593D01*
X178677632Y-125391746D01*
X178582596Y-125582605D01*
X178582596Y-125582607D01*
X178524244Y-125787689D01*
X178513471Y-125903951D01*
X178487685Y-125968888D01*
X178443130Y-126000804D01*
X178479503Y-126021668D01*
X178511693Y-126083681D01*
X178513470Y-126096047D01*
X178524244Y-126212310D01*
X178577675Y-126400099D01*
X178582596Y-126417392D01*
X178582596Y-126417394D01*
X178677632Y-126608253D01*
X178806127Y-126778406D01*
X178806128Y-126778407D01*
X178963698Y-126922052D01*
X179144981Y-127034298D01*
X179173961Y-127045525D01*
X179229362Y-127088095D01*
X179252954Y-127153861D01*
X179237244Y-127221942D01*
X179187222Y-127270722D01*
X179181573Y-127273533D01*
X178982422Y-127366399D01*
X178982420Y-127366400D01*
X178788926Y-127501886D01*
X178788920Y-127501891D01*
X178621891Y-127668920D01*
X178621886Y-127668926D01*
X178486400Y-127862420D01*
X178486399Y-127862422D01*
X178392705Y-128063348D01*
X178346532Y-128115787D01*
X178279339Y-128134939D01*
X178212457Y-128114723D01*
X178169323Y-128066215D01*
X178102366Y-127931745D01*
X177973872Y-127761593D01*
X177816302Y-127617948D01*
X177635019Y-127505702D01*
X177635017Y-127505701D01*
X177535608Y-127467190D01*
X177436198Y-127428679D01*
X177239385Y-127391888D01*
X177177106Y-127360221D01*
X177141833Y-127299908D01*
X177144767Y-127230100D01*
X177184976Y-127172960D01*
X177239384Y-127148111D01*
X177436198Y-127111321D01*
X177635019Y-127034298D01*
X177816302Y-126922052D01*
X177973872Y-126778407D01*
X178102366Y-126608255D01*
X178156270Y-126500000D01*
X178197403Y-126417394D01*
X178197403Y-126417393D01*
X178197405Y-126417389D01*
X178255756Y-126212310D01*
X178266529Y-126096047D01*
X178292315Y-126031111D01*
X178336869Y-125999194D01*
X178300497Y-125978331D01*
X178268307Y-125916318D01*
X178266529Y-125903951D01*
X178260969Y-125843951D01*
X178255756Y-125787690D01*
X178197405Y-125582611D01*
X178197403Y-125582606D01*
X178197403Y-125582605D01*
X178102367Y-125391746D01*
X177973872Y-125221593D01*
X177961232Y-125210070D01*
X177816302Y-125077948D01*
X177635019Y-124965702D01*
X177635017Y-124965701D01*
X177535608Y-124927190D01*
X177436198Y-124888679D01*
X177226610Y-124849500D01*
X177013390Y-124849500D01*
X176803802Y-124888679D01*
X176803799Y-124888679D01*
X176803799Y-124888680D01*
X176604982Y-124965701D01*
X176604980Y-124965702D01*
X176423699Y-125077947D01*
X176266127Y-125221593D01*
X176137634Y-125391744D01*
X176070676Y-125526215D01*
X176023173Y-125577452D01*
X175955510Y-125594873D01*
X175889170Y-125572947D01*
X175847294Y-125523348D01*
X175753600Y-125322422D01*
X175753599Y-125322420D01*
X175618113Y-125128926D01*
X175618108Y-125128920D01*
X175451082Y-124961894D01*
X175257578Y-124826399D01*
X175043492Y-124726570D01*
X175043486Y-124726567D01*
X174830000Y-124669364D01*
X174830000Y-125566988D01*
X174772993Y-125534075D01*
X174645826Y-125500000D01*
X174514174Y-125500000D01*
X174387007Y-125534075D01*
X174330000Y-125566988D01*
X174330000Y-124669364D01*
X174329999Y-124669364D01*
X174116513Y-124726567D01*
X174116507Y-124726570D01*
X173902422Y-124826399D01*
X173902420Y-124826400D01*
X173708926Y-124961886D01*
X173708920Y-124961891D01*
X173541891Y-125128920D01*
X173541886Y-125128926D01*
X173406400Y-125322420D01*
X173406399Y-125322422D01*
X173312705Y-125523348D01*
X173266532Y-125575787D01*
X173199339Y-125594939D01*
X173132457Y-125574723D01*
X173089323Y-125526215D01*
X173022366Y-125391745D01*
X172964965Y-125315735D01*
X172893872Y-125221593D01*
X172881232Y-125210070D01*
X172736302Y-125077948D01*
X172555019Y-124965702D01*
X172555017Y-124965701D01*
X172455608Y-124927190D01*
X172356198Y-124888679D01*
X172146610Y-124849500D01*
X171933390Y-124849500D01*
X171723802Y-124888679D01*
X171723799Y-124888679D01*
X171723799Y-124888680D01*
X171524982Y-124965701D01*
X171524980Y-124965702D01*
X171343699Y-125077947D01*
X171186127Y-125221593D01*
X171057632Y-125391746D01*
X170962596Y-125582605D01*
X170962596Y-125582607D01*
X170904244Y-125787689D01*
X170893471Y-125903951D01*
X170867685Y-125968888D01*
X170823130Y-126000804D01*
X170859503Y-126021668D01*
X170891693Y-126083681D01*
X170893470Y-126096047D01*
X170904244Y-126212310D01*
X170957675Y-126400099D01*
X170962596Y-126417392D01*
X170962596Y-126417394D01*
X171057632Y-126608253D01*
X171186127Y-126778406D01*
X171186128Y-126778407D01*
X171343698Y-126922052D01*
X171524981Y-127034298D01*
X171723802Y-127111321D01*
X171920613Y-127148111D01*
X171982893Y-127179779D01*
X172018166Y-127240092D01*
X172015232Y-127309900D01*
X171975023Y-127367040D01*
X171920613Y-127391888D01*
X171723802Y-127428679D01*
X171723799Y-127428679D01*
X171723799Y-127428680D01*
X171524982Y-127505701D01*
X171524980Y-127505702D01*
X171343699Y-127617947D01*
X171186127Y-127761593D01*
X171057634Y-127931744D01*
X170990676Y-128066215D01*
X170943173Y-128117452D01*
X170875510Y-128134873D01*
X170809170Y-128112947D01*
X170767294Y-128063348D01*
X170673600Y-127862422D01*
X170673599Y-127862420D01*
X170538113Y-127668926D01*
X170538108Y-127668920D01*
X170371082Y-127501894D01*
X170177578Y-127366399D01*
X169978426Y-127273533D01*
X169925987Y-127227360D01*
X169906835Y-127160167D01*
X169927051Y-127093286D01*
X169980216Y-127047951D01*
X169986005Y-127045537D01*
X170015019Y-127034298D01*
X170196302Y-126922052D01*
X170353872Y-126778407D01*
X170482366Y-126608255D01*
X170536270Y-126500000D01*
X170577403Y-126417394D01*
X170577403Y-126417393D01*
X170577405Y-126417389D01*
X170635756Y-126212310D01*
X170646529Y-126096047D01*
X170672315Y-126031111D01*
X170716869Y-125999194D01*
X170680497Y-125978331D01*
X170648307Y-125916318D01*
X170646529Y-125903951D01*
X170640969Y-125843951D01*
X170635756Y-125787690D01*
X170577405Y-125582611D01*
X170577403Y-125582606D01*
X170577403Y-125582605D01*
X170482367Y-125391746D01*
X170353872Y-125221593D01*
X170341232Y-125210070D01*
X170196302Y-125077948D01*
X170015019Y-124965702D01*
X170015017Y-124965701D01*
X169915608Y-124927190D01*
X169816198Y-124888679D01*
X169606610Y-124849500D01*
X169393390Y-124849500D01*
X169183802Y-124888679D01*
X169183799Y-124888679D01*
X169183799Y-124888680D01*
X168984982Y-124965701D01*
X168984980Y-124965702D01*
X168803699Y-125077947D01*
X168646127Y-125221593D01*
X168517632Y-125391746D01*
X168422596Y-125582605D01*
X168422596Y-125582607D01*
X168364244Y-125787689D01*
X168353471Y-125903951D01*
X168327685Y-125968888D01*
X168283130Y-126000804D01*
X168319503Y-126021668D01*
X168351693Y-126083681D01*
X168353470Y-126096047D01*
X168364244Y-126212310D01*
X168417675Y-126400099D01*
X168422596Y-126417392D01*
X168422596Y-126417394D01*
X168517632Y-126608253D01*
X168646127Y-126778406D01*
X168646128Y-126778407D01*
X168803698Y-126922052D01*
X168984981Y-127034298D01*
X169013961Y-127045525D01*
X169069362Y-127088095D01*
X169092954Y-127153861D01*
X169077244Y-127221942D01*
X169027222Y-127270722D01*
X169021573Y-127273533D01*
X168822422Y-127366399D01*
X168822420Y-127366400D01*
X168628926Y-127501886D01*
X168628920Y-127501891D01*
X168461891Y-127668920D01*
X168461886Y-127668926D01*
X168326400Y-127862420D01*
X168326399Y-127862422D01*
X168232705Y-128063348D01*
X168186532Y-128115787D01*
X168119339Y-128134939D01*
X168052457Y-128114723D01*
X168009323Y-128066215D01*
X167942366Y-127931745D01*
X167813872Y-127761593D01*
X167656302Y-127617948D01*
X167475019Y-127505702D01*
X167475017Y-127505701D01*
X167375608Y-127467190D01*
X167276198Y-127428679D01*
X167079385Y-127391888D01*
X167017106Y-127360221D01*
X166981833Y-127299908D01*
X166984767Y-127230100D01*
X167024976Y-127172960D01*
X167079384Y-127148111D01*
X167276198Y-127111321D01*
X167475019Y-127034298D01*
X167656302Y-126922052D01*
X167813872Y-126778407D01*
X167942366Y-126608255D01*
X167996270Y-126500000D01*
X168037403Y-126417394D01*
X168037403Y-126417393D01*
X168037405Y-126417389D01*
X168095756Y-126212310D01*
X168106529Y-126096047D01*
X168132315Y-126031111D01*
X168176869Y-125999194D01*
X168140497Y-125978331D01*
X168108307Y-125916318D01*
X168106529Y-125903951D01*
X168100969Y-125843951D01*
X168095756Y-125787690D01*
X168037405Y-125582611D01*
X168037403Y-125582606D01*
X168037403Y-125582605D01*
X167942367Y-125391746D01*
X167813872Y-125221593D01*
X167801232Y-125210070D01*
X167656302Y-125077948D01*
X167475019Y-124965702D01*
X167475017Y-124965701D01*
X167375608Y-124927190D01*
X167276198Y-124888679D01*
X167066610Y-124849500D01*
X166853390Y-124849500D01*
X166643802Y-124888679D01*
X166643799Y-124888679D01*
X166643799Y-124888680D01*
X166444982Y-124965701D01*
X166444980Y-124965702D01*
X166263699Y-125077947D01*
X166106127Y-125221593D01*
X165977632Y-125391746D01*
X165882596Y-125582605D01*
X165882596Y-125582607D01*
X165824244Y-125787689D01*
X165813471Y-125903951D01*
X165787685Y-125968888D01*
X165743130Y-126000804D01*
X165634622Y-126000804D01*
X165636869Y-125999194D01*
X165600497Y-125978331D01*
X165568307Y-125916318D01*
X165566529Y-125903951D01*
X165560969Y-125843951D01*
X165555756Y-125787690D01*
X165497405Y-125582611D01*
X165497403Y-125582606D01*
X165497403Y-125582605D01*
X165402367Y-125391746D01*
X165273872Y-125221593D01*
X165261232Y-125210070D01*
X165116302Y-125077948D01*
X164935019Y-124965702D01*
X164935017Y-124965701D01*
X164835608Y-124927190D01*
X164736198Y-124888679D01*
X164526610Y-124849500D01*
X164313390Y-124849500D01*
X164103802Y-124888679D01*
X164103799Y-124888679D01*
X164103799Y-124888680D01*
X163904982Y-124965701D01*
X163904980Y-124965702D01*
X163723699Y-125077947D01*
X163566127Y-125221593D01*
X163437632Y-125391746D01*
X163342596Y-125582605D01*
X163342596Y-125582607D01*
X163284244Y-125787689D01*
X163273471Y-125903951D01*
X163247685Y-125968888D01*
X163203130Y-126000804D01*
X163239503Y-126021668D01*
X163271693Y-126083681D01*
X163273470Y-126096047D01*
X163284244Y-126212310D01*
X163337675Y-126400099D01*
X163342596Y-126417392D01*
X163342596Y-126417394D01*
X163437632Y-126608253D01*
X163566127Y-126778406D01*
X163566128Y-126778407D01*
X163723698Y-126922052D01*
X163904981Y-127034298D01*
X164103802Y-127111321D01*
X164300613Y-127148111D01*
X164362893Y-127179779D01*
X164398166Y-127240092D01*
X164395232Y-127309900D01*
X164355023Y-127367040D01*
X164300613Y-127391888D01*
X164103802Y-127428679D01*
X164103799Y-127428679D01*
X164103799Y-127428680D01*
X163904982Y-127505701D01*
X163904980Y-127505702D01*
X163723699Y-127617947D01*
X163566127Y-127761593D01*
X163437634Y-127931744D01*
X163370676Y-128066215D01*
X163323173Y-128117452D01*
X163255510Y-128134873D01*
X163189170Y-128112947D01*
X163147294Y-128063348D01*
X163053600Y-127862422D01*
X163053599Y-127862420D01*
X162918113Y-127668926D01*
X162918108Y-127668920D01*
X162751082Y-127501894D01*
X162557578Y-127366399D01*
X162358426Y-127273533D01*
X162305987Y-127227360D01*
X162286835Y-127160167D01*
X162307051Y-127093286D01*
X162360216Y-127047951D01*
X162366005Y-127045537D01*
X162395019Y-127034298D01*
X162576302Y-126922052D01*
X162733872Y-126778407D01*
X162862366Y-126608255D01*
X162916270Y-126500000D01*
X162957403Y-126417394D01*
X162957403Y-126417393D01*
X162957405Y-126417389D01*
X163015756Y-126212310D01*
X163026529Y-126096047D01*
X163052315Y-126031111D01*
X163096869Y-125999194D01*
X163060497Y-125978331D01*
X163028307Y-125916318D01*
X163026529Y-125903951D01*
X163020969Y-125843951D01*
X163015756Y-125787690D01*
X162957405Y-125582611D01*
X162957403Y-125582606D01*
X162957403Y-125582605D01*
X162862367Y-125391746D01*
X162733872Y-125221593D01*
X162721232Y-125210070D01*
X162576302Y-125077948D01*
X162395019Y-124965702D01*
X162395017Y-124965701D01*
X162295608Y-124927190D01*
X162196198Y-124888679D01*
X161986610Y-124849500D01*
X161773390Y-124849500D01*
X161563802Y-124888679D01*
X161563799Y-124888679D01*
X161563799Y-124888680D01*
X161364982Y-124965701D01*
X161364980Y-124965702D01*
X161183699Y-125077947D01*
X161026127Y-125221593D01*
X160897632Y-125391746D01*
X160802596Y-125582605D01*
X160802596Y-125582607D01*
X160744244Y-125787689D01*
X160733471Y-125903951D01*
X160707685Y-125968888D01*
X160663130Y-126000804D01*
X160699503Y-126021668D01*
X160731693Y-126083681D01*
X160733470Y-126096047D01*
X160744244Y-126212310D01*
X160797675Y-126400099D01*
X160802596Y-126417392D01*
X160802596Y-126417394D01*
X160897632Y-126608253D01*
X161026127Y-126778406D01*
X161026128Y-126778407D01*
X161183698Y-126922052D01*
X161364981Y-127034298D01*
X161393961Y-127045525D01*
X161449362Y-127088095D01*
X161472954Y-127153861D01*
X161457244Y-127221942D01*
X161407222Y-127270722D01*
X161401573Y-127273533D01*
X161202422Y-127366399D01*
X161202420Y-127366400D01*
X161008926Y-127501886D01*
X161008920Y-127501891D01*
X160841891Y-127668920D01*
X160841886Y-127668926D01*
X160706400Y-127862420D01*
X160706399Y-127862422D01*
X160612705Y-128063348D01*
X160566532Y-128115787D01*
X160499339Y-128134939D01*
X160432457Y-128114723D01*
X160389323Y-128066215D01*
X160322366Y-127931745D01*
X160193872Y-127761593D01*
X160036302Y-127617948D01*
X159855019Y-127505702D01*
X159855017Y-127505701D01*
X159755608Y-127467190D01*
X159656198Y-127428679D01*
X159459385Y-127391888D01*
X159397106Y-127360221D01*
X159361833Y-127299908D01*
X159364767Y-127230100D01*
X159404976Y-127172960D01*
X159459384Y-127148111D01*
X159656198Y-127111321D01*
X159855019Y-127034298D01*
X160036302Y-126922052D01*
X160193872Y-126778407D01*
X160322366Y-126608255D01*
X160376270Y-126500000D01*
X160417403Y-126417394D01*
X160417403Y-126417393D01*
X160417405Y-126417389D01*
X160475756Y-126212310D01*
X160486529Y-126096047D01*
X160512315Y-126031111D01*
X160556869Y-125999194D01*
X160520497Y-125978331D01*
X160488307Y-125916318D01*
X160486529Y-125903951D01*
X160480969Y-125843951D01*
X160475756Y-125787690D01*
X160417405Y-125582611D01*
X160417403Y-125582606D01*
X160417403Y-125582605D01*
X160322367Y-125391746D01*
X160193872Y-125221593D01*
X160181232Y-125210070D01*
X160036302Y-125077948D01*
X159855019Y-124965702D01*
X159855017Y-124965701D01*
X159755608Y-124927190D01*
X159656198Y-124888679D01*
X159446610Y-124849500D01*
X159233390Y-124849500D01*
X159023802Y-124888679D01*
X159023799Y-124888679D01*
X159023799Y-124888680D01*
X158824982Y-124965701D01*
X158824980Y-124965702D01*
X158643699Y-125077947D01*
X158486127Y-125221593D01*
X158357632Y-125391746D01*
X158262596Y-125582605D01*
X158262596Y-125582607D01*
X158204244Y-125787689D01*
X158193471Y-125903951D01*
X158167685Y-125968888D01*
X158123130Y-126000804D01*
X158014622Y-126000804D01*
X158016869Y-125999194D01*
X157980497Y-125978331D01*
X157948307Y-125916318D01*
X157946529Y-125903951D01*
X157940969Y-125843951D01*
X157935756Y-125787690D01*
X157877405Y-125582611D01*
X157877403Y-125582606D01*
X157877403Y-125582605D01*
X157782367Y-125391746D01*
X157653872Y-125221593D01*
X157641232Y-125210070D01*
X157496302Y-125077948D01*
X157315019Y-124965702D01*
X157315017Y-124965701D01*
X157215608Y-124927190D01*
X157116198Y-124888679D01*
X156906610Y-124849500D01*
X156693390Y-124849500D01*
X156483802Y-124888679D01*
X156483799Y-124888679D01*
X156483799Y-124888680D01*
X156284982Y-124965701D01*
X156284980Y-124965702D01*
X156103699Y-125077947D01*
X155946127Y-125221593D01*
X155817634Y-125391744D01*
X155750676Y-125526215D01*
X155703173Y-125577452D01*
X155635510Y-125594873D01*
X155569170Y-125572947D01*
X155527294Y-125523348D01*
X155433600Y-125322422D01*
X155433599Y-125322420D01*
X155298113Y-125128926D01*
X155298108Y-125128920D01*
X155131082Y-124961894D01*
X154937578Y-124826399D01*
X154723492Y-124726570D01*
X154723486Y-124726567D01*
X154510000Y-124669364D01*
X154510000Y-125566988D01*
X154452993Y-125534075D01*
X154325826Y-125500000D01*
X154194174Y-125500000D01*
X154067007Y-125534075D01*
X154010000Y-125566988D01*
X154010000Y-124669364D01*
X154009999Y-124669364D01*
X153796513Y-124726567D01*
X153796507Y-124726570D01*
X153582422Y-124826399D01*
X153582420Y-124826400D01*
X153388926Y-124961886D01*
X153388920Y-124961891D01*
X153221891Y-125128920D01*
X153221886Y-125128926D01*
X153086400Y-125322420D01*
X153086399Y-125322422D01*
X152992705Y-125523348D01*
X152946532Y-125575787D01*
X152879339Y-125594939D01*
X152812457Y-125574723D01*
X152769323Y-125526215D01*
X152702366Y-125391745D01*
X152644965Y-125315735D01*
X152573872Y-125221593D01*
X152561232Y-125210070D01*
X152416302Y-125077948D01*
X152235019Y-124965702D01*
X152235017Y-124965701D01*
X152135608Y-124927190D01*
X152036198Y-124888679D01*
X151826610Y-124849500D01*
X151613390Y-124849500D01*
X151403802Y-124888679D01*
X151403799Y-124888679D01*
X151403799Y-124888680D01*
X151204982Y-124965701D01*
X151204980Y-124965702D01*
X151023699Y-125077947D01*
X150866127Y-125221593D01*
X150737632Y-125391746D01*
X150642596Y-125582605D01*
X150642596Y-125582607D01*
X150584244Y-125787689D01*
X150573471Y-125903951D01*
X150547685Y-125968888D01*
X150503130Y-126000804D01*
X150539503Y-126021668D01*
X150571693Y-126083681D01*
X150573470Y-126096047D01*
X150584244Y-126212310D01*
X150637675Y-126400099D01*
X150642596Y-126417392D01*
X150642596Y-126417394D01*
X150737632Y-126608253D01*
X150866127Y-126778406D01*
X150866128Y-126778407D01*
X151023698Y-126922052D01*
X151204981Y-127034298D01*
X151403802Y-127111321D01*
X151600613Y-127148111D01*
X151662893Y-127179779D01*
X151698166Y-127240092D01*
X151695232Y-127309900D01*
X151655023Y-127367040D01*
X151600613Y-127391888D01*
X151403802Y-127428679D01*
X151403799Y-127428679D01*
X151403799Y-127428680D01*
X151204982Y-127505701D01*
X151204980Y-127505702D01*
X151023699Y-127617947D01*
X150866127Y-127761593D01*
X150737634Y-127931744D01*
X150670676Y-128066215D01*
X150623173Y-128117452D01*
X150555510Y-128134873D01*
X150489170Y-128112947D01*
X150447294Y-128063348D01*
X150353600Y-127862422D01*
X150353599Y-127862420D01*
X150218113Y-127668926D01*
X150218108Y-127668920D01*
X150051082Y-127501894D01*
X149857578Y-127366399D01*
X149658426Y-127273533D01*
X149605987Y-127227360D01*
X149586835Y-127160167D01*
X149607051Y-127093286D01*
X149660216Y-127047951D01*
X149666005Y-127045537D01*
X149695019Y-127034298D01*
X149876302Y-126922052D01*
X150033872Y-126778407D01*
X150162366Y-126608255D01*
X150216270Y-126500000D01*
X150257403Y-126417394D01*
X150257403Y-126417393D01*
X150257405Y-126417389D01*
X150315756Y-126212310D01*
X150326529Y-126096047D01*
X150352315Y-126031111D01*
X150396869Y-125999194D01*
X150360497Y-125978331D01*
X150328307Y-125916318D01*
X150326529Y-125903951D01*
X150320969Y-125843951D01*
X150315756Y-125787690D01*
X150257405Y-125582611D01*
X150257403Y-125582606D01*
X150257403Y-125582605D01*
X150162367Y-125391746D01*
X150033872Y-125221593D01*
X150021232Y-125210070D01*
X149876302Y-125077948D01*
X149695019Y-124965702D01*
X149695017Y-124965701D01*
X149595608Y-124927190D01*
X149496198Y-124888679D01*
X149286610Y-124849500D01*
X149073390Y-124849500D01*
X148863802Y-124888679D01*
X148863799Y-124888679D01*
X148863799Y-124888680D01*
X148664982Y-124965701D01*
X148664980Y-124965702D01*
X148483699Y-125077947D01*
X148326127Y-125221593D01*
X148197632Y-125391746D01*
X148102596Y-125582605D01*
X148102596Y-125582607D01*
X148044244Y-125787689D01*
X148033471Y-125903951D01*
X148007685Y-125968888D01*
X147963130Y-126000804D01*
X147999503Y-126021668D01*
X148031693Y-126083681D01*
X148033470Y-126096047D01*
X148044244Y-126212310D01*
X148097675Y-126400099D01*
X148102596Y-126417392D01*
X148102596Y-126417394D01*
X148197632Y-126608253D01*
X148326127Y-126778406D01*
X148326128Y-126778407D01*
X148483698Y-126922052D01*
X148664981Y-127034298D01*
X148693961Y-127045525D01*
X148749362Y-127088095D01*
X148772954Y-127153861D01*
X148757244Y-127221942D01*
X148707222Y-127270722D01*
X148701573Y-127273533D01*
X148502422Y-127366399D01*
X148502420Y-127366400D01*
X148308926Y-127501886D01*
X148308920Y-127501891D01*
X148141891Y-127668920D01*
X148141886Y-127668926D01*
X148006400Y-127862420D01*
X148006399Y-127862422D01*
X147912705Y-128063348D01*
X147866532Y-128115787D01*
X147799339Y-128134939D01*
X147732457Y-128114723D01*
X147689323Y-128066215D01*
X147622366Y-127931745D01*
X147493872Y-127761593D01*
X147336302Y-127617948D01*
X147155019Y-127505702D01*
X147155017Y-127505701D01*
X147055608Y-127467190D01*
X146956198Y-127428679D01*
X146759385Y-127391888D01*
X146697106Y-127360221D01*
X146661833Y-127299908D01*
X146664767Y-127230100D01*
X146704976Y-127172960D01*
X146759384Y-127148111D01*
X146956198Y-127111321D01*
X147155019Y-127034298D01*
X147336302Y-126922052D01*
X147493872Y-126778407D01*
X147622366Y-126608255D01*
X147676270Y-126500000D01*
X147717403Y-126417394D01*
X147717403Y-126417393D01*
X147717405Y-126417389D01*
X147775756Y-126212310D01*
X147786529Y-126096047D01*
X147812315Y-126031111D01*
X147856869Y-125999194D01*
X147820497Y-125978331D01*
X147788307Y-125916318D01*
X147786529Y-125903951D01*
X147780969Y-125843951D01*
X147775756Y-125787690D01*
X147717405Y-125582611D01*
X147717403Y-125582606D01*
X147717403Y-125582605D01*
X147622367Y-125391746D01*
X147493872Y-125221593D01*
X147481232Y-125210070D01*
X147336302Y-125077948D01*
X147155019Y-124965702D01*
X147155017Y-124965701D01*
X147055608Y-124927190D01*
X146956198Y-124888679D01*
X146746610Y-124849500D01*
X146533390Y-124849500D01*
X146323802Y-124888679D01*
X146323799Y-124888679D01*
X146323799Y-124888680D01*
X146124982Y-124965701D01*
X146124980Y-124965702D01*
X145943699Y-125077947D01*
X145786127Y-125221593D01*
X145657632Y-125391746D01*
X145562596Y-125582605D01*
X145562596Y-125582607D01*
X145504244Y-125787689D01*
X145493471Y-125903951D01*
X145467685Y-125968888D01*
X145423130Y-126000804D01*
X145459503Y-126021668D01*
X145491693Y-126083681D01*
X145493470Y-126096047D01*
X145504244Y-126212310D01*
X145557675Y-126400099D01*
X145562596Y-126417392D01*
X145562596Y-126417394D01*
X145657632Y-126608253D01*
X145786127Y-126778406D01*
X145786128Y-126778407D01*
X145943698Y-126922052D01*
X146124981Y-127034298D01*
X146323802Y-127111321D01*
X146520613Y-127148111D01*
X146582893Y-127179779D01*
X146618166Y-127240092D01*
X146615232Y-127309900D01*
X146575023Y-127367040D01*
X146520613Y-127391888D01*
X146323802Y-127428679D01*
X146323799Y-127428679D01*
X146323799Y-127428680D01*
X146124982Y-127505701D01*
X146124980Y-127505702D01*
X145943699Y-127617947D01*
X145786127Y-127761593D01*
X145657634Y-127931744D01*
X145590676Y-128066215D01*
X145543173Y-128117452D01*
X145475510Y-128134873D01*
X145409170Y-128112947D01*
X145367294Y-128063348D01*
X145273600Y-127862422D01*
X145273599Y-127862420D01*
X145138113Y-127668926D01*
X145138108Y-127668920D01*
X144971082Y-127501894D01*
X144777578Y-127366399D01*
X144578426Y-127273533D01*
X144525987Y-127227360D01*
X144506835Y-127160167D01*
X144527051Y-127093286D01*
X144580216Y-127047951D01*
X144586005Y-127045537D01*
X144615019Y-127034298D01*
X144796302Y-126922052D01*
X144953872Y-126778407D01*
X145082366Y-126608255D01*
X145136270Y-126500000D01*
X145177403Y-126417394D01*
X145177403Y-126417393D01*
X145177405Y-126417389D01*
X145235756Y-126212310D01*
X145246529Y-126096047D01*
X145272315Y-126031111D01*
X145316869Y-125999194D01*
X145280497Y-125978331D01*
X145248307Y-125916318D01*
X145246529Y-125903951D01*
X145240969Y-125843951D01*
X145235756Y-125787690D01*
X145177405Y-125582611D01*
X145177403Y-125582606D01*
X145177403Y-125582605D01*
X145082367Y-125391746D01*
X144953872Y-125221593D01*
X144941232Y-125210070D01*
X144796302Y-125077948D01*
X144615019Y-124965702D01*
X144615017Y-124965701D01*
X144515608Y-124927190D01*
X144416198Y-124888679D01*
X144206610Y-124849500D01*
X143993390Y-124849500D01*
X143783802Y-124888679D01*
X143783799Y-124888679D01*
X143783799Y-124888680D01*
X143584982Y-124965701D01*
X143584980Y-124965702D01*
X143403699Y-125077947D01*
X143246127Y-125221593D01*
X143117632Y-125391746D01*
X143022596Y-125582605D01*
X143022596Y-125582607D01*
X142964244Y-125787689D01*
X142953471Y-125903951D01*
X142927685Y-125968888D01*
X142883130Y-126000804D01*
X142919503Y-126021668D01*
X142951693Y-126083681D01*
X142953470Y-126096047D01*
X142964244Y-126212310D01*
X143017675Y-126400099D01*
X143022596Y-126417392D01*
X143022596Y-126417394D01*
X143117632Y-126608253D01*
X143246127Y-126778406D01*
X143246128Y-126778407D01*
X143403698Y-126922052D01*
X143584981Y-127034298D01*
X143613961Y-127045525D01*
X143669362Y-127088095D01*
X143692954Y-127153861D01*
X143677244Y-127221942D01*
X143627222Y-127270722D01*
X143621573Y-127273533D01*
X143422422Y-127366399D01*
X143422420Y-127366400D01*
X143228926Y-127501886D01*
X143228920Y-127501891D01*
X143061891Y-127668920D01*
X143061886Y-127668926D01*
X142926400Y-127862420D01*
X142926399Y-127862422D01*
X142832705Y-128063348D01*
X142786532Y-128115787D01*
X142719339Y-128134939D01*
X142652457Y-128114723D01*
X142609323Y-128066215D01*
X142542366Y-127931745D01*
X142413872Y-127761593D01*
X142256302Y-127617948D01*
X142075019Y-127505702D01*
X142075017Y-127505701D01*
X141975608Y-127467190D01*
X141876198Y-127428679D01*
X141679385Y-127391888D01*
X141617106Y-127360221D01*
X141581833Y-127299908D01*
X141584767Y-127230100D01*
X141624976Y-127172960D01*
X141679384Y-127148111D01*
X141876198Y-127111321D01*
X142075019Y-127034298D01*
X142256302Y-126922052D01*
X142413872Y-126778407D01*
X142542366Y-126608255D01*
X142596270Y-126500000D01*
X142637403Y-126417394D01*
X142637403Y-126417393D01*
X142637405Y-126417389D01*
X142695756Y-126212310D01*
X142706529Y-126096047D01*
X142732315Y-126031111D01*
X142776869Y-125999194D01*
X142740497Y-125978331D01*
X142708307Y-125916318D01*
X142706529Y-125903951D01*
X142700969Y-125843951D01*
X142695756Y-125787690D01*
X142637405Y-125582611D01*
X142637403Y-125582606D01*
X142637403Y-125582605D01*
X142542367Y-125391746D01*
X142413872Y-125221593D01*
X142401232Y-125210070D01*
X142256302Y-125077948D01*
X142075019Y-124965702D01*
X142075017Y-124965701D01*
X141975608Y-124927190D01*
X141876198Y-124888679D01*
X141666610Y-124849500D01*
X141453390Y-124849500D01*
X141243802Y-124888679D01*
X141243799Y-124888679D01*
X141243799Y-124888680D01*
X141044982Y-124965701D01*
X141044980Y-124965702D01*
X140863699Y-125077947D01*
X140706127Y-125221593D01*
X140577632Y-125391746D01*
X140482596Y-125582605D01*
X140482596Y-125582607D01*
X140424244Y-125787689D01*
X140413471Y-125903951D01*
X140387685Y-125968888D01*
X140343130Y-126000804D01*
X140234622Y-126000804D01*
X140236869Y-125999194D01*
X140200497Y-125978331D01*
X140168307Y-125916318D01*
X140166529Y-125903951D01*
X140160969Y-125843951D01*
X140155756Y-125787690D01*
X140097405Y-125582611D01*
X140097403Y-125582606D01*
X140097403Y-125582605D01*
X140002367Y-125391746D01*
X139873872Y-125221593D01*
X139861232Y-125210070D01*
X139716302Y-125077948D01*
X139535019Y-124965702D01*
X139535017Y-124965701D01*
X139435608Y-124927190D01*
X139336198Y-124888679D01*
X139126610Y-124849500D01*
X138913390Y-124849500D01*
X138703802Y-124888679D01*
X138703799Y-124888679D01*
X138703799Y-124888680D01*
X138504982Y-124965701D01*
X138504980Y-124965702D01*
X138323699Y-125077947D01*
X138166127Y-125221593D01*
X138037634Y-125391744D01*
X137970676Y-125526215D01*
X137923173Y-125577452D01*
X137855510Y-125594873D01*
X137789170Y-125572947D01*
X137747294Y-125523348D01*
X137653600Y-125322422D01*
X137653599Y-125322420D01*
X137518113Y-125128926D01*
X137518108Y-125128920D01*
X137351082Y-124961894D01*
X137157578Y-124826399D01*
X136943492Y-124726570D01*
X136943486Y-124726567D01*
X136730000Y-124669364D01*
X136730000Y-125566988D01*
X136672993Y-125534075D01*
X136545826Y-125500000D01*
X136414174Y-125500000D01*
X136287007Y-125534075D01*
X136230000Y-125566988D01*
X136230000Y-124669364D01*
X136229999Y-124669364D01*
X136016513Y-124726567D01*
X136016507Y-124726570D01*
X135802422Y-124826399D01*
X135802420Y-124826400D01*
X135608926Y-124961886D01*
X135608920Y-124961891D01*
X135441891Y-125128920D01*
X135441886Y-125128926D01*
X135306400Y-125322420D01*
X135306399Y-125322422D01*
X135206570Y-125536507D01*
X135206567Y-125536513D01*
X135149364Y-125749999D01*
X132750244Y-125749999D01*
X132687642Y-125665910D01*
X131615270Y-126738281D01*
X131529722Y-126620534D01*
X131379466Y-126470278D01*
X131261717Y-126384728D01*
X132330709Y-125315736D01*
X132330709Y-125315735D01*
X132204784Y-125210074D01*
X131927411Y-125027643D01*
X131630747Y-124878652D01*
X131630741Y-124878649D01*
X131318786Y-124765107D01*
X131318765Y-124765100D01*
X130995751Y-124688543D01*
X130995736Y-124688541D01*
X130665987Y-124650000D01*
X130334013Y-124650000D01*
X130004263Y-124688541D01*
X130004248Y-124688543D01*
X129681234Y-124765100D01*
X129681213Y-124765107D01*
X129369258Y-124878649D01*
X129369252Y-124878652D01*
X129072581Y-125027646D01*
X128795220Y-125210070D01*
X128795213Y-125210075D01*
X128669289Y-125315735D01*
X129738282Y-126384728D01*
X129620534Y-126470278D01*
X129470278Y-126620534D01*
X129384728Y-126738282D01*
X128312357Y-125665911D01*
X128312356Y-125665911D01*
X128114829Y-125931236D01*
X128114825Y-125931242D01*
X127948833Y-126218750D01*
X127948827Y-126218763D01*
X127817336Y-126523591D01*
X127722121Y-126841634D01*
X127722118Y-126841648D01*
X127664474Y-127168562D01*
X127664473Y-127168573D01*
X127645170Y-127499996D01*
X127000575Y-127499996D01*
X127000500Y-127496948D01*
X127000500Y-119799999D01*
X163569965Y-119799999D01*
X163569965Y-119800000D01*
X163588026Y-119937181D01*
X163588027Y-119937186D01*
X163640974Y-120065015D01*
X163640975Y-120065017D01*
X163640976Y-120065018D01*
X163725209Y-120174791D01*
X163834982Y-120259024D01*
X163962817Y-120311974D01*
X164085702Y-120328152D01*
X164099999Y-120330035D01*
X164100000Y-120330035D01*
X164100001Y-120330035D01*
X164112947Y-120328330D01*
X164237183Y-120311974D01*
X164365018Y-120259024D01*
X164474791Y-120174791D01*
X164559024Y-120065018D01*
X164611974Y-119937183D01*
X164630035Y-119800000D01*
X164630035Y-119799999D01*
X165669965Y-119799999D01*
X165669965Y-119800000D01*
X165688026Y-119937181D01*
X165688027Y-119937186D01*
X165740974Y-120065015D01*
X165740975Y-120065017D01*
X165740976Y-120065018D01*
X165825209Y-120174791D01*
X165934982Y-120259024D01*
X166062817Y-120311974D01*
X166185702Y-120328152D01*
X166199999Y-120330035D01*
X166200000Y-120330035D01*
X166200001Y-120330035D01*
X166212947Y-120328330D01*
X166337183Y-120311974D01*
X166465018Y-120259024D01*
X166574791Y-120174791D01*
X166659024Y-120065018D01*
X166711974Y-119937183D01*
X166730035Y-119800000D01*
X166711974Y-119662817D01*
X166659024Y-119534983D01*
X166574791Y-119425209D01*
X166574789Y-119425208D01*
X166574789Y-119425207D01*
X166465015Y-119340974D01*
X166337186Y-119288027D01*
X166337184Y-119288026D01*
X166337183Y-119288026D01*
X166245727Y-119275985D01*
X166200001Y-119269965D01*
X166199999Y-119269965D01*
X166131408Y-119278995D01*
X166062817Y-119288026D01*
X166062816Y-119288026D01*
X166062813Y-119288027D01*
X165934985Y-119340974D01*
X165825209Y-119425209D01*
X165740974Y-119534985D01*
X165688027Y-119662813D01*
X165688026Y-119662818D01*
X165669965Y-119799999D01*
X164630035Y-119799999D01*
X164611974Y-119662817D01*
X164559024Y-119534983D01*
X164474791Y-119425209D01*
X164474789Y-119425208D01*
X164474789Y-119425207D01*
X164365015Y-119340974D01*
X164237186Y-119288027D01*
X164237184Y-119288026D01*
X164237183Y-119288026D01*
X164145727Y-119275985D01*
X164100001Y-119269965D01*
X164099999Y-119269965D01*
X164031408Y-119278995D01*
X163962817Y-119288026D01*
X163962816Y-119288026D01*
X163962813Y-119288027D01*
X163834985Y-119340974D01*
X163725209Y-119425209D01*
X163640974Y-119534985D01*
X163588027Y-119662813D01*
X163588026Y-119662818D01*
X163569965Y-119799999D01*
X127000500Y-119799999D01*
X127000500Y-106850013D01*
X129550000Y-106850013D01*
X129550000Y-107250000D01*
X130620854Y-107250000D01*
X130582370Y-107316657D01*
X130550000Y-107437465D01*
X130550000Y-107562535D01*
X130582370Y-107683343D01*
X130620854Y-107750000D01*
X129550001Y-107750000D01*
X129550001Y-108149986D01*
X129560494Y-108252697D01*
X129615641Y-108419119D01*
X129615643Y-108419124D01*
X129707684Y-108568345D01*
X129831654Y-108692315D01*
X129980875Y-108784356D01*
X129980880Y-108784358D01*
X130147302Y-108839505D01*
X130147309Y-108839506D01*
X130168769Y-108841699D01*
X130233460Y-108868095D01*
X130273612Y-108925276D01*
X130276475Y-108995087D01*
X130241141Y-109055364D01*
X130229051Y-109065375D01*
X130150505Y-109122441D01*
X130150500Y-109122445D01*
X130022445Y-109250500D01*
X130022441Y-109250505D01*
X129916006Y-109397002D01*
X129833788Y-109558360D01*
X129833787Y-109558363D01*
X129777829Y-109730589D01*
X129749500Y-109909448D01*
X129749500Y-110090551D01*
X129777829Y-110269410D01*
X129833787Y-110441636D01*
X129833788Y-110441639D01*
X129882970Y-110538162D01*
X129911858Y-110594858D01*
X129916006Y-110602997D01*
X130022441Y-110749494D01*
X130022445Y-110749499D01*
X130150500Y-110877554D01*
X130150505Y-110877558D01*
X130229052Y-110934625D01*
X130297006Y-110983996D01*
X130387362Y-111030035D01*
X130458360Y-111066211D01*
X130458363Y-111066212D01*
X130484546Y-111074719D01*
X130630591Y-111122171D01*
X130655291Y-111126083D01*
X130664406Y-111127527D01*
X130727540Y-111157457D01*
X130764471Y-111216768D01*
X130763473Y-111286631D01*
X130724863Y-111344863D01*
X130664406Y-111372473D01*
X130630589Y-111377829D01*
X130458363Y-111433787D01*
X130458360Y-111433788D01*
X130297002Y-111516006D01*
X130150505Y-111622441D01*
X130150500Y-111622445D01*
X130022445Y-111750500D01*
X130022441Y-111750505D01*
X129916006Y-111897002D01*
X129833788Y-112058360D01*
X129833787Y-112058363D01*
X129777829Y-112230589D01*
X129749500Y-112409448D01*
X129749500Y-112590551D01*
X129777829Y-112769410D01*
X129833787Y-112941636D01*
X129833788Y-112941639D01*
X129916006Y-113102997D01*
X130022441Y-113249494D01*
X130022445Y-113249499D01*
X130150500Y-113377554D01*
X130150505Y-113377558D01*
X130263977Y-113459999D01*
X130297006Y-113483996D01*
X130402484Y-113537740D01*
X130458360Y-113566211D01*
X130458363Y-113566212D01*
X130519266Y-113586000D01*
X130630591Y-113622171D01*
X130713429Y-113635291D01*
X130809449Y-113650500D01*
X130809454Y-113650500D01*
X131240551Y-113650500D01*
X131327259Y-113636765D01*
X131419409Y-113622171D01*
X131591639Y-113566211D01*
X131752994Y-113483996D01*
X131899501Y-113377553D01*
X132027553Y-113249501D01*
X132133996Y-113102994D01*
X132216211Y-112941639D01*
X132272171Y-112769409D01*
X132286765Y-112677259D01*
X132300500Y-112590551D01*
X132300500Y-112409448D01*
X132284019Y-112305397D01*
X132272171Y-112230591D01*
X132216211Y-112058361D01*
X132216211Y-112058360D01*
X132187740Y-112002484D01*
X132133996Y-111897006D01*
X132094070Y-111842052D01*
X132027558Y-111750505D01*
X132027554Y-111750500D01*
X131899499Y-111622445D01*
X131899494Y-111622441D01*
X131752997Y-111516006D01*
X131752996Y-111516005D01*
X131752994Y-111516004D01*
X131701300Y-111489664D01*
X131591639Y-111433788D01*
X131591636Y-111433787D01*
X131419410Y-111377829D01*
X131385594Y-111372473D01*
X131322459Y-111342544D01*
X131285528Y-111283232D01*
X131286526Y-111213370D01*
X131325136Y-111155137D01*
X131385594Y-111127527D01*
X131393388Y-111126292D01*
X131419409Y-111122171D01*
X131591639Y-111066211D01*
X131752994Y-110983996D01*
X131841079Y-110919999D01*
X138069571Y-110919999D01*
X138069571Y-110920000D01*
X138089244Y-111132310D01*
X138147596Y-111337392D01*
X138147596Y-111337394D01*
X138242632Y-111528253D01*
X138313765Y-111622447D01*
X138371128Y-111698407D01*
X138528698Y-111842052D01*
X138709981Y-111954298D01*
X138908802Y-112031321D01*
X139105613Y-112068111D01*
X139167893Y-112099779D01*
X139203166Y-112160092D01*
X139200232Y-112229900D01*
X139160023Y-112287040D01*
X139105613Y-112311888D01*
X138908802Y-112348679D01*
X138908799Y-112348679D01*
X138908799Y-112348680D01*
X138709982Y-112425701D01*
X138709980Y-112425702D01*
X138528699Y-112537947D01*
X138371127Y-112681593D01*
X138242632Y-112851746D01*
X138147596Y-113042605D01*
X138147596Y-113042607D01*
X138089244Y-113247689D01*
X138075671Y-113394174D01*
X138069571Y-113460000D01*
X138089244Y-113672310D01*
X138142675Y-113860099D01*
X138147596Y-113877392D01*
X138147596Y-113877394D01*
X138242632Y-114068253D01*
X138371127Y-114238406D01*
X138371128Y-114238407D01*
X138528698Y-114382052D01*
X138709981Y-114494298D01*
X138908802Y-114571321D01*
X139105613Y-114608111D01*
X139167893Y-114639779D01*
X139203166Y-114700092D01*
X139200232Y-114769900D01*
X139160023Y-114827040D01*
X139105613Y-114851888D01*
X138908802Y-114888679D01*
X138908799Y-114888679D01*
X138908799Y-114888680D01*
X138709982Y-114965701D01*
X138709980Y-114965702D01*
X138528699Y-115077947D01*
X138371127Y-115221593D01*
X138242632Y-115391746D01*
X138147596Y-115582605D01*
X138147596Y-115582607D01*
X138089244Y-115787689D01*
X138069571Y-115999999D01*
X138069571Y-116000000D01*
X138089244Y-116212310D01*
X138147596Y-116417392D01*
X138147596Y-116417394D01*
X138242632Y-116608253D01*
X138339999Y-116737186D01*
X138371128Y-116778407D01*
X138528698Y-116922052D01*
X138709981Y-117034298D01*
X138908802Y-117111321D01*
X139105613Y-117148111D01*
X139167893Y-117179779D01*
X139203166Y-117240092D01*
X139200232Y-117309900D01*
X139160023Y-117367040D01*
X139105613Y-117391888D01*
X138908802Y-117428679D01*
X138908799Y-117428679D01*
X138908799Y-117428680D01*
X138709982Y-117505701D01*
X138709980Y-117505702D01*
X138528699Y-117617947D01*
X138371127Y-117761593D01*
X138242632Y-117931746D01*
X138147596Y-118122605D01*
X138147596Y-118122607D01*
X138089244Y-118327689D01*
X138069571Y-118539999D01*
X138069571Y-118540000D01*
X138089244Y-118752310D01*
X138147596Y-118957392D01*
X138147596Y-118957394D01*
X138242632Y-119148253D01*
X138242634Y-119148255D01*
X138371128Y-119318407D01*
X138528698Y-119462052D01*
X138709981Y-119574298D01*
X138908802Y-119651321D01*
X139118390Y-119690500D01*
X139118392Y-119690500D01*
X139331608Y-119690500D01*
X139331610Y-119690500D01*
X139541198Y-119651321D01*
X139740019Y-119574298D01*
X139921302Y-119462052D01*
X140078872Y-119318407D01*
X140207366Y-119148255D01*
X140302405Y-118957389D01*
X140360756Y-118752310D01*
X140371529Y-118636047D01*
X140397315Y-118571111D01*
X140441869Y-118539194D01*
X140405497Y-118518331D01*
X140373307Y-118456318D01*
X140371529Y-118443951D01*
X140370849Y-118436613D01*
X140360756Y-118327690D01*
X140302405Y-118122611D01*
X140302403Y-118122606D01*
X140302403Y-118122605D01*
X140207367Y-117931746D01*
X140078872Y-117761593D01*
X139921302Y-117617948D01*
X139740019Y-117505702D01*
X139740017Y-117505701D01*
X139640608Y-117467190D01*
X139541198Y-117428679D01*
X139344385Y-117391888D01*
X139282106Y-117360221D01*
X139246833Y-117299908D01*
X139249767Y-117230100D01*
X139289976Y-117172960D01*
X139344384Y-117148111D01*
X139541198Y-117111321D01*
X139740019Y-117034298D01*
X139921302Y-116922052D01*
X140078872Y-116778407D01*
X140207366Y-116608255D01*
X140211477Y-116599999D01*
X140302403Y-116417394D01*
X140302403Y-116417393D01*
X140302405Y-116417389D01*
X140360756Y-116212310D01*
X140371529Y-116096047D01*
X140397315Y-116031111D01*
X140441869Y-115999194D01*
X140405497Y-115978331D01*
X140373307Y-115916318D01*
X140371529Y-115903951D01*
X140365138Y-115834983D01*
X140360756Y-115787690D01*
X140302405Y-115582611D01*
X140302403Y-115582606D01*
X140302403Y-115582605D01*
X140207367Y-115391746D01*
X140078872Y-115221593D01*
X139921302Y-115077948D01*
X139740019Y-114965702D01*
X139740017Y-114965701D01*
X139640608Y-114927190D01*
X139541198Y-114888679D01*
X139344385Y-114851888D01*
X139282106Y-114820221D01*
X139246833Y-114759908D01*
X139249767Y-114690100D01*
X139289976Y-114632960D01*
X139344384Y-114608111D01*
X139541198Y-114571321D01*
X139740019Y-114494298D01*
X139921302Y-114382052D01*
X140078872Y-114238407D01*
X140207366Y-114068255D01*
X140274325Y-113933781D01*
X140321825Y-113882548D01*
X140389488Y-113865126D01*
X140455828Y-113887051D01*
X140497705Y-113936651D01*
X140591399Y-114137578D01*
X140726894Y-114331082D01*
X140893917Y-114498105D01*
X141087421Y-114633600D01*
X141286573Y-114726466D01*
X141339012Y-114772638D01*
X141358164Y-114839832D01*
X141337948Y-114906713D01*
X141284783Y-114952048D01*
X141278968Y-114954472D01*
X141271771Y-114957260D01*
X141249982Y-114965701D01*
X141249980Y-114965702D01*
X141068699Y-115077947D01*
X140911127Y-115221593D01*
X140782632Y-115391746D01*
X140687596Y-115582605D01*
X140687596Y-115582607D01*
X140629244Y-115787689D01*
X140618471Y-115903951D01*
X140592685Y-115968888D01*
X140548130Y-116000804D01*
X140584503Y-116021668D01*
X140616693Y-116083681D01*
X140618471Y-116096048D01*
X140629244Y-116212310D01*
X140687596Y-116417392D01*
X140687596Y-116417394D01*
X140782632Y-116608253D01*
X140879999Y-116737186D01*
X140911128Y-116778407D01*
X141068698Y-116922052D01*
X141249981Y-117034298D01*
X141448802Y-117111321D01*
X141645613Y-117148111D01*
X141707893Y-117179779D01*
X141743166Y-117240092D01*
X141740232Y-117309900D01*
X141700023Y-117367040D01*
X141645613Y-117391888D01*
X141448802Y-117428679D01*
X141448799Y-117428679D01*
X141448799Y-117428680D01*
X141249982Y-117505701D01*
X141249980Y-117505702D01*
X141068699Y-117617947D01*
X140911127Y-117761593D01*
X140782632Y-117931746D01*
X140687596Y-118122605D01*
X140687596Y-118122607D01*
X140629244Y-118327689D01*
X140618471Y-118443951D01*
X140592685Y-118508888D01*
X140548130Y-118540804D01*
X140584503Y-118561668D01*
X140616693Y-118623681D01*
X140618471Y-118636048D01*
X140629244Y-118752310D01*
X140687596Y-118957392D01*
X140687596Y-118957394D01*
X140782632Y-119148253D01*
X140782634Y-119148255D01*
X140911128Y-119318407D01*
X141068698Y-119462052D01*
X141249981Y-119574298D01*
X141448802Y-119651321D01*
X141658390Y-119690500D01*
X141658392Y-119690500D01*
X141871608Y-119690500D01*
X141871610Y-119690500D01*
X142081198Y-119651321D01*
X142280019Y-119574298D01*
X142461302Y-119462052D01*
X142618872Y-119318407D01*
X142747366Y-119148255D01*
X142842405Y-118957389D01*
X142900756Y-118752310D01*
X142920429Y-118540000D01*
X142900756Y-118327690D01*
X142842405Y-118122611D01*
X142842403Y-118122606D01*
X142842403Y-118122605D01*
X142747367Y-117931746D01*
X142618872Y-117761593D01*
X142461302Y-117617948D01*
X142280019Y-117505702D01*
X142280017Y-117505701D01*
X142180608Y-117467190D01*
X142081198Y-117428679D01*
X141884385Y-117391888D01*
X141822106Y-117360221D01*
X141786833Y-117299908D01*
X141789767Y-117230100D01*
X141829976Y-117172960D01*
X141884384Y-117148111D01*
X142081198Y-117111321D01*
X142280019Y-117034298D01*
X142461302Y-116922052D01*
X142618872Y-116778407D01*
X142747366Y-116608255D01*
X142751477Y-116599999D01*
X162469965Y-116599999D01*
X162469965Y-116600000D01*
X162488026Y-116737181D01*
X162488027Y-116737186D01*
X162540974Y-116865015D01*
X162540975Y-116865017D01*
X162540976Y-116865018D01*
X162625209Y-116974791D01*
X162734982Y-117059024D01*
X162862817Y-117111974D01*
X162985702Y-117128152D01*
X162999999Y-117130035D01*
X163000000Y-117130035D01*
X163000001Y-117130035D01*
X163012947Y-117128330D01*
X163137183Y-117111974D01*
X163265018Y-117059024D01*
X163374791Y-116974791D01*
X163459024Y-116865018D01*
X163511974Y-116737183D01*
X163530035Y-116600000D01*
X163511974Y-116462817D01*
X163459024Y-116334983D01*
X163374791Y-116225209D01*
X163374789Y-116225208D01*
X163374789Y-116225207D01*
X163265015Y-116140974D01*
X163137186Y-116088027D01*
X163137184Y-116088026D01*
X163137183Y-116088026D01*
X163045727Y-116075985D01*
X163000001Y-116069965D01*
X162999999Y-116069965D01*
X162931408Y-116078995D01*
X162862817Y-116088026D01*
X162862816Y-116088026D01*
X162862813Y-116088027D01*
X162734985Y-116140974D01*
X162625209Y-116225209D01*
X162540974Y-116334985D01*
X162488027Y-116462813D01*
X162488026Y-116462818D01*
X162469965Y-116599999D01*
X142751477Y-116599999D01*
X142842403Y-116417394D01*
X142842403Y-116417393D01*
X142842405Y-116417389D01*
X142900756Y-116212310D01*
X142920429Y-116000000D01*
X142901897Y-115799999D01*
X164669965Y-115799999D01*
X164669965Y-115800000D01*
X164688026Y-115937181D01*
X164688027Y-115937186D01*
X164740974Y-116065015D01*
X164740975Y-116065017D01*
X164740976Y-116065018D01*
X164825209Y-116174791D01*
X164934982Y-116259024D01*
X165062817Y-116311974D01*
X165185702Y-116328152D01*
X165199999Y-116330035D01*
X165200000Y-116330035D01*
X165200001Y-116330035D01*
X165212947Y-116328330D01*
X165337183Y-116311974D01*
X165465018Y-116259024D01*
X165574791Y-116174791D01*
X165632181Y-116100000D01*
X166169965Y-116100000D01*
X166186449Y-116225207D01*
X166188026Y-116237181D01*
X166188027Y-116237186D01*
X166240974Y-116365015D01*
X166240975Y-116365017D01*
X166240976Y-116365018D01*
X166325209Y-116474791D01*
X166434982Y-116559024D01*
X166562817Y-116611974D01*
X166685702Y-116628152D01*
X166699999Y-116630035D01*
X166700000Y-116630035D01*
X166700001Y-116630035D01*
X166712947Y-116628330D01*
X166837183Y-116611974D01*
X166965018Y-116559024D01*
X167074791Y-116474791D01*
X167159024Y-116365018D01*
X167211974Y-116237183D01*
X167230035Y-116100000D01*
X167211974Y-115962817D01*
X167159024Y-115834983D01*
X167074791Y-115725209D01*
X167074789Y-115725208D01*
X167074789Y-115725207D01*
X166965015Y-115640974D01*
X166837186Y-115588027D01*
X166837184Y-115588026D01*
X166837183Y-115588026D01*
X166745727Y-115575985D01*
X166700001Y-115569965D01*
X166699999Y-115569965D01*
X166631408Y-115578995D01*
X166562817Y-115588026D01*
X166562816Y-115588026D01*
X166562813Y-115588027D01*
X166434985Y-115640974D01*
X166325209Y-115725209D01*
X166240974Y-115834985D01*
X166188027Y-115962813D01*
X166188026Y-115962816D01*
X166188026Y-115962817D01*
X166169965Y-116100000D01*
X165632181Y-116100000D01*
X165659024Y-116065018D01*
X165711974Y-115937183D01*
X165730035Y-115800000D01*
X165711974Y-115662817D01*
X165659024Y-115534983D01*
X165574791Y-115425209D01*
X165574789Y-115425208D01*
X165574789Y-115425207D01*
X165465015Y-115340974D01*
X165337186Y-115288027D01*
X165337184Y-115288026D01*
X165337183Y-115288026D01*
X165245727Y-115275985D01*
X165200001Y-115269965D01*
X165199999Y-115269965D01*
X165131408Y-115278995D01*
X165062817Y-115288026D01*
X165062816Y-115288026D01*
X165062813Y-115288027D01*
X164934985Y-115340974D01*
X164825209Y-115425209D01*
X164740974Y-115534985D01*
X164688027Y-115662813D01*
X164688026Y-115662818D01*
X164669965Y-115799999D01*
X142901897Y-115799999D01*
X142900756Y-115787690D01*
X142842405Y-115582611D01*
X142842403Y-115582606D01*
X142842403Y-115582605D01*
X142747367Y-115391746D01*
X142618872Y-115221593D01*
X142485492Y-115100000D01*
X162569965Y-115100000D01*
X162585973Y-115221593D01*
X162588026Y-115237181D01*
X162588027Y-115237186D01*
X162640974Y-115365015D01*
X162640975Y-115365017D01*
X162640976Y-115365018D01*
X162725209Y-115474791D01*
X162834982Y-115559024D01*
X162962817Y-115611974D01*
X163085702Y-115628152D01*
X163099999Y-115630035D01*
X163100000Y-115630035D01*
X163100001Y-115630035D01*
X163112947Y-115628330D01*
X163237183Y-115611974D01*
X163365018Y-115559024D01*
X163474791Y-115474791D01*
X163559024Y-115365018D01*
X163611974Y-115237183D01*
X163630035Y-115100000D01*
X163611974Y-114962817D01*
X163563644Y-114846136D01*
X163559025Y-114834985D01*
X163559024Y-114834984D01*
X163559024Y-114834983D01*
X163474791Y-114725209D01*
X163474789Y-114725208D01*
X163474789Y-114725207D01*
X163365015Y-114640974D01*
X163237186Y-114588027D01*
X163237184Y-114588026D01*
X163237183Y-114588026D01*
X163110300Y-114571321D01*
X163100001Y-114569965D01*
X163099999Y-114569965D01*
X163089700Y-114571321D01*
X162962817Y-114588026D01*
X162962816Y-114588026D01*
X162962813Y-114588027D01*
X162834985Y-114640974D01*
X162725209Y-114725209D01*
X162640974Y-114834985D01*
X162588027Y-114962813D01*
X162588026Y-114962816D01*
X162588026Y-114962817D01*
X162569965Y-115100000D01*
X142485492Y-115100000D01*
X142461302Y-115077948D01*
X142280019Y-114965702D01*
X142280014Y-114965700D01*
X142272562Y-114962813D01*
X142251037Y-114954474D01*
X142195636Y-114911903D01*
X142172045Y-114846136D01*
X142187756Y-114778056D01*
X142237779Y-114729276D01*
X142243426Y-114726466D01*
X142442578Y-114633599D01*
X142636082Y-114498105D01*
X142803105Y-114331082D01*
X142938600Y-114137578D01*
X143038429Y-113923492D01*
X143038432Y-113923486D01*
X143095636Y-113710000D01*
X142198012Y-113710000D01*
X142230925Y-113652993D01*
X142265000Y-113525826D01*
X142265000Y-113394174D01*
X142230925Y-113267007D01*
X142198012Y-113210000D01*
X143095636Y-113210000D01*
X143095635Y-113209999D01*
X143038432Y-112996513D01*
X143038429Y-112996507D01*
X142938600Y-112782422D01*
X142938599Y-112782420D01*
X142803113Y-112588926D01*
X142803108Y-112588920D01*
X142636082Y-112421894D01*
X142442578Y-112286399D01*
X142243426Y-112193533D01*
X142190987Y-112147360D01*
X142171835Y-112080167D01*
X142192051Y-112013286D01*
X142245216Y-111967951D01*
X142251005Y-111965537D01*
X142280019Y-111954298D01*
X142448445Y-111850013D01*
X188025000Y-111850013D01*
X188025000Y-112250000D01*
X189095854Y-112250000D01*
X189057370Y-112316657D01*
X189025000Y-112437465D01*
X189025000Y-112562535D01*
X189057370Y-112683343D01*
X189095854Y-112750000D01*
X188025001Y-112750000D01*
X188025001Y-113149986D01*
X188035494Y-113252697D01*
X188090641Y-113419119D01*
X188090643Y-113419124D01*
X188182684Y-113568345D01*
X188306654Y-113692315D01*
X188455875Y-113784356D01*
X188455880Y-113784358D01*
X188622302Y-113839505D01*
X188622309Y-113839506D01*
X188725019Y-113849999D01*
X189249999Y-113849999D01*
X189250000Y-113849998D01*
X189250000Y-112904145D01*
X189316657Y-112942630D01*
X189437465Y-112975000D01*
X189562535Y-112975000D01*
X189683343Y-112942630D01*
X189750000Y-112904145D01*
X189750000Y-113849999D01*
X190274972Y-113849999D01*
X190274986Y-113849998D01*
X190377697Y-113839505D01*
X190544119Y-113784358D01*
X190544124Y-113784356D01*
X190693345Y-113692315D01*
X190817315Y-113568345D01*
X190909356Y-113419124D01*
X190909358Y-113419119D01*
X190964505Y-113252697D01*
X190964506Y-113252690D01*
X190974999Y-113149986D01*
X190975000Y-113149973D01*
X190975000Y-112750000D01*
X189904146Y-112750000D01*
X189942630Y-112683343D01*
X189975000Y-112562535D01*
X189975000Y-112437465D01*
X189942630Y-112316657D01*
X189904146Y-112250000D01*
X190974999Y-112250000D01*
X190974999Y-111850028D01*
X190974998Y-111850013D01*
X190964505Y-111747302D01*
X190909358Y-111580880D01*
X190909356Y-111580875D01*
X190817315Y-111431654D01*
X190693345Y-111307684D01*
X190544124Y-111215643D01*
X190544119Y-111215641D01*
X190377697Y-111160494D01*
X190377692Y-111160493D01*
X190356226Y-111158300D01*
X190291536Y-111131901D01*
X190251386Y-111074719D01*
X190248525Y-111004908D01*
X190283861Y-110944633D01*
X190295938Y-110934631D01*
X190374501Y-110877553D01*
X190502553Y-110749501D01*
X190608996Y-110602994D01*
X190691211Y-110441639D01*
X190747171Y-110269409D01*
X190770010Y-110125209D01*
X190775500Y-110090551D01*
X190775500Y-109909448D01*
X190754753Y-109778462D01*
X190747171Y-109730591D01*
X190691211Y-109558361D01*
X190691211Y-109558360D01*
X190650907Y-109479260D01*
X190608996Y-109397006D01*
X190561326Y-109331393D01*
X190502558Y-109250505D01*
X190502554Y-109250500D01*
X190374499Y-109122445D01*
X190374494Y-109122441D01*
X190227997Y-109016006D01*
X190227996Y-109016005D01*
X190227994Y-109016004D01*
X190173530Y-108988253D01*
X190066639Y-108933788D01*
X190066636Y-108933787D01*
X189894410Y-108877829D01*
X189860594Y-108872473D01*
X189797459Y-108842544D01*
X189760528Y-108783232D01*
X189761526Y-108713370D01*
X189800136Y-108655137D01*
X189860594Y-108627527D01*
X189868388Y-108626292D01*
X189894409Y-108622171D01*
X190066639Y-108566211D01*
X190227994Y-108483996D01*
X190374501Y-108377553D01*
X190502553Y-108249501D01*
X190608996Y-108102994D01*
X190691211Y-107941639D01*
X190747171Y-107769409D01*
X190761765Y-107677259D01*
X190775500Y-107590551D01*
X190775500Y-107409448D01*
X190754647Y-107277793D01*
X190747171Y-107230591D01*
X190691211Y-107058361D01*
X190691211Y-107058360D01*
X190662740Y-107002484D01*
X190608996Y-106897006D01*
X190574854Y-106850013D01*
X190502558Y-106750505D01*
X190502554Y-106750500D01*
X190374499Y-106622445D01*
X190374494Y-106622441D01*
X190227997Y-106516006D01*
X190227996Y-106516005D01*
X190227994Y-106516004D01*
X190176300Y-106489664D01*
X190066639Y-106433788D01*
X190066636Y-106433787D01*
X189894410Y-106377829D01*
X189715551Y-106349500D01*
X189715546Y-106349500D01*
X189284454Y-106349500D01*
X189284449Y-106349500D01*
X189105589Y-106377829D01*
X188933363Y-106433787D01*
X188933360Y-106433788D01*
X188772002Y-106516006D01*
X188625505Y-106622441D01*
X188625500Y-106622445D01*
X188497445Y-106750500D01*
X188497441Y-106750505D01*
X188391006Y-106897002D01*
X188308788Y-107058360D01*
X188308787Y-107058363D01*
X188252829Y-107230589D01*
X188224500Y-107409448D01*
X188224500Y-107590551D01*
X188252829Y-107769410D01*
X188308787Y-107941636D01*
X188308788Y-107941639D01*
X188391006Y-108102997D01*
X188497441Y-108249494D01*
X188497445Y-108249499D01*
X188625500Y-108377554D01*
X188625505Y-108377558D01*
X188688401Y-108423254D01*
X188772006Y-108483996D01*
X188874163Y-108536048D01*
X188933360Y-108566211D01*
X188933363Y-108566212D01*
X189013687Y-108592310D01*
X189105591Y-108622171D01*
X189130291Y-108626083D01*
X189139406Y-108627527D01*
X189202540Y-108657457D01*
X189239471Y-108716768D01*
X189238473Y-108786631D01*
X189199863Y-108844863D01*
X189139406Y-108872473D01*
X189105589Y-108877829D01*
X188933363Y-108933787D01*
X188933360Y-108933788D01*
X188772002Y-109016006D01*
X188625505Y-109122441D01*
X188625500Y-109122445D01*
X188497445Y-109250500D01*
X188497441Y-109250505D01*
X188391006Y-109397002D01*
X188308788Y-109558360D01*
X188308787Y-109558363D01*
X188252829Y-109730589D01*
X188224500Y-109909448D01*
X188224500Y-110090551D01*
X188252829Y-110269410D01*
X188308787Y-110441636D01*
X188308788Y-110441639D01*
X188357970Y-110538162D01*
X188386858Y-110594858D01*
X188391006Y-110602997D01*
X188497441Y-110749494D01*
X188497445Y-110749499D01*
X188625500Y-110877554D01*
X188625505Y-110877558D01*
X188704051Y-110934625D01*
X188746717Y-110989954D01*
X188752696Y-111059568D01*
X188720091Y-111121363D01*
X188659252Y-111155720D01*
X188643769Y-111158301D01*
X188622302Y-111160494D01*
X188455880Y-111215641D01*
X188455875Y-111215643D01*
X188306654Y-111307684D01*
X188182684Y-111431654D01*
X188090643Y-111580875D01*
X188090641Y-111580880D01*
X188035494Y-111747302D01*
X188035493Y-111747309D01*
X188025000Y-111850013D01*
X142448445Y-111850013D01*
X142461302Y-111842052D01*
X142618872Y-111698407D01*
X142747366Y-111528255D01*
X142794404Y-111433789D01*
X142842403Y-111337394D01*
X142842403Y-111337393D01*
X142842405Y-111337389D01*
X142900756Y-111132310D01*
X142920429Y-110920000D01*
X142900756Y-110707690D01*
X142842405Y-110502611D01*
X142842403Y-110502606D01*
X142842403Y-110502605D01*
X142841106Y-110500000D01*
X164769965Y-110500000D01*
X164787697Y-110634686D01*
X164788026Y-110637181D01*
X164788027Y-110637186D01*
X164840974Y-110765015D01*
X164840975Y-110765017D01*
X164840976Y-110765018D01*
X164925209Y-110874791D01*
X165034982Y-110959024D01*
X165034983Y-110959024D01*
X165034984Y-110959025D01*
X165077593Y-110976674D01*
X165162817Y-111011974D01*
X165285702Y-111028152D01*
X165299999Y-111030035D01*
X165300000Y-111030035D01*
X165300001Y-111030035D01*
X165312947Y-111028330D01*
X165437183Y-111011974D01*
X165565018Y-110959024D01*
X165674791Y-110874791D01*
X165759024Y-110765018D01*
X165811974Y-110637183D01*
X165830035Y-110500000D01*
X165811974Y-110362817D01*
X165759024Y-110234983D01*
X165674791Y-110125209D01*
X165674789Y-110125208D01*
X165674789Y-110125207D01*
X165565015Y-110040974D01*
X165466090Y-109999999D01*
X174754357Y-109999999D01*
X174754357Y-110000000D01*
X174774884Y-110221535D01*
X174774885Y-110221537D01*
X174835769Y-110435523D01*
X174835775Y-110435538D01*
X174934938Y-110634683D01*
X174934943Y-110634691D01*
X175069020Y-110812238D01*
X175186346Y-110919194D01*
X175230037Y-110959024D01*
X175233437Y-110962123D01*
X175233439Y-110962125D01*
X175422595Y-111079245D01*
X175422596Y-111079245D01*
X175422599Y-111079247D01*
X175630060Y-111159618D01*
X175848757Y-111200500D01*
X175848759Y-111200500D01*
X176071241Y-111200500D01*
X176071243Y-111200500D01*
X176289940Y-111159618D01*
X176497401Y-111079247D01*
X176686562Y-110962124D01*
X176850981Y-110812236D01*
X176985058Y-110634689D01*
X176985060Y-110634683D01*
X176985063Y-110634680D01*
X177004890Y-110594861D01*
X177007609Y-110589399D01*
X177055111Y-110538162D01*
X177122773Y-110520739D01*
X177189114Y-110542663D01*
X177232166Y-110594858D01*
X177264516Y-110668608D01*
X177348812Y-110797633D01*
X178017037Y-110129408D01*
X178034075Y-110192993D01*
X178099901Y-110307007D01*
X178192993Y-110400099D01*
X178307007Y-110465925D01*
X178370590Y-110482962D01*
X177701201Y-111152351D01*
X177731649Y-111176050D01*
X177935697Y-111286476D01*
X177935706Y-111286479D01*
X178155139Y-111361811D01*
X178383993Y-111400000D01*
X178616007Y-111400000D01*
X178844860Y-111361811D01*
X179064293Y-111286479D01*
X179064301Y-111286476D01*
X179268355Y-111176047D01*
X179298797Y-111152351D01*
X179298798Y-111152350D01*
X178629410Y-110482962D01*
X178692993Y-110465925D01*
X178807007Y-110400099D01*
X178900099Y-110307007D01*
X178965925Y-110192993D01*
X178982962Y-110129409D01*
X179651186Y-110797633D01*
X179735482Y-110668612D01*
X179767831Y-110594861D01*
X179812787Y-110541374D01*
X179879522Y-110520683D01*
X179946850Y-110539357D01*
X179992388Y-110589396D01*
X180014940Y-110634686D01*
X180014943Y-110634691D01*
X180149020Y-110812238D01*
X180266346Y-110919194D01*
X180310037Y-110959024D01*
X180313437Y-110962123D01*
X180313439Y-110962125D01*
X180502595Y-111079245D01*
X180502596Y-111079245D01*
X180502599Y-111079247D01*
X180710060Y-111159618D01*
X180928757Y-111200500D01*
X180928759Y-111200500D01*
X181151241Y-111200500D01*
X181151243Y-111200500D01*
X181369940Y-111159618D01*
X181577401Y-111079247D01*
X181766562Y-110962124D01*
X181930981Y-110812236D01*
X182065058Y-110634689D01*
X182164229Y-110435528D01*
X182225115Y-110221536D01*
X182245643Y-110000000D01*
X182244533Y-109988026D01*
X182225115Y-109778464D01*
X182225114Y-109778462D01*
X182223695Y-109773476D01*
X182164229Y-109564472D01*
X182164224Y-109564461D01*
X182065061Y-109365316D01*
X182065056Y-109365308D01*
X181930979Y-109187761D01*
X181766562Y-109037876D01*
X181766560Y-109037874D01*
X181577404Y-108920754D01*
X181577398Y-108920752D01*
X181369940Y-108840382D01*
X181151243Y-108799500D01*
X180928757Y-108799500D01*
X180710060Y-108840382D01*
X180578864Y-108891207D01*
X180502601Y-108920752D01*
X180502595Y-108920754D01*
X180313439Y-109037874D01*
X180313437Y-109037876D01*
X180149020Y-109187761D01*
X180014943Y-109365308D01*
X180014938Y-109365317D01*
X179992387Y-109410604D01*
X179944883Y-109461840D01*
X179877220Y-109479260D01*
X179810880Y-109457333D01*
X179767832Y-109405139D01*
X179735485Y-109331395D01*
X179651186Y-109202365D01*
X178982962Y-109870589D01*
X178965925Y-109807007D01*
X178900099Y-109692993D01*
X178807007Y-109599901D01*
X178692993Y-109534075D01*
X178629409Y-109517037D01*
X179298797Y-108847647D01*
X179298797Y-108847645D01*
X179268360Y-108823955D01*
X179268354Y-108823951D01*
X179064302Y-108713523D01*
X179064293Y-108713520D01*
X178844860Y-108638188D01*
X178616007Y-108600000D01*
X178383993Y-108600000D01*
X178155139Y-108638188D01*
X177935706Y-108713520D01*
X177935697Y-108713523D01*
X177731650Y-108823949D01*
X177701200Y-108847647D01*
X178370591Y-109517037D01*
X178307007Y-109534075D01*
X178192993Y-109599901D01*
X178099901Y-109692993D01*
X178034075Y-109807007D01*
X178017037Y-109870591D01*
X177348811Y-109202365D01*
X177264514Y-109331393D01*
X177232165Y-109405141D01*
X177187209Y-109458627D01*
X177120473Y-109479316D01*
X177053145Y-109460641D01*
X177007609Y-109410600D01*
X176985060Y-109365315D01*
X176985056Y-109365308D01*
X176850979Y-109187761D01*
X176686562Y-109037876D01*
X176686560Y-109037874D01*
X176497404Y-108920754D01*
X176497398Y-108920752D01*
X176289940Y-108840382D01*
X176071243Y-108799500D01*
X175848757Y-108799500D01*
X175630060Y-108840382D01*
X175498864Y-108891207D01*
X175422601Y-108920752D01*
X175422595Y-108920754D01*
X175233439Y-109037874D01*
X175233437Y-109037876D01*
X175069020Y-109187761D01*
X174934943Y-109365308D01*
X174934938Y-109365316D01*
X174835775Y-109564461D01*
X174835769Y-109564476D01*
X174774885Y-109778462D01*
X174774884Y-109778464D01*
X174754357Y-109999999D01*
X165466090Y-109999999D01*
X165437186Y-109988027D01*
X165437184Y-109988026D01*
X165437183Y-109988026D01*
X165345727Y-109975985D01*
X165300001Y-109969965D01*
X165299999Y-109969965D01*
X165231408Y-109978995D01*
X165162817Y-109988026D01*
X165162816Y-109988026D01*
X165162813Y-109988027D01*
X165034985Y-110040974D01*
X164925209Y-110125209D01*
X164840974Y-110234985D01*
X164788027Y-110362813D01*
X164788026Y-110362816D01*
X164788026Y-110362817D01*
X164769965Y-110500000D01*
X142841106Y-110500000D01*
X142747367Y-110311746D01*
X142618872Y-110141593D01*
X142600900Y-110125209D01*
X142461302Y-109997948D01*
X142280019Y-109885702D01*
X142280017Y-109885701D01*
X142180608Y-109847190D01*
X142081198Y-109808679D01*
X141884385Y-109771888D01*
X141822106Y-109740221D01*
X141786833Y-109679908D01*
X141789767Y-109610100D01*
X141829976Y-109552960D01*
X141884384Y-109528111D01*
X142081198Y-109491321D01*
X142280019Y-109414298D01*
X142461302Y-109302052D01*
X142618872Y-109158407D01*
X142747366Y-108988255D01*
X142776356Y-108930035D01*
X142842403Y-108797394D01*
X142842403Y-108797393D01*
X142842405Y-108797389D01*
X142900756Y-108592310D01*
X142918576Y-108400000D01*
X167869965Y-108400000D01*
X167879050Y-108469009D01*
X167888026Y-108537181D01*
X167888027Y-108537186D01*
X167940974Y-108665015D01*
X167940975Y-108665017D01*
X167940976Y-108665018D01*
X168025209Y-108774791D01*
X168134982Y-108859024D01*
X168262817Y-108911974D01*
X168385702Y-108928152D01*
X168399999Y-108930035D01*
X168400000Y-108930035D01*
X168400001Y-108930035D01*
X168412947Y-108928330D01*
X168537183Y-108911974D01*
X168665018Y-108859024D01*
X168774791Y-108774791D01*
X168859024Y-108665018D01*
X168911974Y-108537183D01*
X168930035Y-108400000D01*
X168911974Y-108262817D01*
X168859024Y-108134983D01*
X168774791Y-108025209D01*
X168774789Y-108025208D01*
X168774789Y-108025207D01*
X168693205Y-107962605D01*
X168665018Y-107940976D01*
X168665017Y-107940975D01*
X168665015Y-107940974D01*
X168537186Y-107888027D01*
X168537184Y-107888026D01*
X168537183Y-107888026D01*
X168445727Y-107875985D01*
X168400001Y-107869965D01*
X168399999Y-107869965D01*
X168331408Y-107878995D01*
X168262817Y-107888026D01*
X168262816Y-107888026D01*
X168262813Y-107888027D01*
X168134985Y-107940974D01*
X168025209Y-108025209D01*
X167940974Y-108134985D01*
X167888027Y-108262813D01*
X167888026Y-108262816D01*
X167888026Y-108262817D01*
X167869965Y-108400000D01*
X142918576Y-108400000D01*
X142920429Y-108380000D01*
X142900756Y-108167690D01*
X142842405Y-107962611D01*
X142842403Y-107962606D01*
X142842403Y-107962605D01*
X142747367Y-107771746D01*
X142618872Y-107601593D01*
X142606754Y-107590546D01*
X142461302Y-107457948D01*
X142280019Y-107345702D01*
X142280017Y-107345701D01*
X142180608Y-107307190D01*
X142081198Y-107268679D01*
X141871610Y-107229500D01*
X141658390Y-107229500D01*
X141448802Y-107268679D01*
X141448799Y-107268679D01*
X141448799Y-107268680D01*
X141249982Y-107345701D01*
X141249980Y-107345702D01*
X141068699Y-107457947D01*
X140911127Y-107601593D01*
X140782632Y-107771746D01*
X140687596Y-107962605D01*
X140687596Y-107962607D01*
X140629244Y-108167689D01*
X140622970Y-108235394D01*
X140597183Y-108300331D01*
X140540383Y-108341018D01*
X140470602Y-108344538D01*
X140409995Y-108309772D01*
X140377806Y-108247759D01*
X140375499Y-108223952D01*
X140375499Y-107485143D01*
X140375499Y-107485136D01*
X140375497Y-107485117D01*
X140372586Y-107460012D01*
X140372585Y-107460010D01*
X140372585Y-107460009D01*
X140327206Y-107357235D01*
X140247765Y-107277794D01*
X140227124Y-107268680D01*
X140144992Y-107232415D01*
X140119865Y-107229500D01*
X138330143Y-107229500D01*
X138330117Y-107229502D01*
X138305012Y-107232413D01*
X138305008Y-107232415D01*
X138202235Y-107277793D01*
X138122794Y-107357234D01*
X138077415Y-107460006D01*
X138077415Y-107460008D01*
X138074500Y-107485131D01*
X138074500Y-109274856D01*
X138074502Y-109274882D01*
X138077413Y-109299987D01*
X138077415Y-109299991D01*
X138122793Y-109402764D01*
X138122794Y-109402765D01*
X138202235Y-109482206D01*
X138305009Y-109527585D01*
X138330135Y-109530500D01*
X139058758Y-109530499D01*
X139125795Y-109550183D01*
X139171550Y-109602987D01*
X139181494Y-109672146D01*
X139152469Y-109735702D01*
X139093691Y-109773476D01*
X139081542Y-109776388D01*
X139070437Y-109778464D01*
X138908802Y-109808679D01*
X138908800Y-109808679D01*
X138908798Y-109808680D01*
X138709982Y-109885701D01*
X138709980Y-109885702D01*
X138528699Y-109997947D01*
X138371127Y-110141593D01*
X138242632Y-110311746D01*
X138147596Y-110502605D01*
X138147596Y-110502607D01*
X138089244Y-110707689D01*
X138069571Y-110919999D01*
X131841079Y-110919999D01*
X131899501Y-110877553D01*
X132027553Y-110749501D01*
X132133996Y-110602994D01*
X132216211Y-110441639D01*
X132272171Y-110269409D01*
X132295010Y-110125209D01*
X132300500Y-110090551D01*
X132300500Y-109909448D01*
X132279753Y-109778462D01*
X132272171Y-109730591D01*
X132216211Y-109558361D01*
X132216211Y-109558360D01*
X132175907Y-109479260D01*
X132133996Y-109397006D01*
X132086326Y-109331393D01*
X132027558Y-109250505D01*
X132027554Y-109250500D01*
X131899499Y-109122445D01*
X131899494Y-109122441D01*
X131820948Y-109065374D01*
X131778282Y-109010044D01*
X131772303Y-108940431D01*
X131804909Y-108878636D01*
X131865747Y-108844279D01*
X131881235Y-108841698D01*
X131902696Y-108839506D01*
X132069119Y-108784358D01*
X132069124Y-108784356D01*
X132218345Y-108692315D01*
X132342315Y-108568345D01*
X132434356Y-108419124D01*
X132434358Y-108419119D01*
X132489505Y-108252697D01*
X132489506Y-108252690D01*
X132499999Y-108149986D01*
X132500000Y-108149973D01*
X132500000Y-107750000D01*
X131429146Y-107750000D01*
X131467630Y-107683343D01*
X131500000Y-107562535D01*
X131500000Y-107437465D01*
X131467630Y-107316657D01*
X131429146Y-107250000D01*
X132499999Y-107250000D01*
X132499999Y-106850028D01*
X132499998Y-106850013D01*
X132489505Y-106747302D01*
X132434358Y-106580880D01*
X132434356Y-106580875D01*
X132342315Y-106431654D01*
X132218345Y-106307684D01*
X132069124Y-106215643D01*
X132069119Y-106215641D01*
X132021918Y-106200000D01*
X162369965Y-106200000D01*
X162372024Y-106215643D01*
X162388026Y-106337181D01*
X162388027Y-106337186D01*
X162440974Y-106465015D01*
X162440975Y-106465017D01*
X162440976Y-106465018D01*
X162525209Y-106574791D01*
X162634982Y-106659024D01*
X162762817Y-106711974D01*
X162885702Y-106728152D01*
X162899999Y-106730035D01*
X162900000Y-106730035D01*
X162900001Y-106730035D01*
X162912947Y-106728330D01*
X163037183Y-106711974D01*
X163165018Y-106659024D01*
X163274791Y-106574791D01*
X163359024Y-106465018D01*
X163411974Y-106337183D01*
X163430035Y-106200000D01*
X163411974Y-106062817D01*
X163359024Y-105934983D01*
X163274791Y-105825209D01*
X163274789Y-105825208D01*
X163274789Y-105825207D01*
X163165015Y-105740974D01*
X163037186Y-105688027D01*
X163037184Y-105688026D01*
X163037183Y-105688026D01*
X162945727Y-105675985D01*
X162900001Y-105669965D01*
X162899999Y-105669965D01*
X162831408Y-105678995D01*
X162762817Y-105688026D01*
X162762816Y-105688026D01*
X162762813Y-105688027D01*
X162634985Y-105740974D01*
X162525209Y-105825209D01*
X162440974Y-105934985D01*
X162388027Y-106062813D01*
X162388026Y-106062816D01*
X162388026Y-106062817D01*
X162369965Y-106200000D01*
X132021918Y-106200000D01*
X131902697Y-106160494D01*
X131902690Y-106160493D01*
X131799986Y-106150000D01*
X131275000Y-106150000D01*
X131275000Y-107095854D01*
X131208343Y-107057370D01*
X131087535Y-107025000D01*
X130962465Y-107025000D01*
X130841657Y-107057370D01*
X130775000Y-107095854D01*
X130775000Y-106150000D01*
X130250028Y-106150000D01*
X130250012Y-106150001D01*
X130147302Y-106160494D01*
X129980880Y-106215641D01*
X129980875Y-106215643D01*
X129831654Y-106307684D01*
X129707684Y-106431654D01*
X129615643Y-106580875D01*
X129615641Y-106580880D01*
X129560494Y-106747302D01*
X129560493Y-106747309D01*
X129550000Y-106850013D01*
X127000500Y-106850013D01*
X127000500Y-105499999D01*
X158069965Y-105499999D01*
X158069965Y-105500000D01*
X158088026Y-105637181D01*
X158088027Y-105637186D01*
X158140974Y-105765015D01*
X158140975Y-105765017D01*
X158140976Y-105765018D01*
X158225209Y-105874791D01*
X158334982Y-105959024D01*
X158462817Y-106011974D01*
X158585702Y-106028152D01*
X158599999Y-106030035D01*
X158600000Y-106030035D01*
X158600001Y-106030035D01*
X158612947Y-106028330D01*
X158737183Y-106011974D01*
X158865018Y-105959024D01*
X158974791Y-105874791D01*
X159059024Y-105765018D01*
X159111974Y-105637183D01*
X159130035Y-105500000D01*
X159130035Y-105499999D01*
X169269965Y-105499999D01*
X169269965Y-105500000D01*
X169288026Y-105637181D01*
X169288027Y-105637186D01*
X169340974Y-105765015D01*
X169340975Y-105765017D01*
X169340976Y-105765018D01*
X169425209Y-105874791D01*
X169534982Y-105959024D01*
X169662817Y-106011974D01*
X169785702Y-106028152D01*
X169799999Y-106030035D01*
X169800000Y-106030035D01*
X169800001Y-106030035D01*
X169812947Y-106028330D01*
X169937183Y-106011974D01*
X170065018Y-105959024D01*
X170174791Y-105874791D01*
X170259024Y-105765018D01*
X170311974Y-105637183D01*
X170330035Y-105500000D01*
X170311974Y-105362817D01*
X170259024Y-105234983D01*
X170174791Y-105125209D01*
X170174789Y-105125208D01*
X170174789Y-105125207D01*
X170065015Y-105040974D01*
X169937186Y-104988027D01*
X169937184Y-104988026D01*
X169937183Y-104988026D01*
X169845727Y-104975985D01*
X169800001Y-104969965D01*
X169799999Y-104969965D01*
X169731408Y-104978995D01*
X169662817Y-104988026D01*
X169662816Y-104988026D01*
X169662813Y-104988027D01*
X169534985Y-105040974D01*
X169425209Y-105125209D01*
X169340974Y-105234985D01*
X169288027Y-105362813D01*
X169288026Y-105362818D01*
X169269965Y-105499999D01*
X159130035Y-105499999D01*
X159111974Y-105362817D01*
X159059024Y-105234983D01*
X158974791Y-105125209D01*
X158974789Y-105125208D01*
X158974789Y-105125207D01*
X158865015Y-105040974D01*
X158737186Y-104988027D01*
X158737184Y-104988026D01*
X158737183Y-104988026D01*
X158645727Y-104975985D01*
X158600001Y-104969965D01*
X158599999Y-104969965D01*
X158531408Y-104978995D01*
X158462817Y-104988026D01*
X158462816Y-104988026D01*
X158462813Y-104988027D01*
X158334985Y-105040974D01*
X158225209Y-105125209D01*
X158140974Y-105234985D01*
X158088027Y-105362813D01*
X158088026Y-105362818D01*
X158069965Y-105499999D01*
X127000500Y-105499999D01*
X127000500Y-103499999D01*
X157469965Y-103499999D01*
X157469965Y-103500000D01*
X157488026Y-103637181D01*
X157488027Y-103637186D01*
X157540974Y-103765015D01*
X157540975Y-103765017D01*
X157540976Y-103765018D01*
X157625209Y-103874791D01*
X157734982Y-103959024D01*
X157862817Y-104011974D01*
X157985702Y-104028152D01*
X157999999Y-104030035D01*
X158000000Y-104030035D01*
X158000001Y-104030035D01*
X158012947Y-104028330D01*
X158137183Y-104011974D01*
X158265018Y-103959024D01*
X158374791Y-103874791D01*
X158459024Y-103765018D01*
X158511974Y-103637183D01*
X158530035Y-103500000D01*
X158511974Y-103362817D01*
X158485955Y-103300000D01*
X170369965Y-103300000D01*
X170378235Y-103362818D01*
X170388026Y-103437181D01*
X170388027Y-103437186D01*
X170440974Y-103565015D01*
X170440975Y-103565017D01*
X170440976Y-103565018D01*
X170525209Y-103674791D01*
X170634982Y-103759024D01*
X170762817Y-103811974D01*
X170885702Y-103828152D01*
X170899999Y-103830035D01*
X170900000Y-103830035D01*
X170900001Y-103830035D01*
X170912947Y-103828330D01*
X171037183Y-103811974D01*
X171165018Y-103759024D01*
X171274791Y-103674791D01*
X171359024Y-103565018D01*
X171411974Y-103437183D01*
X171430035Y-103300000D01*
X171411974Y-103162817D01*
X171376674Y-103077594D01*
X171359025Y-103034985D01*
X171359024Y-103034984D01*
X171359024Y-103034983D01*
X171274791Y-102925209D01*
X171274789Y-102925208D01*
X171274789Y-102925207D01*
X171165015Y-102840974D01*
X171037186Y-102788027D01*
X171037184Y-102788026D01*
X171037183Y-102788026D01*
X170945727Y-102775985D01*
X170900001Y-102769965D01*
X170899999Y-102769965D01*
X170831408Y-102778995D01*
X170762817Y-102788026D01*
X170762816Y-102788026D01*
X170762813Y-102788027D01*
X170634985Y-102840974D01*
X170525209Y-102925209D01*
X170440974Y-103034985D01*
X170388027Y-103162813D01*
X170388026Y-103162816D01*
X170388026Y-103162817D01*
X170369965Y-103300000D01*
X158485955Y-103300000D01*
X158459024Y-103234983D01*
X158374791Y-103125209D01*
X158374789Y-103125208D01*
X158374789Y-103125207D01*
X158265015Y-103040974D01*
X158137186Y-102988027D01*
X158137184Y-102988026D01*
X158137183Y-102988026D01*
X158045727Y-102975985D01*
X158000001Y-102969965D01*
X157999999Y-102969965D01*
X157931408Y-102978995D01*
X157862817Y-102988026D01*
X157862816Y-102988026D01*
X157862813Y-102988027D01*
X157734985Y-103040974D01*
X157625209Y-103125209D01*
X157540974Y-103234985D01*
X157488027Y-103362813D01*
X157488026Y-103362818D01*
X157469965Y-103499999D01*
X127000500Y-103499999D01*
X127000500Y-100800000D01*
X151869965Y-100800000D01*
X151883130Y-100899999D01*
X151888026Y-100937181D01*
X151888027Y-100937186D01*
X151940974Y-101065015D01*
X151940975Y-101065017D01*
X151940976Y-101065018D01*
X152025209Y-101174791D01*
X152134982Y-101259024D01*
X152262817Y-101311974D01*
X152385702Y-101328152D01*
X152399999Y-101330035D01*
X152400000Y-101330035D01*
X152400001Y-101330035D01*
X152412947Y-101328330D01*
X152537183Y-101311974D01*
X152665018Y-101259024D01*
X152774791Y-101174791D01*
X152859024Y-101065018D01*
X152911974Y-100937183D01*
X152916870Y-100899999D01*
X158369965Y-100899999D01*
X158369965Y-100900000D01*
X158388026Y-101037181D01*
X158388027Y-101037186D01*
X158440974Y-101165015D01*
X158440975Y-101165017D01*
X158440976Y-101165018D01*
X158525209Y-101274791D01*
X158634982Y-101359024D01*
X158762817Y-101411974D01*
X158885702Y-101428152D01*
X158899999Y-101430035D01*
X158900000Y-101430035D01*
X158900001Y-101430035D01*
X158912947Y-101428330D01*
X159037183Y-101411974D01*
X159165018Y-101359024D01*
X159274791Y-101274791D01*
X159301624Y-101239821D01*
X159358052Y-101198619D01*
X159427798Y-101194464D01*
X159488718Y-101228676D01*
X159498375Y-101239821D01*
X159525209Y-101274791D01*
X159634982Y-101359024D01*
X159762817Y-101411974D01*
X159885702Y-101428152D01*
X159899999Y-101430035D01*
X159900000Y-101430035D01*
X159900001Y-101430035D01*
X159912947Y-101428330D01*
X160037183Y-101411974D01*
X160165018Y-101359024D01*
X160274791Y-101274791D01*
X160359024Y-101165018D01*
X160411974Y-101037183D01*
X160430035Y-100900000D01*
X160411974Y-100762817D01*
X160359024Y-100634983D01*
X160274791Y-100525209D01*
X160274789Y-100525208D01*
X160274789Y-100525207D01*
X160165015Y-100440974D01*
X160037186Y-100388027D01*
X160037184Y-100388026D01*
X160037183Y-100388026D01*
X159945727Y-100375985D01*
X159900001Y-100369965D01*
X159899999Y-100369965D01*
X159831408Y-100378995D01*
X159762817Y-100388026D01*
X159762816Y-100388026D01*
X159762813Y-100388027D01*
X159634985Y-100440974D01*
X159525206Y-100525211D01*
X159498375Y-100560179D01*
X159441947Y-100601382D01*
X159372201Y-100605536D01*
X159311281Y-100571323D01*
X159301625Y-100560179D01*
X159274791Y-100525209D01*
X159209086Y-100474791D01*
X159165018Y-100440976D01*
X159165017Y-100440975D01*
X159165015Y-100440974D01*
X159037186Y-100388027D01*
X159037184Y-100388026D01*
X159037183Y-100388026D01*
X158945727Y-100375985D01*
X158900001Y-100369965D01*
X158899999Y-100369965D01*
X158831408Y-100378995D01*
X158762817Y-100388026D01*
X158762816Y-100388026D01*
X158762813Y-100388027D01*
X158634985Y-100440974D01*
X158525209Y-100525209D01*
X158440974Y-100634985D01*
X158388027Y-100762813D01*
X158388026Y-100762818D01*
X158369965Y-100899999D01*
X152916870Y-100899999D01*
X152930035Y-100800000D01*
X152911974Y-100662817D01*
X152859024Y-100534983D01*
X152774791Y-100425209D01*
X152774789Y-100425208D01*
X152774789Y-100425207D01*
X152665015Y-100340974D01*
X152537186Y-100288027D01*
X152537184Y-100288026D01*
X152537183Y-100288026D01*
X152445727Y-100275985D01*
X152400001Y-100269965D01*
X152399999Y-100269965D01*
X152331408Y-100278995D01*
X152262817Y-100288026D01*
X152262816Y-100288026D01*
X152262813Y-100288027D01*
X152134985Y-100340974D01*
X152025209Y-100425209D01*
X151940974Y-100534985D01*
X151888027Y-100662813D01*
X151888026Y-100662816D01*
X151888026Y-100662817D01*
X151869965Y-100800000D01*
X127000500Y-100800000D01*
X127000500Y-99600000D01*
X173469965Y-99600000D01*
X173486449Y-99725207D01*
X173488026Y-99737181D01*
X173488027Y-99737186D01*
X173540974Y-99865015D01*
X173540975Y-99865017D01*
X173540976Y-99865018D01*
X173625209Y-99974791D01*
X173734982Y-100059024D01*
X173862817Y-100111974D01*
X173985702Y-100128152D01*
X173999999Y-100130035D01*
X174000000Y-100130035D01*
X174000001Y-100130035D01*
X174012947Y-100128330D01*
X174137183Y-100111974D01*
X174166094Y-100099999D01*
X185169965Y-100099999D01*
X185169965Y-100100000D01*
X185188026Y-100237181D01*
X185188027Y-100237186D01*
X185240974Y-100365015D01*
X185240975Y-100365017D01*
X185240976Y-100365018D01*
X185325209Y-100474791D01*
X185434982Y-100559024D01*
X185562817Y-100611974D01*
X185685702Y-100628152D01*
X185699999Y-100630035D01*
X185700000Y-100630035D01*
X185700001Y-100630035D01*
X185712947Y-100628330D01*
X185837183Y-100611974D01*
X185965018Y-100559024D01*
X186074791Y-100474791D01*
X186159024Y-100365018D01*
X186211974Y-100237183D01*
X186230035Y-100100000D01*
X186211974Y-99962817D01*
X186159024Y-99834983D01*
X186074791Y-99725209D01*
X186074789Y-99725208D01*
X186074789Y-99725207D01*
X185965015Y-99640974D01*
X185837186Y-99588027D01*
X185837184Y-99588026D01*
X185837183Y-99588026D01*
X185745727Y-99575985D01*
X185700001Y-99569965D01*
X185699999Y-99569965D01*
X185631408Y-99578995D01*
X185562817Y-99588026D01*
X185562816Y-99588026D01*
X185562813Y-99588027D01*
X185434985Y-99640974D01*
X185325209Y-99725209D01*
X185240974Y-99834985D01*
X185188027Y-99962813D01*
X185188026Y-99962818D01*
X185169965Y-100099999D01*
X174166094Y-100099999D01*
X174265018Y-100059024D01*
X174374791Y-99974791D01*
X174459024Y-99865018D01*
X174511974Y-99737183D01*
X174530035Y-99600000D01*
X174511974Y-99462817D01*
X174459024Y-99334983D01*
X174374791Y-99225209D01*
X174374789Y-99225208D01*
X174374789Y-99225207D01*
X174265015Y-99140974D01*
X174137186Y-99088027D01*
X174137184Y-99088026D01*
X174137183Y-99088026D01*
X174045727Y-99075985D01*
X174000001Y-99069965D01*
X173999999Y-99069965D01*
X173931408Y-99078995D01*
X173862817Y-99088026D01*
X173862816Y-99088026D01*
X173862813Y-99088027D01*
X173734985Y-99140974D01*
X173625209Y-99225209D01*
X173540974Y-99334985D01*
X173488027Y-99462813D01*
X173488026Y-99462816D01*
X173488026Y-99462817D01*
X173469965Y-99600000D01*
X127000500Y-99600000D01*
X127000500Y-95003051D01*
X127000575Y-94999996D01*
X127645170Y-94999996D01*
X127645170Y-95000003D01*
X127664473Y-95331426D01*
X127664474Y-95331437D01*
X127722118Y-95658351D01*
X127722121Y-95658365D01*
X127817336Y-95976408D01*
X127948827Y-96281236D01*
X127948833Y-96281249D01*
X128114824Y-96568755D01*
X128312357Y-96834087D01*
X129384727Y-95761716D01*
X129470278Y-95879466D01*
X129620534Y-96029722D01*
X129738281Y-96115270D01*
X128669289Y-97184263D01*
X128795215Y-97289925D01*
X129072588Y-97472356D01*
X129369252Y-97621347D01*
X129369258Y-97621350D01*
X129681213Y-97734892D01*
X129681234Y-97734899D01*
X130004248Y-97811456D01*
X130004263Y-97811458D01*
X130334012Y-97849999D01*
X130334013Y-97850000D01*
X130665987Y-97850000D01*
X130665987Y-97849999D01*
X130995736Y-97811458D01*
X130995751Y-97811456D01*
X131318765Y-97734899D01*
X131318786Y-97734892D01*
X131630741Y-97621350D01*
X131630747Y-97621347D01*
X131673252Y-97600000D01*
X173369965Y-97600000D01*
X173387725Y-97734899D01*
X173388026Y-97737181D01*
X173388027Y-97737186D01*
X173440974Y-97865015D01*
X173440975Y-97865017D01*
X173440976Y-97865018D01*
X173525209Y-97974791D01*
X173634982Y-98059024D01*
X173762817Y-98111974D01*
X173885702Y-98128152D01*
X173899999Y-98130035D01*
X173900000Y-98130035D01*
X173900001Y-98130035D01*
X173912947Y-98128330D01*
X174037183Y-98111974D01*
X174165018Y-98059024D01*
X174274791Y-97974791D01*
X174359024Y-97865018D01*
X174411974Y-97737183D01*
X174430035Y-97600000D01*
X174411974Y-97462817D01*
X174359024Y-97334983D01*
X174274791Y-97225209D01*
X174274789Y-97225208D01*
X174274789Y-97225207D01*
X174165015Y-97140974D01*
X174066092Y-97100000D01*
X175569965Y-97100000D01*
X175586449Y-97225207D01*
X175588026Y-97237181D01*
X175588027Y-97237186D01*
X175640974Y-97365015D01*
X175640975Y-97365017D01*
X175640976Y-97365018D01*
X175725209Y-97474791D01*
X175834982Y-97559024D01*
X175962817Y-97611974D01*
X176085702Y-97628152D01*
X176099999Y-97630035D01*
X176100000Y-97630035D01*
X176100001Y-97630035D01*
X176112947Y-97628330D01*
X176237183Y-97611974D01*
X176365018Y-97559024D01*
X176474791Y-97474791D01*
X176559024Y-97365018D01*
X176611974Y-97237183D01*
X176630035Y-97100000D01*
X176611974Y-96962817D01*
X176559024Y-96834983D01*
X176474791Y-96725209D01*
X176474789Y-96725208D01*
X176474789Y-96725207D01*
X176365015Y-96640974D01*
X176237186Y-96588027D01*
X176237184Y-96588026D01*
X176237183Y-96588026D01*
X176145727Y-96575985D01*
X176100001Y-96569965D01*
X176099999Y-96569965D01*
X176031408Y-96578995D01*
X175962817Y-96588026D01*
X175962816Y-96588026D01*
X175962813Y-96588027D01*
X175834985Y-96640974D01*
X175725209Y-96725209D01*
X175640974Y-96834985D01*
X175588027Y-96962813D01*
X175588026Y-96962816D01*
X175588026Y-96962817D01*
X175569965Y-97100000D01*
X174066092Y-97100000D01*
X174037186Y-97088027D01*
X174037184Y-97088026D01*
X174037183Y-97088026D01*
X173945727Y-97075985D01*
X173900001Y-97069965D01*
X173899999Y-97069965D01*
X173831408Y-97078995D01*
X173762817Y-97088026D01*
X173762816Y-97088026D01*
X173762813Y-97088027D01*
X173634985Y-97140974D01*
X173525209Y-97225209D01*
X173440974Y-97334985D01*
X173388027Y-97462813D01*
X173388026Y-97462816D01*
X173388026Y-97462817D01*
X173369965Y-97600000D01*
X131673252Y-97600000D01*
X131927411Y-97472356D01*
X132204789Y-97289922D01*
X132330708Y-97184263D01*
X132330709Y-97184262D01*
X131261718Y-96115270D01*
X131379466Y-96029722D01*
X131529722Y-95879466D01*
X131615270Y-95761717D01*
X132687641Y-96834088D01*
X132885175Y-96568756D01*
X133051166Y-96281249D01*
X133051172Y-96281236D01*
X133182663Y-95976408D01*
X133277878Y-95658365D01*
X133277881Y-95658351D01*
X133335525Y-95331437D01*
X133335526Y-95331426D01*
X133354830Y-95000003D01*
X133354830Y-94999996D01*
X133340269Y-94750000D01*
X140652970Y-94750000D01*
X141595854Y-94750000D01*
X141557370Y-94816657D01*
X141525000Y-94937465D01*
X141525000Y-95062535D01*
X141557370Y-95183343D01*
X141595854Y-95250000D01*
X140652970Y-95250000D01*
X140683242Y-95441127D01*
X140683242Y-95441130D01*
X140748904Y-95643217D01*
X140845379Y-95832557D01*
X140970272Y-96004459D01*
X140970276Y-96004464D01*
X141120535Y-96154723D01*
X141120540Y-96154727D01*
X141292442Y-96279620D01*
X141481782Y-96376095D01*
X141683871Y-96441757D01*
X141750000Y-96452231D01*
X141750000Y-95404145D01*
X141816657Y-95442630D01*
X141937465Y-95475000D01*
X142062535Y-95475000D01*
X142183343Y-95442630D01*
X142250000Y-95404145D01*
X142250000Y-96452230D01*
X142316126Y-96441757D01*
X142316129Y-96441757D01*
X142518217Y-96376095D01*
X142707557Y-96279620D01*
X142879459Y-96154727D01*
X142879464Y-96154723D01*
X143029723Y-96004464D01*
X143029727Y-96004459D01*
X143154620Y-95832558D01*
X143251466Y-95642488D01*
X143299440Y-95591692D01*
X143367261Y-95574897D01*
X143433396Y-95597434D01*
X143472435Y-95642488D01*
X143516002Y-95727992D01*
X143516003Y-95727993D01*
X143622441Y-95874494D01*
X143622445Y-95874499D01*
X143750500Y-96002554D01*
X143750505Y-96002558D01*
X143878287Y-96095396D01*
X143897006Y-96108996D01*
X143986750Y-96154723D01*
X144058360Y-96191211D01*
X144058363Y-96191212D01*
X144144476Y-96219191D01*
X144230591Y-96247171D01*
X144313429Y-96260291D01*
X144409449Y-96275500D01*
X144409454Y-96275500D01*
X144590551Y-96275500D01*
X144677259Y-96261765D01*
X144769409Y-96247171D01*
X144941639Y-96191211D01*
X145102994Y-96108996D01*
X145249501Y-96002553D01*
X145377553Y-95874501D01*
X145483996Y-95727994D01*
X145566211Y-95566639D01*
X145622171Y-95394409D01*
X145627527Y-95360594D01*
X145657456Y-95297459D01*
X145716768Y-95260528D01*
X145786630Y-95261526D01*
X145844863Y-95300136D01*
X145872473Y-95360594D01*
X145877829Y-95394410D01*
X145933787Y-95566636D01*
X145933788Y-95566639D01*
X145980519Y-95658351D01*
X146016003Y-95727993D01*
X146016006Y-95727997D01*
X146122441Y-95874494D01*
X146122445Y-95874499D01*
X146250500Y-96002554D01*
X146250505Y-96002558D01*
X146378287Y-96095396D01*
X146397006Y-96108996D01*
X146486750Y-96154723D01*
X146558360Y-96191211D01*
X146558363Y-96191212D01*
X146644476Y-96219191D01*
X146730591Y-96247171D01*
X146813429Y-96260291D01*
X146909449Y-96275500D01*
X146909454Y-96275500D01*
X147090551Y-96275500D01*
X147177259Y-96261765D01*
X147269409Y-96247171D01*
X147441639Y-96191211D01*
X147602994Y-96108996D01*
X147749501Y-96002553D01*
X147877553Y-95874501D01*
X147983996Y-95727994D01*
X148066211Y-95566639D01*
X148095986Y-95475000D01*
X148107569Y-95439351D01*
X148147006Y-95381676D01*
X148211364Y-95354477D01*
X148280211Y-95366391D01*
X148331687Y-95413635D01*
X148349500Y-95477669D01*
X148349500Y-95768102D01*
X148355126Y-95814954D01*
X148360122Y-95856561D01*
X148360122Y-95856563D01*
X148360123Y-95856564D01*
X148377722Y-95901192D01*
X148415639Y-95997343D01*
X148507077Y-96117922D01*
X148627656Y-96209360D01*
X148627657Y-96209360D01*
X148627658Y-96209361D01*
X148768436Y-96264877D01*
X148856898Y-96275500D01*
X148856903Y-96275500D01*
X150143097Y-96275500D01*
X150143102Y-96275500D01*
X150231564Y-96264877D01*
X150372342Y-96209361D01*
X150492922Y-96117922D01*
X150584361Y-95997342D01*
X150639877Y-95856564D01*
X150650500Y-95768102D01*
X150650500Y-94999996D01*
X187645170Y-94999996D01*
X187645170Y-95000003D01*
X187664473Y-95331426D01*
X187664474Y-95331437D01*
X187722118Y-95658351D01*
X187722121Y-95658365D01*
X187817336Y-95976408D01*
X187948827Y-96281236D01*
X187948833Y-96281249D01*
X188114824Y-96568755D01*
X188312357Y-96834087D01*
X189384728Y-95761716D01*
X189470278Y-95879466D01*
X189620534Y-96029722D01*
X189738281Y-96115270D01*
X188669289Y-97184263D01*
X188795215Y-97289925D01*
X189072588Y-97472356D01*
X189369252Y-97621347D01*
X189369258Y-97621350D01*
X189681213Y-97734892D01*
X189681234Y-97734899D01*
X190004248Y-97811456D01*
X190004263Y-97811458D01*
X190334012Y-97849999D01*
X190334013Y-97850000D01*
X190665987Y-97850000D01*
X190665987Y-97849999D01*
X190995736Y-97811458D01*
X190995751Y-97811456D01*
X191318765Y-97734899D01*
X191318786Y-97734892D01*
X191630741Y-97621350D01*
X191630747Y-97621347D01*
X191927411Y-97472356D01*
X192204789Y-97289922D01*
X192330708Y-97184263D01*
X192330709Y-97184262D01*
X191261718Y-96115270D01*
X191379466Y-96029722D01*
X191529722Y-95879466D01*
X191615270Y-95761717D01*
X192687641Y-96834088D01*
X192885175Y-96568756D01*
X193051166Y-96281249D01*
X193051172Y-96281236D01*
X193182663Y-95976408D01*
X193277878Y-95658365D01*
X193277881Y-95658351D01*
X193335525Y-95331437D01*
X193335526Y-95331426D01*
X193354830Y-95000003D01*
X193354830Y-94999996D01*
X193335526Y-94668573D01*
X193335525Y-94668562D01*
X193277881Y-94341648D01*
X193277878Y-94341634D01*
X193182663Y-94023591D01*
X193051172Y-93718763D01*
X193051166Y-93718750D01*
X192885172Y-93431239D01*
X192687642Y-93165910D01*
X191615270Y-94238281D01*
X191529722Y-94120534D01*
X191379466Y-93970278D01*
X191261717Y-93884728D01*
X192330709Y-92815736D01*
X192330709Y-92815735D01*
X192204784Y-92710074D01*
X191927411Y-92527643D01*
X191630747Y-92378652D01*
X191630741Y-92378649D01*
X191318786Y-92265107D01*
X191318765Y-92265100D01*
X190995751Y-92188543D01*
X190995736Y-92188541D01*
X190665987Y-92150000D01*
X190334013Y-92150000D01*
X190004263Y-92188541D01*
X190004248Y-92188543D01*
X189681234Y-92265100D01*
X189681213Y-92265107D01*
X189369258Y-92378649D01*
X189369252Y-92378652D01*
X189072581Y-92527646D01*
X188795220Y-92710070D01*
X188795213Y-92710075D01*
X188669289Y-92815735D01*
X189738282Y-93884728D01*
X189620534Y-93970278D01*
X189470278Y-94120534D01*
X189384728Y-94238282D01*
X188312357Y-93165911D01*
X188312356Y-93165911D01*
X188114829Y-93431236D01*
X188114825Y-93431242D01*
X187948833Y-93718750D01*
X187948827Y-93718763D01*
X187817336Y-94023591D01*
X187722121Y-94341634D01*
X187722118Y-94341648D01*
X187664474Y-94668562D01*
X187664473Y-94668573D01*
X187645170Y-94999996D01*
X150650500Y-94999996D01*
X150650500Y-94400000D01*
X176369965Y-94400000D01*
X176374357Y-94433363D01*
X176388026Y-94537181D01*
X176388027Y-94537186D01*
X176440974Y-94665015D01*
X176440975Y-94665017D01*
X176440976Y-94665018D01*
X176525209Y-94774791D01*
X176634982Y-94859024D01*
X176762817Y-94911974D01*
X176885702Y-94928152D01*
X176899999Y-94930035D01*
X176900000Y-94930035D01*
X176900001Y-94930035D01*
X176912947Y-94928330D01*
X177037183Y-94911974D01*
X177165018Y-94859024D01*
X177274791Y-94774791D01*
X177359024Y-94665018D01*
X177411974Y-94537183D01*
X177430035Y-94400000D01*
X177411974Y-94262817D01*
X177359935Y-94137183D01*
X177359025Y-94134985D01*
X177359024Y-94134984D01*
X177359024Y-94134983D01*
X177274791Y-94025209D01*
X177274789Y-94025208D01*
X177274789Y-94025207D01*
X177241939Y-94000000D01*
X181669965Y-94000000D01*
X181687736Y-94134983D01*
X181688026Y-94137181D01*
X181688027Y-94137186D01*
X181740974Y-94265015D01*
X181740975Y-94265017D01*
X181740976Y-94265018D01*
X181825209Y-94374791D01*
X181934982Y-94459024D01*
X182062817Y-94511974D01*
X182185702Y-94528152D01*
X182199999Y-94530035D01*
X182200000Y-94530035D01*
X182200001Y-94530035D01*
X182212947Y-94528330D01*
X182337183Y-94511974D01*
X182465018Y-94459024D01*
X182574791Y-94374791D01*
X182659024Y-94265018D01*
X182711974Y-94137183D01*
X182730035Y-94000000D01*
X182711974Y-93862817D01*
X182659024Y-93734983D01*
X182574791Y-93625209D01*
X182574789Y-93625208D01*
X182574789Y-93625207D01*
X182465015Y-93540974D01*
X182337186Y-93488027D01*
X182337184Y-93488026D01*
X182337183Y-93488026D01*
X182245727Y-93475985D01*
X182200001Y-93469965D01*
X182199999Y-93469965D01*
X182131408Y-93478995D01*
X182062817Y-93488026D01*
X182062816Y-93488026D01*
X182062813Y-93488027D01*
X181934985Y-93540974D01*
X181825209Y-93625209D01*
X181740974Y-93734985D01*
X181688027Y-93862813D01*
X181688026Y-93862816D01*
X181688026Y-93862817D01*
X181669965Y-94000000D01*
X177241939Y-94000000D01*
X177165015Y-93940974D01*
X177037186Y-93888027D01*
X177037184Y-93888026D01*
X177037183Y-93888026D01*
X176945727Y-93875985D01*
X176900001Y-93869965D01*
X176899999Y-93869965D01*
X176831408Y-93878995D01*
X176762817Y-93888026D01*
X176762816Y-93888026D01*
X176762813Y-93888027D01*
X176634985Y-93940974D01*
X176525209Y-94025209D01*
X176440974Y-94134985D01*
X176388027Y-94262813D01*
X176388026Y-94262816D01*
X176388026Y-94262817D01*
X176369965Y-94400000D01*
X150650500Y-94400000D01*
X150650500Y-94231898D01*
X150639877Y-94143436D01*
X150584361Y-94002658D01*
X150584360Y-94002657D01*
X150584360Y-94002656D01*
X150492922Y-93882077D01*
X150372343Y-93790639D01*
X150231561Y-93735122D01*
X150185926Y-93729642D01*
X150143102Y-93724500D01*
X148856898Y-93724500D01*
X148817853Y-93729188D01*
X148768438Y-93735122D01*
X148627656Y-93790639D01*
X148507077Y-93882077D01*
X148415639Y-94002656D01*
X148360122Y-94143438D01*
X148357240Y-94167442D01*
X148349500Y-94231898D01*
X148349500Y-94231903D01*
X148349500Y-94522330D01*
X148329815Y-94589369D01*
X148277011Y-94635124D01*
X148207853Y-94645068D01*
X148144297Y-94616043D01*
X148107569Y-94560648D01*
X148066212Y-94433363D01*
X148066211Y-94433360D01*
X148027192Y-94356782D01*
X147983996Y-94272006D01*
X147954856Y-94231898D01*
X147877558Y-94125505D01*
X147877554Y-94125500D01*
X147749499Y-93997445D01*
X147749494Y-93997441D01*
X147602997Y-93891006D01*
X147602996Y-93891005D01*
X147602994Y-93891004D01*
X147513447Y-93845377D01*
X147441639Y-93808788D01*
X147441636Y-93808787D01*
X147269410Y-93752829D01*
X147090551Y-93724500D01*
X147090546Y-93724500D01*
X146909454Y-93724500D01*
X146909449Y-93724500D01*
X146730589Y-93752829D01*
X146558363Y-93808787D01*
X146558360Y-93808788D01*
X146397002Y-93891006D01*
X146250505Y-93997441D01*
X146250500Y-93997445D01*
X146122445Y-94125500D01*
X146122441Y-94125505D01*
X146016006Y-94272002D01*
X145933788Y-94433360D01*
X145933787Y-94433363D01*
X145877829Y-94605589D01*
X145872473Y-94639406D01*
X145842543Y-94702540D01*
X145783232Y-94739471D01*
X145713369Y-94738473D01*
X145655137Y-94699863D01*
X145627527Y-94639406D01*
X145623826Y-94616043D01*
X145622171Y-94605591D01*
X145594191Y-94519476D01*
X145566212Y-94433363D01*
X145566211Y-94433360D01*
X145527192Y-94356782D01*
X145483996Y-94272006D01*
X145454856Y-94231898D01*
X145377558Y-94125505D01*
X145377554Y-94125500D01*
X145249499Y-93997445D01*
X145249494Y-93997441D01*
X145102997Y-93891006D01*
X145102996Y-93891005D01*
X145102994Y-93891004D01*
X145013447Y-93845377D01*
X144941639Y-93808788D01*
X144941636Y-93808787D01*
X144769410Y-93752829D01*
X144590551Y-93724500D01*
X144590546Y-93724500D01*
X144409454Y-93724500D01*
X144409449Y-93724500D01*
X144230589Y-93752829D01*
X144058363Y-93808787D01*
X144058360Y-93808788D01*
X143897002Y-93891006D01*
X143750505Y-93997441D01*
X143750500Y-93997445D01*
X143622445Y-94125500D01*
X143622441Y-94125505D01*
X143516004Y-94272004D01*
X143472435Y-94357512D01*
X143424460Y-94408307D01*
X143356639Y-94425102D01*
X143290504Y-94402564D01*
X143251466Y-94357511D01*
X143154620Y-94167442D01*
X143029727Y-93995540D01*
X143029723Y-93995535D01*
X142879464Y-93845276D01*
X142879459Y-93845272D01*
X142707557Y-93720379D01*
X142518215Y-93623903D01*
X142316124Y-93558241D01*
X142250000Y-93547768D01*
X142250000Y-94595854D01*
X142183343Y-94557370D01*
X142062535Y-94525000D01*
X141937465Y-94525000D01*
X141816657Y-94557370D01*
X141750000Y-94595854D01*
X141750000Y-93547768D01*
X141749999Y-93547768D01*
X141683875Y-93558241D01*
X141481784Y-93623903D01*
X141292442Y-93720379D01*
X141120540Y-93845272D01*
X141120535Y-93845276D01*
X140970276Y-93995535D01*
X140970272Y-93995540D01*
X140845379Y-94167442D01*
X140748904Y-94356782D01*
X140683242Y-94558869D01*
X140683242Y-94558872D01*
X140652970Y-94750000D01*
X133340269Y-94750000D01*
X133335526Y-94668573D01*
X133335525Y-94668562D01*
X133277881Y-94341648D01*
X133277878Y-94341634D01*
X133182663Y-94023591D01*
X133051172Y-93718763D01*
X133051166Y-93718750D01*
X132885172Y-93431239D01*
X132687642Y-93165910D01*
X131615270Y-94238281D01*
X131529722Y-94120534D01*
X131379466Y-93970278D01*
X131261717Y-93884728D01*
X132330709Y-92815736D01*
X132330709Y-92815735D01*
X132204784Y-92710074D01*
X131927411Y-92527643D01*
X131630747Y-92378652D01*
X131630741Y-92378649D01*
X131318786Y-92265107D01*
X131318765Y-92265100D01*
X130995751Y-92188543D01*
X130995736Y-92188541D01*
X130665987Y-92150000D01*
X130334013Y-92150000D01*
X130004263Y-92188541D01*
X130004248Y-92188543D01*
X129681234Y-92265100D01*
X129681213Y-92265107D01*
X129369258Y-92378649D01*
X129369252Y-92378652D01*
X129072581Y-92527646D01*
X128795220Y-92710070D01*
X128795213Y-92710075D01*
X128669289Y-92815735D01*
X129738282Y-93884728D01*
X129620534Y-93970278D01*
X129470278Y-94120534D01*
X129384728Y-94238282D01*
X128312357Y-93165911D01*
X128312356Y-93165911D01*
X128114829Y-93431236D01*
X128114825Y-93431242D01*
X127948833Y-93718750D01*
X127948827Y-93718763D01*
X127817336Y-94023591D01*
X127722121Y-94341634D01*
X127722118Y-94341648D01*
X127664474Y-94668562D01*
X127664473Y-94668573D01*
X127645170Y-94999996D01*
X127000575Y-94999996D01*
X127000649Y-94996967D01*
X127004824Y-94911973D01*
X127017052Y-94663068D01*
X127018245Y-94650962D01*
X127035122Y-94537186D01*
X127066849Y-94323296D01*
X127069218Y-94311385D01*
X127149710Y-93990043D01*
X127153240Y-93978411D01*
X127156150Y-93970278D01*
X127264835Y-93666525D01*
X127269476Y-93655318D01*
X127411124Y-93355828D01*
X127416840Y-93345136D01*
X127587145Y-93060998D01*
X127593888Y-93050905D01*
X127791232Y-92784818D01*
X127798935Y-92775433D01*
X128021405Y-92529975D01*
X128029975Y-92521405D01*
X128275433Y-92298935D01*
X128284818Y-92291232D01*
X128550905Y-92093888D01*
X128560998Y-92087145D01*
X128845136Y-91916840D01*
X128855828Y-91911124D01*
X129155318Y-91769476D01*
X129166525Y-91764835D01*
X129478412Y-91653239D01*
X129490043Y-91649710D01*
X129811385Y-91569218D01*
X129823296Y-91566849D01*
X130150962Y-91518244D01*
X130163068Y-91517052D01*
X130496967Y-91500648D01*
X130503051Y-91500500D01*
X130565892Y-91500500D01*
X190434108Y-91500500D01*
X190496949Y-91500500D01*
X190503032Y-91500648D01*
G37*
%TD.AperFunction*%
%TD*%
M02*
